{
.appVersion = "1312";
DisplayStrings = (
"najpopolnej/scaron ih\012andspænits/f_t.liga ftkx",
"o/_part.bowl pcsSCQOJGU\012auftnm/space s/a.002 gmeister\012asseunmeyer",
"/_part.percent-zero/fraction %10/perthousand",
"ABCDE\012HOHCHCHH\012%/perthousand tpqd/_part.bowl g",
"/_part.bowl \012bdgpþq/bhook/dhook",
"utlfyrgeaj/idotless.ss05/i.ss05",
"/.notdef",
"amrhnuilim\012eo/_part.bowl qu/dotaccentcomb ilibrium",
"b/b.ss01/d.ss01 pqm/_part.bowl nbod/g.ss01 ngbpþq\012b/bhook/dhook d/a.ss02 ,/gacute \012/esh/ghook/gsingle/g_j.liga jt"
);
classes = (
{
automatic = 1;

glyphs = (
{
glyphname = A;
lastChange = "2020-05-18 07:30:35 +0000";
layers = (
{
anchors = (
{
name = bottom;
position = "{322, 0}";
},
{
name = ogonek;
position = "{546, 0}";
},
{
name = top;
position = "{322, 720}";
}
);
layerId = "AB099EFE-E788-4EFC-8633-CF147CB782A6";
paths = (
{
closed = 1;
nodes = (
"28 0 LINE",
"62 0 LINE",
"152 242 LINE",
"158 254 LINE",
"318 676 LINE",
"322 676 LINE",
"482 252 LINE",
"488 240 LINE",
"578 0 LINE",
"612 0 LINE",
"334 720 LINE",
"306 720 LINE"
);
},
{
closed = 1;
nodes = (
"138 232 LINE",
"504 232 LINE",
"504 262 LINE",
"138 262 LINE"
);
}
);
width = 640;
},
{
anchors = (
{
name = bottom;
position = "{360, 0}";
},
{
name = ogonek;
position = "{646, 0}";
},
{
name = top;
position = "{360, 720}";
}
);
layerId = "2D8F7115-C311-411E-929D-56333CF7FFB2";
paths = (
{
closed = 1;
nodes = (
"4 0 LINE",
"192 0 LINE",
"252 178 LINE",
"266 246 LINE",
"358 518 LINE",
"362 518 LINE",
"454 246 LINE",
"468 178 LINE",
"528 0 LINE",
"716 0 LINE",
"434 720 LINE",
"286 720 LINE"
);
},
{
closed = 1;
nodes = (
"172 134 LINE",
"548 134 LINE",
"548 278 LINE",
"172 278 LINE"
);
}
);
width = 720;
},
{
anchors = (
{
name = bottom;
position = "{342, 0}";
},
{
name = ogonek;
position = "{594, 0}";
},
{
name = top;
position = "{342, 720}";
}
);
associatedMasterId = "AB099EFE-E788-4EFC-8633-CF147CB782A6";
layerId = "118C2287-473A-4C1A-8D33-C3B93A8616D0";
name = "Half {450}";
paths = (
{
closed = 1;
nodes = (
"16 0 LINE",
"120 0 LINE",
"200 206 LINE",
"212 244 LINE",
"338 574 LINE",
"342 574 LINE",
"468 244 LINE",
"480 206 LINE",
"560 0 LINE",
"664 0 LINE",
"380 720 LINE",
"300 720 LINE"
);
},
{
closed = 1;
nodes = (
"152 180 LINE",
"526 180 LINE",
"526 272 LINE",
"152 272 LINE"
);
}
);
width = 680;
}
);
leftKerningGroup = LAT_A_UC;
rightKerningGroup = LAT_A_UC;
unicode = 0041;
},
{
glyphname = AE;
lastChange = "2020-05-15 06:09:29 +0000";
layers = (
{
anchors = (
{
name = bottom;
position = "{540, 0}";
},
{
name = top;
position = "{558, 720}";
}
);
layerId = "AB099EFE-E788-4EFC-8633-CF147CB782A6";
paths = (
{
closed = 1;
nodes = (
"8 0 LINE",
"46 0 LINE",
"288 428 LINE",
"424 666 LINE",
"446 666 LINE",
"442 720 LINE",
"418 720 LINE"
);
},
{
closed = 1;
nodes = (
"166 232 LINE",
"476 232 LINE",
"472 262 LINE",
"166 262 LINE"
);
},
{
closed = 1;
nodes = (
"432 582 LINE",
"484 0 LINE",
"822 0 LINE",
"822 28 LINE",
"512 28 LINE",
"484 356 LINE",
"784 356 LINE",
"784 384 LINE",
"480 384 LINE",
"452 690 LINE",
"808 690 LINE",
"808 720 LINE",
"420 720 LINE"
);
}
);
width = 888;
},
{
anchors = (
{
name = bottom;
position = "{566, 0}";
},
{
name = top;
position = "{566, 720}";
}
);
layerId = "2D8F7115-C311-411E-929D-56333CF7FFB2";
paths = (
{
closed = 1;
nodes = (
"4 0 LINE",
"196 0 LINE",
"336 314 LINE",
"436 564 LINE",
"448 564 LINE",
"440 720 LINE",
"322 720 LINE"
);
},
{
closed = 1;
nodes = (
"212 138 LINE",
"602 138 LINE",
"590 274 LINE",
"212 274 LINE"
);
},
{
closed = 1;
nodes = (
"442 466 LINE",
"480 0 LINE",
"876 0 LINE",
"876 156 LINE",
"636 156 LINE",
"622 284 LINE",
"848 284 LINE",
"848 440 LINE",
"610 440 LINE",
"600 564 LINE",
"856 564 LINE",
"868 720 LINE",
"434 720 LINE"
);
}
);
width = 928;
}
);
leftKerningGroup = LAT_AE_UC;
rightKerningGroup = LAT_E_UC;
rightMetricsKey = E;
unicode = 00C6;
},
{
glyphname = B;
lastChange = "2020-05-16 02:35:27 +0000";
layers = (
{
anchors = (
{
name = bottom;
position = "{286, 0}";
},
{
name = center;
position = "{116, 206}";
},
{
name = top;
position = "{282, 720}";
}
);
background = {
paths = (
{
closed = 1;
nodes = (
"128 0 LINE",
"128 720 LINE",
"96 720 LINE",
"96 0 LINE"
);
},
{
closed = 1;
nodes = (
"302 0 LINE SMOOTH",
"436 0 OFFCURVE",
"524 70 OFFCURVE",
"524 192 CURVE SMOOTH",
"524 288 OFFCURVE",
"454 362 OFFCURVE",
"354 378 CURVE",
"350 370 LINE",
"413 399 OFFCURVE",
"467 462 OFFCURVE",
"466 546 CURVE SMOOTH",
"467 660 OFFCURVE",
"378 720 OFFCURVE",
"250 720 CURVE SMOOTH",
"106 720 LINE",
"106 690 LINE",
"246 690 LINE SMOOTH",
"360 690 OFFCURVE",
"434 639 OFFCURVE",
"434 546 CURVE SMOOTH",
"434 456 OFFCURVE",
"360 384 OFFCURVE",
"284 384 CURVE SMOOTH",
"106 384 LINE",
"106 356 LINE",
"302 356 LINE SMOOTH",
"421 356 OFFCURVE",
"491 280 OFFCURVE",
"492 190 CURVE SMOOTH",
"491 96 OFFCURVE",
"430 30 OFFCURVE",
"308 30 CURVE SMOOTH",
"124 30 LINE",
"124 0 LINE"
);
}
);
};
layerId = "AB099EFE-E788-4EFC-8633-CF147CB782A6";
paths = (
{
closed = 1;
nodes = (
"298 0 LINE SMOOTH",
"436 0 OFFCURVE",
"524 76 OFFCURVE",
"524 192 CURVE SMOOTH",
"524 292 OFFCURVE",
"462 360 OFFCURVE",
"360 378 CURVE",
"360 372 LINE",
"424 400 OFFCURVE",
"466 460 OFFCURVE",
"466 536 CURVE SMOOTH",
"466 646 OFFCURVE",
"388 720 OFFCURVE",
"276 720 CURVE SMOOTH",
"106 720 LINE",
"106 690 LINE",
"276 690 LINE SMOOTH",
"368 690 OFFCURVE",
"434 630 OFFCURVE",
"434 536 CURVE SMOOTH",
"434 446 OFFCURVE",
"368 384 OFFCURVE",
"276 384 CURVE SMOOTH",
"106 384 LINE",
"106 356 LINE",
"298 356 LINE SMOOTH",
"418 356 OFFCURVE",
"492 292 OFFCURVE",
"492 192 CURVE SMOOTH",
"492 92 OFFCURVE",
"418 30 OFFCURVE",
"298 30 CURVE SMOOTH",
"124 30 LINE",
"124 0 LINE"
);
},
{
closed = 1;
nodes = (
"128 0 LINE",
"128 720 LINE",
"96 720 LINE",
"96 0 LINE"
);
}
);
width = 586;
},
{
anchors = (
{
name = bottom;
position = "{346, 0}";
},
{
name = center;
position = "{160, 226}";
},
{
name = top;
position = "{310, 720}";
}
);
background = {
paths = (
{
closed = 1;
nodes = (
"390 0 LINE SMOOTH",
"532 0 OFFCURVE",
"631 88 OFFCURVE",
"632 212 CURVE SMOOTH",
"631 324 OFFCURVE",
"551 369 OFFCURVE",
"456 394 CURVE",
"456 350 LINE",
"536 382 OFFCURVE",
"604 453 OFFCURVE",
"604 536 CURVE SMOOTH",
"604 647 OFFCURVE",
"502 719 OFFCURVE",
"350 720 CURVE SMOOTH",
"234 720 LINE",
"234 568 LINE",
"340 568 LINE SMOOTH",
"391 567 OFFCURVE",
"426 545 OFFCURVE",
"426 500 CURVE SMOOTH",
"426 454 OFFCURVE",
"393 428 OFFCURVE",
"348 428 CURVE SMOOTH",
"234 428 LINE",
"234 300 LINE",
"364 300 LINE SMOOTH",
"421 300 OFFCURVE",
"454 275 OFFCURVE",
"454 230 CURVE SMOOTH",
"454 183 OFFCURVE",
"417 152 OFFCURVE",
"370 152 CURVE SMOOTH",
"234 152 LINE",
"234 0 LINE"
);
},
{
closed = 1;
nodes = (
"248 0 LINE",
"248 720 LINE",
"72 720 LINE",
"72 0 LINE"
);
}
);
};
layerId = "2D8F7115-C311-411E-929D-56333CF7FFB2";
paths = (
{
closed = 1;
nodes = (
"392 0 LINE SMOOTH",
"534 0 OFFCURVE",
"630 88 OFFCURVE",
"632 210 CURVE SMOOTH",
"630 324 OFFCURVE",
"550 378 OFFCURVE",
"448 394 CURVE",
"448 350 LINE",
"518 374 OFFCURVE",
"578 450 OFFCURVE",
"578 536 CURVE SMOOTH",
"578 640 OFFCURVE",
"486 720 OFFCURVE",
"326 720 CURVE SMOOTH",
"234 720 LINE",
"234 568 LINE",
"330 568 LINE SMOOTH",
"382 568 OFFCURVE",
"410 546 OFFCURVE",
"410 500 CURVE SMOOTH",
"410 454 OFFCURVE",
"384 428 OFFCURVE",
"340 428 CURVE SMOOTH",
"234 428 LINE",
"234 300 LINE",
"374 300 LINE SMOOTH",
"424 300 OFFCURVE",
"458 272 OFFCURVE",
"458 228 CURVE SMOOTH",
"458 182 OFFCURVE",
"426 152 OFFCURVE",
"380 152 CURVE SMOOTH",
"234 152 LINE",
"234 0 LINE"
);
},
{
closed = 1;
nodes = (
"248 0 LINE",
"248 720 LINE",
"72 720 LINE",
"72 0 LINE"
);
}
);
width = 656;
},
{
anchors = (
{
name = bottom;
position = "{312, 0}";
},
{
name = center;
position = "{138, 208}";
},
{
name = top;
position = "{310, 720}";
}
);
associatedMasterId = "AB099EFE-E788-4EFC-8633-CF147CB782A6";
background = {
paths = (
{
closed = 1;
nodes = (
"324 0 LINE SMOOTH",
"454 0 OFFCURVE",
"565 68 OFFCURVE",
"566 210 CURVE SMOOTH",
"565 303 OFFCURVE",
"496 360 OFFCURVE",
"412 390 CURVE",
"412 364 LINE",
"477 395 OFFCURVE",
"530 453 OFFCURVE",
"530 534 CURVE SMOOTH",
"530 660 OFFCURVE",
"432 719 OFFCURVE",
"288 720 CURVE SMOOTH",
"168 720 LINE",
"168 624 LINE",
"290 624 LINE SMOOTH",
"374 625 OFFCURVE",
"423 590 OFFCURVE",
"424 520 CURVE SMOOTH",
"423 448 OFFCURVE",
"380 415 OFFCURVE",
"298 416 CURVE SMOOTH",
"168 416 LINE",
"168 320 LINE",
"304 320 LINE SMOOTH",
"401 321 OFFCURVE",
"458 284 OFFCURVE",
"458 210 CURVE SMOOTH",
"460 134 OFFCURVE",
"403 95 OFFCURVE",
"318 94 CURVE SMOOTH",
"178 94 LINE",
"178 0 LINE"
);
},
{
closed = 1;
nodes = (
"190 0 LINE",
"190 720 LINE",
"84 720 LINE",
"84 0 LINE"
);
}
);
};
layerId = "5AD6DEE3-C1BF-45C1-B31B-12614FF61D47";
name = "Half {450}";
paths = (
{
closed = 1;
nodes = (
"324 0 LINE SMOOTH",
"469 0 OFFCURVE",
"563 79 OFFCURVE",
"564 202 CURVE SMOOTH",
"563 302 OFFCURVE",
"501 364 OFFCURVE",
"406 388 CURVE",
"406 362 LINE",
"459 382 OFFCURVE",
"514 452 OFFCURVE",
"514 536 CURVE SMOOTH",
"514 649 OFFCURVE",
"419 720 OFFCURVE",
"272 720 CURVE SMOOTH",
"168 720 LINE",
"168 628 LINE",
"278 628 LINE SMOOTH",
"359 628 OFFCURVE",
"411 586 OFFCURVE",
"410 520 CURVE SMOOTH",
"411 448 OFFCURVE",
"368 414 OFFCURVE",
"286 414 CURVE SMOOTH",
"168 414 LINE",
"168 322 LINE",
"316 322 LINE SMOOTH",
"403 322 OFFCURVE",
"460 277 OFFCURVE",
"460 208 CURVE SMOOTH",
"460 138 OFFCURVE",
"409 92 OFFCURVE",
"330 92 CURVE SMOOTH",
"178 92 LINE",
"178 0 LINE"
);
},
{
closed = 1;
nodes = (
"188 0 LINE",
"188 720 LINE",
"84 720 LINE",
"84 0 LINE"
);
}
);
width = 606;
}
);
leftKerningGroup = LAT_H_UC;
leftMetricsKey = H;
rightKerningGroup = LAT_B_UC;
unicode = 0042;
},
{
glyphname = C;
lastChange = "2020-05-17 04:59:33 +0000";
layers = (
{
anchors = (
{
name = base;
position = "{420, 0}";
},
{
name = bottom;
position = "{400, 0}";
},
{
name = cedilla;
position = "{400, 0}";
},
{
name = top;
position = "{400, 720}";
}
);
background = {
paths = (
{
closed = 1;
nodes = (
"640 144 LINE",
"604 78 OFFCURVE",
"508 21 OFFCURVE",
"400 20 CURVE SMOOTH",
"232 21 OFFCURVE",
"88 164 OFFCURVE",
"88 360 CURVE SMOOTH",
"88 559 OFFCURVE",
"242 699 OFFCURVE",
"402 698 CURVE SMOOTH",
"501 699 OFFCURVE",
"602 647 OFFCURVE",
"644 572 CURVE",
"672 588 LINE",
"631 662 OFFCURVE",
"522 728 OFFCURVE",
"402 728 CURVE SMOOTH",
"220 728 OFFCURVE",
"55 576 OFFCURVE",
"56 360 CURVE SMOOTH",
"55 148 OFFCURVE",
"214 -8 OFFCURVE",
"398 -8 CURVE SMOOTH",
"506 -8 OFFCURVE",
"615 43 OFFCURVE",
"666 124 CURVE"
);
}
);
};
layerId = "AB099EFE-E788-4EFC-8633-CF147CB782A6";
paths = (
{
closed = 1;
nodes = (
"486 -8 OFFCURVE",
"576 26 OFFCURVE",
"632 82 CURVE",
"612 108 LINE",
"568 58 OFFCURVE",
"488 24 OFFCURVE",
"400 22 CURVE SMOOTH",
"232 24 OFFCURVE",
"88 164 OFFCURVE",
"88 360 CURVE SMOOTH",
"88 560 OFFCURVE",
"242 700 OFFCURVE",
"402 698 CURVE SMOOTH",
"480 700 OFFCURVE",
"560 668 OFFCURVE",
"610 616 CURVE",
"630 642 LINE",
"576 692 OFFCURVE",
"492 728 OFFCURVE",
"402 728 CURVE SMOOTH",
"220 728 OFFCURVE",
"56 576 OFFCURVE",
"56 360 CURVE SMOOTH",
"56 148 OFFCURVE",
"214 -8 OFFCURVE",
"398 -8 CURVE SMOOTH"
);
}
);
width = 672;
},
{
anchors = (
{
name = base;
position = "{416, 0}";
},
{
name = bottom;
position = "{408, 0}";
},
{
name = cedilla;
position = "{420, 0}";
},
{
name = top;
position = "{406, 720}";
}
);
background = {
paths = (
{
closed = 1;
nodes = (
"570 236 LINE",
"547 189 OFFCURVE",
"481 144 OFFCURVE",
"408 144 CURVE SMOOTH",
"294 144 OFFCURVE",
"207 238 OFFCURVE",
"208 362 CURVE SMOOTH",
"207 483 OFFCURVE",
"294 576 OFFCURVE",
"408 576 CURVE SMOOTH",
"475 576 OFFCURVE",
"543 539 OFFCURVE",
"566 488 CURVE",
"722 562 LINE",
"672 664 OFFCURVE",
"534 732 OFFCURVE",
"406 732 CURVE SMOOTH",
"191 732 OFFCURVE",
"29 571 OFFCURVE",
"28 360 CURVE SMOOTH",
"29 148 OFFCURVE",
"193 -8 OFFCURVE",
"408 -8 CURVE SMOOTH",
"549 -8 OFFCURVE",
"688 66 OFFCURVE",
"734 174 CURVE"
);
}
);
};
backgroundImage = {
crop = "{{21.78, 0}, {150.366, 213}}";
imagePath = ../../Ideation/Client/image_480.png;
locked = "1";
transform = "{4.775, 0, 0, 4.775, -100, -146}";
};
layerId = "2D8F7115-C311-411E-929D-56333CF7FFB2";
paths = (
{
closed = 1;
nodes = (
"504 -8 OFFCURVE",
"600 24 OFFCURVE",
"664 82 CURVE",
"556 210 LINE",
"528 178 OFFCURVE",
"470 152 OFFCURVE",
"408 152 CURVE SMOOTH",
"294 152 OFFCURVE",
"208 238 OFFCURVE",
"208 362 CURVE SMOOTH",
"208 484 OFFCURVE",
"294 568 OFFCURVE",
"408 568 CURVE SMOOTH",
"466 568 OFFCURVE",
"524 544 OFFCURVE",
"554 508 CURVE",
"660 636 LINE",
"594 694 OFFCURVE",
"498 728 OFFCURVE",
"406 728 CURVE SMOOTH",
"192 728 OFFCURVE",
"30 572 OFFCURVE",
"28 360 CURVE SMOOTH",
"30 148 OFFCURVE",
"194 -8 OFFCURVE",
"408 -8 CURVE SMOOTH"
);
}
);
width = 684;
},
{
anchors = (
{
name = base;
position = "{410, 0}";
},
{
name = bottom;
position = "{400, 0}";
},
{
name = cedilla;
position = "{402, 0}";
},
{
name = top;
position = "{400, 720}";
}
);
associatedMasterId = "AB099EFE-E788-4EFC-8633-CF147CB782A6";
background = {
paths = (
{
closed = 1;
nodes = (
"596 192 LINE",
"553 121 OFFCURVE",
"483 82 OFFCURVE",
"400 82 CURVE SMOOTH",
"261 82 OFFCURVE",
"146 195 OFFCURVE",
"146 360 CURVE SMOOTH",
"146 522 OFFCURVE",
"255 637 OFFCURVE",
"398 638 CURVE SMOOTH",
"485 637 OFFCURVE",
"557 594 OFFCURVE",
"596 528 CURVE",
"684 576 LINE",
"627 674 OFFCURVE",
"522 730 OFFCURVE",
"400 730 CURVE SMOOTH",
"197 730 OFFCURVE",
"39 578 OFFCURVE",
"40 360 CURVE SMOOTH",
"39 138 OFFCURVE",
"203 -8 OFFCURVE",
"402 -8 CURVE SMOOTH",
"532 -8 OFFCURVE",
"635 53 OFFCURVE",
"688 150 CURVE"
);
}
);
};
layerId = "0C70BBED-6CBF-4E45-B429-2F50D50C94E8";
name = "Half {450}";
paths = (
{
closed = 1;
nodes = (
"508 -8 OFFCURVE",
"592 31 OFFCURVE",
"650 94 CURVE",
"578 168 LINE",
"536 117 OFFCURVE",
"477 82 OFFCURVE",
"400 82 CURVE SMOOTH",
"261 82 OFFCURVE",
"144 195 OFFCURVE",
"144 360 CURVE SMOOTH",
"144 522 OFFCURVE",
"255 637 OFFCURVE",
"398 638 CURVE SMOOTH",
"481 637 OFFCURVE",
"536 598 OFFCURVE",
"576 554 CURVE",
"646 628 LINE",
"588 691 OFFCURVE",
"504 730 OFFCURVE",
"400 730 CURVE SMOOTH",
"197 730 OFFCURVE",
"39 578 OFFCURVE",
"40 360 CURVE SMOOTH",
"39 138 OFFCURVE",
"203 -8 OFFCURVE",
"402 -8 CURVE SMOOTH"
);
}
);
width = 682;
}
);
leftKerningGroup = LAT_O_UC;
leftMetricsKey = O;
rightKerningGroup = LAT_C_UC;
unicode = 0043;
},
{
glyphname = D;
lastChange = "2020-05-16 05:06:08 +0000";
layers = (
{
anchors = (
{
name = bottom;
position = "{340, 0}";
},
{
name = center;
position = "{116, 360}";
},
{
name = top;
position = "{338, 720}";
}
);
layerId = "AB099EFE-E788-4EFC-8633-CF147CB782A6";
paths = (
{
closed = 1;
nodes = (
"96 0 LINE",
"318 0 LINE SMOOTH",
"516 0 OFFCURVE",
"632 154 OFFCURVE",
"630 368 CURVE SMOOTH",
"632 570 OFFCURVE",
"516 720 OFFCURVE",
"318 720 CURVE SMOOTH",
"96 720 LINE"
);
},
{
closed = 1;
nodes = (
"128 30 LINE",
"128 690 LINE",
"314 690 LINE SMOOTH",
"496 690 OFFCURVE",
"598 548 OFFCURVE",
"598 368 CURVE SMOOTH",
"598 178 OFFCURVE",
"496 30 OFFCURVE",
"314 30 CURVE SMOOTH"
);
}
);
width = 686;
},
{
anchors = (
{
name = bottom;
position = "{344, 0}";
},
{
name = center;
position = "{166, 360}";
},
{
name = top;
position = "{346, 720}";
}
);
layerId = "2D8F7115-C311-411E-929D-56333CF7FFB2";
paths = (
{
closed = 1;
nodes = (
"72 0 LINE",
"334 0 LINE SMOOTH",
"506 0 OFFCURVE",
"694 116 OFFCURVE",
"692 364 CURVE SMOOTH",
"694 610 OFFCURVE",
"506 720 OFFCURVE",
"322 720 CURVE SMOOTH",
"72 720 LINE"
);
},
{
closed = 1;
nodes = (
"248 156 LINE",
"248 564 LINE",
"340 564 LINE SMOOTH",
"404 564 OFFCURVE",
"516 520 OFFCURVE",
"516 364 CURVE SMOOTH",
"516 206 OFFCURVE",
"404 156 OFFCURVE",
"340 156 CURVE SMOOTH"
);
}
);
width = 720;
}
);
leftKerningGroup = LAT_H_UC;
leftMetricsKey = H;
rightKerningGroup = LAT_O_UC;
rightMetricsKey = O;
unicode = 0044;
},
{
glyphname = E;
lastChange = "2020-05-16 02:41:21 +0000";
layers = (
{
anchors = (
{
name = bottom;
position = "{300, 0}";
},
{
name = cedilla;
position = "{294, 0}";
},
{
name = ogonek;
position = "{388, 0}";
},
{
name = top;
position = "{290, 720}";
},
{
name = topleft;
position = "{-26, 632}";
}
);
layerId = "AB099EFE-E788-4EFC-8633-CF147CB782A6";
paths = (
{
closed = 1;
nodes = (
"96 0 LINE",
"466 0 LINE",
"466 30 LINE",
"128 30 LINE",
"128 354 LINE",
"418 354 LINE",
"418 384 LINE",
"128 384 LINE",
"128 690 LINE",
"466 690 LINE",
"466 720 LINE",
"96 720 LINE"
);
}
);
width = 532;
},
{
anchors = (
{
name = bottom;
position = "{306, 0}";
},
{
name = cedilla;
position = "{304, 0}";
},
{
name = ogonek;
position = "{402, 0}";
},
{
name = top;
position = "{302, 720}";
},
{
name = topleft;
position = "{-54, 652}";
}
);
layerId = "2D8F7115-C311-411E-929D-56333CF7FFB2";
paths = (
{
closed = 1;
nodes = (
"72 0 LINE",
"496 0 LINE",
"496 156 LINE",
"248 156 LINE",
"248 288 LINE",
"454 288 LINE",
"454 436 LINE",
"248 436 LINE",
"248 564 LINE",
"496 564 LINE",
"496 720 LINE",
"72 720 LINE"
);
}
);
width = 548;
}
);
leftKerningGroup = LAT_H_UC;
leftMetricsKey = H;
rightKerningGroup = LAT_E_UC;
unicode = 0045;
},
{
glyphname = F;
lastChange = "2020-05-16 02:41:40 +0000";
layers = (
{
anchors = (
{
name = bottom;
position = "{112, 0}";
},
{
name = center;
position = "{112, 184}";
},
{
name = top;
position = "{294, 720}";
}
);
layerId = "AB099EFE-E788-4EFC-8633-CF147CB782A6";
paths = (
{
closed = 1;
nodes = (
"96 0 LINE",
"128 0 LINE",
"128 354 LINE",
"418 354 LINE",
"418 384 LINE",
"128 384 LINE",
"128 690 LINE",
"458 690 LINE",
"458 720 LINE",
"96 720 LINE"
);
}
);
width = 492;
},
{
anchors = (
{
name = bottom;
position = "{160, 0}";
},
{
name = center;
position = "{160, 144}";
},
{
name = top;
position = "{314, 720}";
}
);
layerId = "2D8F7115-C311-411E-929D-56333CF7FFB2";
paths = (
{
closed = 1;
nodes = (
"72 0 LINE",
"248 0 LINE",
"248 258 LINE",
"454 258 LINE",
"454 416 LINE",
"248 416 LINE",
"248 564 LINE",
"496 564 LINE",
"496 720 LINE",
"72 720 LINE"
);
}
);
width = 528;
}
);
leftKerningGroup = LAT_H_UC;
leftMetricsKey = H;
rightKerningGroup = LAT_F_UC;
unicode = 0046;
},
{
glyphname = G;
lastChange = "2020-05-18 08:07:41 +0000";
layers = (
{
anchors = (
{
name = bottom;
position = "{382, 0}";
},
{
name = hook;
position = "{626, 642}";
},
{
name = top;
position = "{382, 720}";
}
);
background = {
paths = (
{
closed = 1;
nodes = (
"658 164 OFFCURVE",
"567 18 OFFCURVE",
"394 18 CURVE SMOOTH",
"224 18 OFFCURVE",
"86 160 OFFCURVE",
"86 360 CURVE SMOOTH",
"86 551 OFFCURVE",
"214 699 OFFCURVE",
"388 698 CURVE SMOOTH",
"483 699 OFFCURVE",
"573 656 OFFCURVE",
"624 574 CURVE",
"654 588 LINE",
"598 678 OFFCURVE",
"493 728 OFFCURVE",
"386 728 CURVE SMOOTH",
"195 728 OFFCURVE",
"53 569 OFFCURVE",
"54 360 CURVE SMOOTH",
"53 142 OFFCURVE",
"205 -8 OFFCURVE",
"392 -8 CURVE SMOOTH",
"580 -8 OFFCURVE",
"691 136 OFFCURVE",
"690 342 CURVE SMOOTH",
"690 366 LINE",
"370 366 LINE",
"370 338 LINE",
"658 338 LINE"
);
}
);
};
layerId = "AB099EFE-E788-4EFC-8633-CF147CB782A6";
paths = (
{
closed = 1;
nodes = (
"582 -8 OFFCURVE",
"692 136 OFFCURVE",
"692 342 CURVE SMOOTH",
"692 366 LINE",
"372 366 LINE",
"372 338 LINE",
"660 338 LINE",
"660 164 OFFCURVE",
"570 20 OFFCURVE",
"396 20 CURVE SMOOTH",
"226 20 OFFCURVE",
"88 160 OFFCURVE",
"88 360 CURVE SMOOTH",
"88 552 OFFCURVE",
"216 700 OFFCURVE",
"396 698 CURVE SMOOTH",
"480 700 OFFCURVE",
"558 668 OFFCURVE",
"608 616 CURVE",
"626 642 LINE",
"574 692 OFFCURVE",
"490 728 OFFCURVE",
"394 728 CURVE SMOOTH",
"196 728 OFFCURVE",
"56 570 OFFCURVE",
"56 360 CURVE SMOOTH",
"56 142 OFFCURVE",
"208 -8 OFFCURVE",
"394 -8 CURVE SMOOTH"
);
}
);
width = 752;
},
{
anchors = (
{
name = bottom;
position = "{396, 0}";
},
{
name = hook;
position = "{662, 640}";
},
{
name = top;
position = "{396, 720}";
}
);
background = {
paths = (
{
closed = 1;
nodes = (
"501 144 OFFCURVE",
"414 144 CURVE SMOOTH",
"292 144 OFFCURVE",
"210 236 OFFCURVE",
"210 362 CURVE SMOOTH",
"210 487 OFFCURVE",
"292 576 OFFCURVE",
"398 576 CURVE SMOOTH",
"464 576 OFFCURVE",
"526 543 OFFCURVE",
"556 496 CURVE",
"714 564 LINE",
"651 668 OFFCURVE",
"536 732 OFFCURVE",
"400 732 CURVE SMOOTH",
"193 732 OFFCURVE",
"31 578 OFFCURVE",
"30 360 CURVE SMOOTH",
"31 140 OFFCURVE",
"193 -8 OFFCURVE",
"408 -8 CURVE SMOOTH",
"608 -8 OFFCURVE",
"740 119 OFFCURVE",
"740 290 CURVE SMOOTH",
"740 412 LINE",
"388 410 LINE",
"388 272 LINE",
"576 272 LINE",
"575 199 OFFCURVE"
);
}
);
};
layerId = "2D8F7115-C311-411E-929D-56333CF7FFB2";
paths = (
{
closed = 1;
nodes = (
"606 -8 OFFCURVE",
"738 120 OFFCURVE",
"738 290 CURVE SMOOTH",
"738 412 LINE",
"386 410 LINE",
"386 272 LINE",
"574 272 LINE",
"574 200 OFFCURVE",
"500 148 OFFCURVE",
"410 148 CURVE SMOOTH",
"290 148 OFFCURVE",
"208 236 OFFCURVE",
"208 362 CURVE SMOOTH",
"208 488 OFFCURVE",
"290 568 OFFCURVE",
"402 568 CURVE SMOOTH",
"468 568 OFFCURVE",
"526 544 OFFCURVE",
"554 508 CURVE",
"662 636 LINE",
"596 694 OFFCURVE",
"500 728 OFFCURVE",
"404 728 CURVE SMOOTH",
"194 728 OFFCURVE",
"30 578 OFFCURVE",
"28 360 CURVE SMOOTH",
"30 140 OFFCURVE",
"192 -8 OFFCURVE",
"406 -8 CURVE SMOOTH"
);
}
);
width = 766;
},
{
anchors = (
{
name = bottom;
position = "{392, 0}";
},
{
name = hook;
position = "{634, 554}";
},
{
name = top;
position = "{384, 720}";
}
);
associatedMasterId = "AB099EFE-E788-4EFC-8633-CF147CB782A6";
background = {
paths = (
{
closed = 1;
nodes = (
"526 81 OFFCURVE",
"396 82 CURVE SMOOTH",
"252 83 OFFCURVE",
"143 198 OFFCURVE",
"144 362 CURVE SMOOTH",
"145 520 OFFCURVE",
"247 637 OFFCURVE",
"386 638 CURVE SMOOTH",
"467 637 OFFCURVE",
"540 599 OFFCURVE",
"580 534 CURVE",
"674 576 LINE",
"617 673 OFFCURVE",
"507 730 OFFCURVE",
"386 730 CURVE SMOOTH",
"188 730 OFFCURVE",
"37 573 OFFCURVE",
"36 360 CURVE SMOOTH",
"37 141 OFFCURVE",
"193 -11 OFFCURVE",
"394 -8 CURVE SMOOTH",
"586 -13 OFFCURVE",
"707 127 OFFCURVE",
"708 316 CURVE SMOOTH",
"708 392 LINE",
"372 392 LINE",
"372 300 LINE",
"604 300 LINE",
"603 178 OFFCURVE"
);
}
);
};
layerId = "468E3CD5-7719-4A9D-BC7F-DB35573366CF";
name = "Half {450}";
paths = (
{
closed = 1;
nodes = (
"586 -8 OFFCURVE",
"708 128 OFFCURVE",
"708 316 CURVE SMOOTH",
"708 392 LINE",
"374 392 LINE",
"374 300 LINE",
"604 300 LINE",
"604 178 OFFCURVE",
"526 80 OFFCURVE",
"396 80 CURVE SMOOTH",
"254 80 OFFCURVE",
"144 198 OFFCURVE",
"144 362 CURVE SMOOTH",
"144 520 OFFCURVE",
"250 638 OFFCURVE",
"392 638 CURVE SMOOTH",
"478 638 OFFCURVE",
"532 598 OFFCURVE",
"572 554 CURVE",
"642 628 LINE",
"584 692 OFFCURVE",
"498 730 OFFCURVE",
"390 730 CURVE SMOOTH",
"188 730 OFFCURVE",
"40 572 OFFCURVE",
"40 360 CURVE SMOOTH",
"40 142 OFFCURVE",
"194 -8 OFFCURVE",
"394 -8 CURVE SMOOTH"
);
}
);
width = 748;
}
);
leftKerningGroup = LAT_O_UC;
leftMetricsKey = O;
rightKerningGroup = LAT_G_UC;
unicode = 0047;
},
{
glyphname = H;
lastChange = "2020-05-16 02:41:35 +0000";
layers = (
{
anchors = (
{
name = bottom;
position = "{346, 0}";
},
{
name = center;
position = "{346, 530}";
},
{
name = top;
position = "{346, 720}";
}
);
layerId = "AB099EFE-E788-4EFC-8633-CF147CB782A6";
paths = (
{
closed = 1;
nodes = (
"96 0 LINE",
"128 0 LINE",
"128 354 LINE",
"562 354 LINE",
"562 0 LINE",
"594 0 LINE",
"594 720 LINE",
"562 720 LINE",
"562 384 LINE",
"128 384 LINE",
"128 720 LINE",
"96 720 LINE"
);
}
);
width = 690;
},
{
anchors = (
{
name = bottom;
position = "{382, 0}";
},
{
name = center;
position = "{382, 576}";
},
{
name = top;
position = "{382, 720}";
}
);
layerId = "2D8F7115-C311-411E-929D-56333CF7FFB2";
paths = (
{
closed = 1;
nodes = (
"72 0 LINE",
"248 0 LINE",
"248 284 LINE",
"516 284 LINE",
"516 0 LINE",
"692 0 LINE",
"692 720 LINE",
"516 720 LINE",
"516 440 LINE",
"248 440 LINE",
"248 720 LINE",
"72 720 LINE"
);
}
);
width = 764;
}
);
leftKerningGroup = LAT_H_UC;
rightKerningGroup = LAT_H_UC;
unicode = 0048;
},
{
glyphname = I;
lastChange = "2020-05-15 06:45:56 +0000";
layers = (
{
anchors = (
{
name = bottom;
position = "{116, 0}";
},
{
name = ogonek;
position = "{66, 0}";
},
{
name = top;
position = "{116, 720}";
}
);
layerId = "AB099EFE-E788-4EFC-8633-CF147CB782A6";
paths = (
{
closed = 1;
nodes = (
"100 0 LINE",
"132 0 LINE",
"132 720 LINE",
"100 720 LINE"
);
}
);
width = 232;
},
{
anchors = (
{
name = bottom;
position = "{170, 0}";
},
{
name = ogonek;
position = "{150, 0}";
},
{
name = top;
position = "{170, 720}";
}
);
layerId = "2D8F7115-C311-411E-929D-56333CF7FFB2";
paths = (
{
closed = 1;
nodes = (
"82 0 LINE",
"258 0 LINE",
"258 720 LINE",
"82 720 LINE"
);
}
);
width = 342;
}
);
leftKerningGroup = LAT_H_UC;
rightKerningGroup = LAT_H_UC;
unicode = 0049;
},
{
color = 10;
glyphname = I.ss04;
lastChange = "2020-05-16 02:24:34 +0000";
layers = (
{
anchors = (
{
name = bottom;
position = "{184, 0}";
},
{
name = ogonek;
position = "{158, 0}";
},
{
name = top;
position = "{184, 720}";
}
);
layerId = "AB099EFE-E788-4EFC-8633-CF147CB782A6";
paths = (
{
closed = 1;
nodes = (
"168 0 LINE",
"200 0 LINE",
"200 720 LINE",
"168 720 LINE"
);
},
{
closed = 1;
nodes = (
"80 690 LINE",
"288 690 LINE",
"288 720 LINE",
"80 720 LINE"
);
},
{
closed = 1;
nodes = (
"80 0 LINE",
"288 0 LINE",
"288 30 LINE",
"80 30 LINE"
);
}
);
width = 368;
},
{
anchors = (
{
name = bottom;
position = "{244, 0}";
},
{
name = ogonek;
position = "{226, 0}";
},
{
name = top;
position = "{244, 720}";
}
);
layerId = "2D8F7115-C311-411E-929D-56333CF7FFB2";
paths = (
{
closed = 1;
nodes = (
"156 0 LINE",
"332 0 LINE",
"332 720 LINE",
"156 720 LINE"
);
},
{
closed = 1;
nodes = (
"60 564 LINE",
"428 564 LINE",
"428 720 LINE",
"60 720 LINE"
);
},
{
closed = 1;
nodes = (
"60 0 LINE",
"428 0 LINE",
"428 156 LINE",
"60 156 LINE"
);
}
);
width = 488;
}
);
leftKerningGroup = LAT_ISS03_UC;
rightKerningGroup = LAT_ISS03_UC;
},
{
color = 10;
glyphname = IJ.ss04;
lastChange = "2020-05-16 02:24:13 +0000";
layers = (
{
components = (
{
name = I.ss04;
}
);
layerId = "AB099EFE-E788-4EFC-8633-CF147CB782A6";
paths = (
{
closed = 1;
nodes = (
"426 -136 OFFCURVE",
"410 -228 OFFCURVE",
"280 -228 CURVE SMOOTH",
"236 -228 OFFCURVE",
"198 -206 OFFCURVE",
"174 -162 CURVE",
"148 -180 LINE",
"176 -226 OFFCURVE",
"222 -258 OFFCURVE",
"286 -256 CURVE SMOOTH",
"426 -258 OFFCURVE",
"458 -164 OFFCURVE",
"458 -24 CURVE SMOOTH",
"458 720 LINE",
"426 720 LINE",
"426 -36 LINE SMOOTH"
);
}
);
width = 554;
},
{
components = (
{
name = I.ss04;
}
);
layerId = "2D8F7115-C311-411E-929D-56333CF7FFB2";
paths = (
{
closed = 1;
nodes = (
"546 -100 OFFCURVE",
"510 -126 OFFCURVE",
"476 -126 CURVE SMOOTH",
"448 -126 OFFCURVE",
"424 -108 OFFCURVE",
"416 -60 CURVE",
"272 -136 LINE",
"306 -238 OFFCURVE",
"400 -274 OFFCURVE",
"496 -274 CURVE SMOOTH",
"628 -274 OFFCURVE",
"722 -192 OFFCURVE",
"722 -22 CURVE SMOOTH",
"722 720 LINE",
"546 720 LINE",
"546 -36 LINE SMOOTH"
);
}
);
width = 794;
}
);
leftKerningGroup = LAT_ISS03_UC;
leftMetricsKey = I.ss04;
rightKerningGroup = LAT_J_UC;
rightMetricsKey = H;
},
{
glyphname = J;
lastChange = "2020-05-16 08:05:55 +0000";
layers = (
{
anchors = (
{
name = bottom;
position = "{208, 0}";
},
{
name = top;
position = "{332, 720}";
}
);
layerId = "AB099EFE-E788-4EFC-8633-CF147CB782A6";
paths = (
{
closed = 1;
nodes = (
"322 76 OFFCURVE",
"260 24 OFFCURVE",
"182 22 CURVE SMOOTH",
"104 24 OFFCURVE",
"52 82 OFFCURVE",
"52 170 CURVE",
"20 170 LINE",
"22 66 OFFCURVE",
"86 -8 OFFCURVE",
"184 -8 CURVE SMOOTH",
"280 -8 OFFCURVE",
"354 60 OFFCURVE",
"354 212 CURVE SMOOTH",
"354 720 LINE",
"322 720 LINE",
"322 210 LINE SMOOTH"
);
}
);
width = 450;
},
{
anchors = (
{
name = bottom;
position = "{280, 0}";
},
{
name = top;
position = "{394, 720}";
}
);
layerId = "2D8F7115-C311-411E-929D-56333CF7FFB2";
paths = (
{
closed = 1;
nodes = (
"308 178 OFFCURVE",
"283 148 OFFCURVE",
"244 148 CURVE SMOOTH",
"202 148 OFFCURVE",
"176 183 OFFCURVE",
"176 240 CURVE",
"12 240 LINE",
"12 88 OFFCURVE",
"103 -8 OFFCURVE",
"248 -8 CURVE SMOOTH",
"394 -8 OFFCURVE",
"486 83 OFFCURVE",
"486 228 CURVE SMOOTH",
"486 720 LINE",
"308 720 LINE",
"308 226 LINE SMOOTH"
);
}
);
width = 558;
}
);
leftKerningGroup = LAT_J_UC;
rightKerningGroup = LAT_U_UC;
rightMetricsKey = H;
unicode = 004A;
},
{
glyphname = K;
lastChange = "2020-05-18 08:09:12 +0000";
layers = (
{
anchors = (
{
name = bottom;
position = "{304, 0}";
},
{
name = top;
position = "{304, 720}";
}
);
layerId = "AB099EFE-E788-4EFC-8633-CF147CB782A6";
paths = (
{
closed = 1;
nodes = (
"128 0 LINE",
"128 346 LINE",
"144 346 LINE",
"126 358 LINE",
"508 0 LINE",
"552 0 LINE",
"156 372 LINE",
"156 350 LINE",
"526 720 LINE",
"482 720 LINE",
"126 362 LINE",
"144 374 LINE",
"128 374 LINE",
"128 720 LINE",
"96 720 LINE",
"96 0 LINE"
);
}
);
width = 584;
},
{
anchors = (
{
name = bottom;
position = "{362, 0}";
},
{
name = top;
position = "{344, 720}";
}
);
layerId = "2D8F7115-C311-411E-929D-56333CF7FFB2";
paths = (
{
closed = 1;
nodes = (
"248 0 LINE",
"248 312 LINE",
"290 312 LINE",
"232 338 LINE",
"488 0 LINE",
"698 0 LINE",
"382 412 LINE",
"382 316 LINE",
"688 720 LINE",
"478 720 LINE",
"232 378 LINE",
"290 404 LINE",
"248 404 LINE",
"248 720 LINE",
"72 720 LINE",
"72 0 LINE"
);
}
);
width = 706;
}
);
leftKerningGroup = LAT_H_UC;
leftMetricsKey = H;
rightKerningGroup = LAT_K_UC;
unicode = 004B;
},
{
glyphname = L;
lastChange = "2020-05-16 02:41:08 +0000";
layers = (
{
anchors = (
{
name = bottom;
position = "{288, 0}";
},
{
name = center;
position = "{112, 360}";
},
{
name = dot;
position = "{370, 360}";
},
{
name = top;
position = "{112, 720}";
},
{
name = topright;
position = "{372, 720}";
}
);
layerId = "AB099EFE-E788-4EFC-8633-CF147CB782A6";
paths = (
{
closed = 1;
nodes = (
"96 0 LINE",
"466 0 LINE",
"466 30 LINE",
"128 30 LINE",
"128 720 LINE",
"96 720 LINE"
);
}
);
width = 488;
},
{
anchors = (
{
name = bottom;
position = "{290, 0}";
},
{
name = center;
position = "{158, 370}";
},
{
name = dot;
position = "{426, 370}";
},
{
name = top;
position = "{164, 720}";
},
{
name = topright;
position = "{318, 720}";
}
);
layerId = "2D8F7115-C311-411E-929D-56333CF7FFB2";
paths = (
{
closed = 1;
nodes = (
"72 0 LINE",
"496 0 LINE",
"496 156 LINE",
"248 156 LINE",
"248 720 LINE",
"72 720 LINE"
);
}
);
width = 512;
}
);
leftKerningGroup = LAT_H_UC;
leftMetricsKey = H;
rightKerningGroup = LAT_L_UC;
unicode = 004C;
},
{
glyphname = M;
lastChange = "2020-05-18 07:55:19 +0000";
layers = (
{
anchors = (
{
name = bottom;
position = "{388, 0}";
},
{
name = top;
position = "{388, 720}";
}
);
layerId = "AB099EFE-E788-4EFC-8633-CF147CB782A6";
paths = (
{
closed = 1;
nodes = (
"96 0 LINE",
"128 0 LINE",
"128 522 LINE",
"128 658 LINE",
"132 658 LINE",
"378 134 LINE",
"398 134 LINE",
"644 658 LINE",
"648 658 LINE",
"648 522 LINE",
"648 0 LINE",
"680 0 LINE",
"680 720 LINE",
"640 720 LINE",
"392 188 LINE",
"386 188 LINE",
"136 720 LINE",
"96 720 LINE"
);
}
);
width = 776;
},
{
anchors = (
{
name = bottom;
position = "{450, 0}";
},
{
name = top;
position = "{450, 720}";
}
);
background = {
paths = (
{
closed = 1;
nodes = (
"72 0 LINE",
"248 0 LINE",
"248 198 LINE",
"249 263 OFFCURVE",
"245 362 OFFCURVE",
"236 422 CURVE",
"240 422 LINE",
"304 302 LINE",
"434 90 LINE",
"458 90 LINE",
"586 302 LINE",
"650 422 LINE",
"656 422 LINE",
"645 351 OFFCURVE",
"641 249 OFFCURVE",
"642 198 CURVE",
"642 0 LINE",
"820 0 LINE",
"820 720 LINE",
"626 720 LINE",
"498 486 LINE",
"485 467 OFFCURVE",
"469 430 OFFCURVE",
"450 400 CURVE",
"444 400 LINE",
"428 428 OFFCURVE",
"415 460 OFFCURVE",
"398 486 CURVE",
"270 720 LINE",
"72 720 LINE"
);
}
);
};
layerId = "2D8F7115-C311-411E-929D-56333CF7FFB2";
paths = (
{
closed = 1;
nodes = (
"72 0 LINE",
"248 0 LINE",
"248 204 LINE",
"244 404 LINE",
"248 404 LINE",
"434 150 LINE",
"466 150 LINE",
"652 404 LINE",
"656 404 LINE",
"652 204 LINE",
"652 0 LINE",
"828 0 LINE",
"828 720 LINE",
"700 720 LINE",
"452 394 LINE",
"448 394 LINE",
"200 720 LINE",
"72 720 LINE"
);
}
);
width = 900;
},
{
anchors = (
{
name = bottom;
position = "{418, 0}";
},
{
name = top;
position = "{418, 720}";
}
);
associatedMasterId = "AB099EFE-E788-4EFC-8633-CF147CB782A6";
background = {
paths = (
{
closed = 1;
nodes = (
"750 924 LINE",
"418 304 LINE",
"84 926 LINE",
"84 0 LINE",
"188 0 LINE",
"188 512 LINE",
"418 88 LINE",
"644 512 LINE",
"644 0 LINE",
"750 0 LINE"
);
}
);
};
layerId = "6123BCBE-8DAE-43AC-AC2E-27695F353F5A";
name = "Half {450}";
paths = (
{
closed = 1;
nodes = (
"84 0 LINE",
"188 0 LINE",
"188 352 LINE",
"186 496 LINE",
"190 496 LINE",
"400 140 LINE",
"434 140 LINE",
"644 496 LINE",
"648 496 LINE",
"646 352 LINE",
"646 0 LINE",
"750 0 LINE",
"750 720 LINE",
"666 720 LINE",
"420 298 LINE",
"416 298 LINE",
"166 720 LINE",
"84 720 LINE"
);
}
);
width = 834;
}
);
leftKerningGroup = LAT_H_UC;
leftMetricsKey = H;
rightKerningGroup = LAT_H_UC;
rightMetricsKey = H;
unicode = 004D;
},
{
glyphname = N;
lastChange = "2020-05-18 07:34:58 +0000";
layers = (
{
anchors = (
{
name = bottom;
position = "{340, 0}";
},
{
name = leghookright;
position = "{584, 0}";
},
{
name = top;
position = "{348, 720}";
}
);
layerId = "AB099EFE-E788-4EFC-8633-CF147CB782A6";
paths = (
{
closed = 1;
nodes = (
"96 0 LINE",
"128 0 LINE",
"128 472 LINE",
"128 660 LINE",
"132 660 LINE",
"220 528 LINE",
"568 0 LINE",
"598 0 LINE",
"598 720 LINE",
"566 720 LINE",
"566 252 LINE",
"566 58 LINE",
"562 58 LINE",
"476 190 LINE",
"126 720 LINE",
"96 720 LINE"
);
}
);
width = 694;
},
{
anchors = (
{
name = bottom;
position = "{388, 0}";
},
{
name = leghookright;
position = "{620, 0}";
},
{
name = top;
position = "{390, 720}";
}
);
layerId = "2D8F7115-C311-411E-929D-56333CF7FFB2";
paths = (
{
closed = 1;
nodes = (
"72 0 LINE",
"248 0 LINE",
"248 260 LINE",
"244 420 LINE",
"248 420 LINE",
"296 352 LINE",
"580 0 LINE",
"708 0 LINE",
"708 720 LINE",
"530 720 LINE",
"530 460 LINE",
"534 310 LINE",
"530 310 LINE",
"484 374 LINE",
"200 720 LINE",
"72 720 LINE"
);
}
);
width = 780;
},
{
anchors = (
{
name = bottom;
position = "{366, 0}";
},
{
name = leghookright;
position = "{604, 0}";
},
{
name = top;
position = "{370, 720}";
}
);
associatedMasterId = "AB099EFE-E788-4EFC-8633-CF147CB782A6";
background = {
paths = (
{
closed = 1;
nodes = (
"546 190 LINE",
"62 874 LINE",
"84 720 LINE",
"84 0 LINE",
"188 0 LINE",
"188 536 LINE",
"674 -146 LINE",
"650 -2 LINE",
"650 720 LINE",
"546 720 LINE"
);
}
);
};
layerId = "94E0382F-BC24-4C69-AAF8-052F59CB1787";
name = "Half {450}";
paths = (
{
closed = 1;
nodes = (
"84 0 LINE",
"188 0 LINE",
"188 352 LINE",
"188 524 LINE",
"192 524 LINE",
"256 438 LINE",
"580 0 LINE",
"656 0 LINE",
"656 720 LINE",
"552 720 LINE",
"552 372 LINE",
"552 196 LINE",
"548 196 LINE",
"484 284 LINE",
"160 720 LINE",
"84 720 LINE"
);
}
);
width = 740;
}
);
leftKerningGroup = LAT_H_UC;
leftMetricsKey = H;
rightKerningGroup = LAT_H_UC;
rightMetricsKey = H;
unicode = 004E;
},
{
glyphname = O;
lastChange = "2020-05-18 08:07:23 +0000";
layers = (
{
anchors = (
{
name = bottom;
position = "{396, 0}";
},
{
name = center;
position = "{396, 358}";
},
{
name = horn;
position = "{554, 688}";
},
{
name = ogonek;
position = "{396, 0}";
},
{
name = top;
position = "{396, 720}";
},
{
name = topleft;
position = "{34, 720}";
},
{
name = topright;
position = "{760, 720}";
}
);
layerId = "AB099EFE-E788-4EFC-8633-CF147CB782A6";
paths = (
{
closed = 1;
nodes = (
"592 -8 OFFCURVE",
"738 150 OFFCURVE",
"738 360 CURVE SMOOTH",
"738 570 OFFCURVE",
"592 728 OFFCURVE",
"396 728 CURVE SMOOTH",
"202 728 OFFCURVE",
"56 570 OFFCURVE",
"56 360 CURVE SMOOTH",
"56 150 OFFCURVE",
"202 -8 OFFCURVE",
"396 -8 CURVE SMOOTH"
);
},
{
closed = 1;
nodes = (
"222 22 OFFCURVE",
"88 164 OFFCURVE",
"88 360 CURVE SMOOTH",
"88 554 OFFCURVE",
"222 700 OFFCURVE",
"396 698 CURVE SMOOTH",
"572 700 OFFCURVE",
"708 554 OFFCURVE",
"706 360 CURVE SMOOTH",
"708 164 OFFCURVE",
"572 22 OFFCURVE",
"396 22 CURVE SMOOTH"
);
}
);
width = 794;
},
{
anchors = (
{
name = bottom;
position = "{406, 0}";
},
{
name = center;
position = "{406, 360}";
},
{
name = horn;
position = "{570, 696}";
},
{
name = ogonek;
position = "{408, 0}";
},
{
name = top;
position = "{406, 720}";
},
{
name = topleft;
position = "{6, 720}";
},
{
name = topright;
position = "{808, 720}";
}
);
layerId = "2D8F7115-C311-411E-929D-56333CF7FFB2";
paths = (
{
closed = 1;
nodes = (
"624 -8 OFFCURVE",
"786 148 OFFCURVE",
"786 360 CURVE SMOOTH",
"786 572 OFFCURVE",
"624 728 OFFCURVE",
"406 728 CURVE SMOOTH",
"192 728 OFFCURVE",
"30 572 OFFCURVE",
"28 360 CURVE SMOOTH",
"30 148 OFFCURVE",
"192 -8 OFFCURVE",
"406 -8 CURVE SMOOTH"
);
},
{
closed = 1;
nodes = (
"292 152 OFFCURVE",
"206 236 OFFCURVE",
"206 360 CURVE SMOOTH",
"206 484 OFFCURVE",
"292 568 OFFCURVE",
"406 568 CURVE SMOOTH",
"522 568 OFFCURVE",
"608 484 OFFCURVE",
"608 360 CURVE SMOOTH",
"608 236 OFFCURVE",
"522 152 OFFCURVE",
"406 152 CURVE SMOOTH"
);
}
);
width = 814;
},
{
anchors = (
{
name = bottom;
position = "{396, 0}";
},
{
name = center;
position = "{396, 360}";
},
{
name = horn;
position = "{548, 696}";
},
{
name = ogonek;
position = "{396, 0}";
},
{
name = top;
position = "{396, 720}";
},
{
name = topleft;
position = "{18, 718}";
},
{
name = topright;
position = "{772, 718}";
}
);
associatedMasterId = "AB099EFE-E788-4EFC-8633-CF147CB782A6";
layerId = "57EC84BE-8EB9-4FB6-8557-76103B1D2DBA";
name = "Half {450}";
paths = (
{
closed = 1;
nodes = (
"601 -8 OFFCURVE",
"754 148 OFFCURVE",
"754 360 CURVE SMOOTH",
"754 571 OFFCURVE",
"601 730 OFFCURVE",
"396 730 CURVE SMOOTH",
"192 730 OFFCURVE",
"39 571 OFFCURVE",
"40 360 CURVE SMOOTH",
"39 148 OFFCURVE",
"192 -8 OFFCURVE",
"396 -8 CURVE SMOOTH"
);
},
{
closed = 1;
nodes = (
"252 84 OFFCURVE",
"143 201 OFFCURVE",
"144 360 CURVE SMOOTH",
"145 518 OFFCURVE",
"254 637 OFFCURVE",
"396 638 CURVE SMOOTH",
"540 637 OFFCURVE",
"648 518 OFFCURVE",
"650 360 CURVE SMOOTH",
"651 201 OFFCURVE",
"542 84 OFFCURVE",
"396 84 CURVE SMOOTH"
);
}
);
width = 794;
}
);
leftKerningGroup = LAT_O_UC;
rightKerningGroup = LAT_O_UC;
unicode = 004F;
},
{
glyphname = OE;
lastChange = "2020-05-16 02:23:13 +0000";
layers = (
{
anchors = (
{
name = bottom;
position = "{578, 0}";
},
{
name = top;
position = "{578, 720}";
}
);
background = {
anchors = (
{
name = bottom;
position = "{564, 0}";
},
{
name = top;
position = "{564, 720}";
}
);
paths = (
{
closed = 1;
nodes = (
"584 0 LINE",
"584 28 LINE",
"488 28 LINE",
"327 27 OFFCURVE",
"197 175 OFFCURVE",
"198 358 CURVE SMOOTH",
"197 541 OFFCURVE",
"329 691 OFFCURVE",
"488 690 CURVE SMOOTH",
"584 690 LINE",
"584 720 LINE",
"488 720 LINE SMOOTH",
"308 719 OFFCURVE",
"164 555 OFFCURVE",
"164 358 CURVE SMOOTH",
"164 156 OFFCURVE",
"308 0 OFFCURVE",
"486 0 CURVE SMOOTH"
);
},
{
closed = 1;
nodes = (
"956 0 LINE",
"956 28 LINE",
"608 28 LINE",
"608 356 LINE",
"916 356 LINE",
"916 384 LINE",
"608 384 LINE",
"608 690 LINE",
"942 690 LINE",
"944 720 LINE",
"576 720 LINE",
"576 0 LINE"
);
}
);
};
layerId = "AB099EFE-E788-4EFC-8633-CF147CB782A6";
paths = (
{
closed = 1;
nodes = (
"534 -8 OFFCURVE",
"654 78 OFFCURVE",
"696 222 CURVE",
"682 222 LINE",
"682 0 LINE",
"1062 0 LINE",
"1062 28 LINE",
"716 28 LINE",
"716 356 LINE",
"1024 356 LINE",
"1024 384 LINE",
"716 384 LINE",
"716 690 LINE",
"1048 690 LINE",
"1050 720 LINE",
"682 720 LINE",
"682 498 LINE",
"696 498 LINE",
"654 642 OFFCURVE",
"534 728 OFFCURVE",
"392 728 CURVE SMOOTH",
"202 728 OFFCURVE",
"56 572 OFFCURVE",
"56 360 CURVE SMOOTH",
"56 150 OFFCURVE",
"202 -8 OFFCURVE",
"392 -8 CURVE SMOOTH"
);
},
{
closed = 1;
nodes = (
"220 22 OFFCURVE",
"88 166 OFFCURVE",
"88 360 CURVE SMOOTH",
"88 556 OFFCURVE",
"220 700 OFFCURVE",
"394 698 CURVE SMOOTH",
"570 700 OFFCURVE",
"686 556 OFFCURVE",
"686 360 CURVE SMOOTH",
"686 164 OFFCURVE",
"570 22 OFFCURVE",
"394 20 CURVE SMOOTH"
);
}
);
width = 1128;
},
{
anchors = (
{
name = bottom;
position = "{526, 0}";
},
{
name = top;
position = "{526, 720}";
}
);
background = {
anchors = (
{
name = bottom;
position = "{518, 0}";
},
{
name = top;
position = "{518, 720}";
}
);
components = (
{
name = E;
transform = "{1, 0, 0, 1, 478, 0}";
}
);
paths = (
{
closed = 1;
nodes = (
"536 0 LINE",
"536 156 LINE",
"438 156 LINE SMOOTH",
"339 156 OFFCURVE",
"267 243 OFFCURVE",
"268 358 CURVE SMOOTH",
"267 471 OFFCURVE",
"337 563 OFFCURVE",
"438 564 CURVE SMOOTH",
"536 564 LINE",
"536 720 LINE",
"444 720 LINE SMOOTH",
"249 719 OFFCURVE",
"90 555 OFFCURVE",
"90 358 CURVE SMOOTH",
"90 158 OFFCURVE",
"238 0 OFFCURVE",
"444 0 CURVE SMOOTH"
);
}
);
};
layerId = "2D8F7115-C311-411E-929D-56333CF7FFB2";
paths = (
{
closed = 1;
nodes = (
"510 -8 OFFCURVE",
"594 50 OFFCURVE",
"644 150 CURVE",
"578 150 LINE",
"578 0 LINE",
"1000 0 LINE",
"1000 156 LINE",
"744 156 LINE",
"744 288 LINE",
"974 288 LINE",
"974 436 LINE",
"744 436 LINE",
"744 564 LINE",
"980 564 LINE",
"992 720 LINE",
"578 720 LINE",
"578 570 LINE",
"644 570 LINE",
"594 672 OFFCURVE",
"526 732 OFFCURVE",
"388 732 CURVE SMOOTH",
"198 732 OFFCURVE",
"30 574 OFFCURVE",
"28 360 CURVE SMOOTH",
"30 146 OFFCURVE",
"198 -8 OFFCURVE",
"388 -8 CURVE SMOOTH"
);
},
{
closed = 1;
nodes = (
"292 144 OFFCURVE",
"208 236 OFFCURVE",
"208 360 CURVE SMOOTH",
"208 484 OFFCURVE",
"292 576 OFFCURVE",
"400 576 CURVE SMOOTH",
"512 576 OFFCURVE",
"594 484 OFFCURVE",
"594 360 CURVE SMOOTH",
"594 236 OFFCURVE",
"512 144 OFFCURVE",
"400 144 CURVE SMOOTH"
);
}
);
width = 1052;
}
);
leftKerningGroup = LAT_O_UC;
leftMetricsKey = O;
rightKerningGroup = LAT_E_UC;
rightMetricsKey = E;
unicode = 0152;
},
{
glyphname = P;
lastChange = "2020-05-16 02:23:00 +0000";
layers = (
{
anchors = (
{
name = bottom;
position = "{122, 0}";
},
{
name = top;
position = "{306, 720}";
}
);
layerId = "AB099EFE-E788-4EFC-8633-CF147CB782A6";
paths = (
{
closed = 1;
nodes = (
"118 690 LINE",
"318 690 LINE SMOOTH",
"422 690 OFFCURVE",
"490 628 OFFCURVE",
"490 528 CURVE SMOOTH",
"490 424 OFFCURVE",
"422 354 OFFCURVE",
"318 354 CURVE SMOOTH",
"118 354 LINE",
"118 324 LINE",
"314 324 LINE SMOOTH",
"438 324 OFFCURVE",
"522 406 OFFCURVE",
"522 528 CURVE SMOOTH",
"522 646 OFFCURVE",
"438 720 OFFCURVE",
"314 720 CURVE SMOOTH",
"118 720 LINE"
);
},
{
closed = 1;
nodes = (
"128 720 LINE",
"96 720 LINE",
"96 0 LINE",
"128 0 LINE"
);
}
);
width = 572;
},
{
anchors = (
{
name = bottom;
position = "{172, 0}";
},
{
name = top;
position = "{334, 720}";
}
);
layerId = "2D8F7115-C311-411E-929D-56333CF7FFB2";
paths = (
{
closed = 1;
nodes = (
"212 564 LINE",
"330 564 LINE SMOOTH",
"398 564 OFFCURVE",
"440 528 OFFCURVE",
"440 472 CURVE SMOOTH",
"440 418 OFFCURVE",
"400 378 OFFCURVE",
"336 378 CURVE SMOOTH",
"212 378 LINE",
"212 222 LINE",
"344 222 LINE SMOOTH",
"508 222 OFFCURVE",
"614 328 OFFCURVE",
"612 476 CURVE SMOOTH",
"614 630 OFFCURVE",
"504 720 OFFCURVE",
"340 720 CURVE SMOOTH",
"212 720 LINE"
);
},
{
closed = 1;
nodes = (
"248 720 LINE",
"72 720 LINE",
"72 0 LINE",
"248 0 LINE"
);
}
);
width = 646;
}
);
leftKerningGroup = LAT_H_UC;
leftMetricsKey = H;
rightKerningGroup = LAT_P_UC;
unicode = 0050;
},
{
glyphname = Thorn;
lastChange = "2020-05-16 02:32:49 +0000";
layers = (
{
layerId = "AB099EFE-E788-4EFC-8633-CF147CB782A6";
paths = (
{
closed = 1;
nodes = (
"328 160 LINE SMOOTH",
"452 160 OFFCURVE",
"536 242 OFFCURVE",
"536 364 CURVE SMOOTH",
"536 482 OFFCURVE",
"452 556 OFFCURVE",
"328 556 CURVE SMOOTH",
"118 556 LINE",
"118 526 LINE",
"332 526 LINE SMOOTH",
"436 526 OFFCURVE",
"504 464 OFFCURVE",
"504 364 CURVE SMOOTH",
"504 260 OFFCURVE",
"436 190 OFFCURVE",
"332 190 CURVE SMOOTH",
"118 190 LINE",
"118 160 LINE"
);
},
{
closed = 1;
nodes = (
"128 0 LINE",
"128 720 LINE",
"96 720 LINE",
"96 0 LINE"
);
}
);
width = 588;
},
{
layerId = "2D8F7115-C311-411E-929D-56333CF7FFB2";
paths = (
{
closed = 1;
nodes = (
"344 112 LINE SMOOTH",
"508 111 OFFCURVE",
"614 217 OFFCURVE",
"612 366 CURVE SMOOTH",
"614 519 OFFCURVE",
"504 609 OFFCURVE",
"340 610 CURVE SMOOTH",
"212 610 LINE",
"212 454 LINE",
"330 454 LINE SMOOTH",
"398 453 OFFCURVE",
"440 417 OFFCURVE",
"440 362 CURVE SMOOTH",
"440 307 OFFCURVE",
"400 267 OFFCURVE",
"336 268 CURVE SMOOTH",
"212 268 LINE",
"212 112 LINE"
);
},
{
closed = 1;
nodes = (
"248 0 LINE",
"248 720 LINE",
"72 720 LINE",
"72 0 LINE"
);
}
);
width = 648;
}
);
leftKerningGroup = LAT_H_UC;
leftMetricsKey = H;
rightKerningGroup = LAT_P_SC;
unicode = 00DE;
},
{
glyphname = Q;
lastChange = "2020-05-15 07:28:39 +0000";
layers = (
{
anchors = (
{
name = bottom;
position = "{398, 0}";
},
{
name = top;
position = "{394, 720}";
}
);
components = (
{
name = O;
}
);
layerId = "AB099EFE-E788-4EFC-8633-CF147CB782A6";
paths = (
{
closed = 1;
nodes = (
"672 0 LINE",
"612 84 LINE",
"606 92 LINE",
"480 268 LINE",
"444 268 LINE",
"582 74 LINE",
"588 66 LINE",
"636 0 LINE"
);
}
);
width = 802;
},
{
anchors = (
{
name = bottom;
position = "{402, 0}";
},
{
name = top;
position = "{402, 720}";
}
);
components = (
{
name = O;
}
);
layerId = "2D8F7115-C311-411E-929D-56333CF7FFB2";
paths = (
{
closed = 1;
nodes = (
"810 0 LINE",
"696 142 LINE",
"606 216 LINE",
"540 308 LINE",
"350 308 LINE",
"486 154 LINE",
"564 98 LINE",
"642 0 LINE"
);
}
);
width = 846;
},
{
anchors = (
{
name = bottom;
position = "{400, 0}";
},
{
name = top;
position = "{402, 720}";
}
);
associatedMasterId = "AB099EFE-E788-4EFC-8633-CF147CB782A6";
components = (
{
alignment = -1;
name = O;
}
);
guideLines = (
{
angle = 120;
position = "{616, 0}";
}
);
layerId = "5F397B99-8889-4A27-BB1C-6FD1F8D7B180";
name = "Half {450}";
paths = (
{
closed = 1;
nodes = (
"744 0 LINE",
"654 118 LINE",
"614 160 LINE",
"512 298 LINE",
"402 298 LINE",
"540 116 LINE",
"576 82 LINE",
"634 0 LINE"
);
}
);
width = 802;
}
);
leftKerningGroup = LAT_O_UC;
leftMetricsKey = O;
rightKerningGroup = LAT_Q_UC;
rightMetricsKey = "=O+8";
unicode = 0051;
},
{
glyphname = R;
lastChange = "2020-05-18 06:42:23 +0000";
layers = (
{
anchors = (
{
name = bottom;
position = "{310, 0}";
},
{
name = top;
position = "{294, 720}";
}
);
guideLines = (
{
angle = 120;
position = "{528, 0}";
}
);
layerId = "AB099EFE-E788-4EFC-8633-CF147CB782A6";
paths = (
{
closed = 1;
nodes = (
"112 690 LINE",
"302 690 LINE SMOOTH",
"410 690 OFFCURVE",
"486 626 OFFCURVE",
"484 528 CURVE SMOOTH",
"486 428 OFFCURVE",
"412 354 OFFCURVE",
"306 354 CURVE SMOOTH",
"112 354 LINE",
"112 324 LINE",
"312 324 LINE SMOOTH",
"432 324 OFFCURVE",
"516 412 OFFCURVE",
"516 528 CURVE SMOOTH",
"516 644 OFFCURVE",
"426 720 OFFCURVE",
"306 720 CURVE SMOOTH",
"112 720 LINE"
);
},
{
closed = 1;
nodes = (
"128 720 LINE",
"96 720 LINE",
"96 0 LINE",
"128 0 LINE"
);
},
{
closed = 1;
nodes = (
"310 328 LINE",
"500 0 LINE",
"536 0 LINE",
"334 350 LINE"
);
}
);
width = 600;
},
{
anchors = (
{
name = bottom;
position = "{348, 0}";
},
{
name = top;
position = "{338, 720}";
}
);
layerId = "2D8F7115-C311-411E-929D-56333CF7FFB2";
paths = (
{
closed = 1;
nodes = (
"212 564 LINE",
"330 564 LINE SMOOTH",
"396 564 OFFCURVE",
"440 528 OFFCURVE",
"440 472 CURVE SMOOTH",
"440 418 OFFCURVE",
"398 382 OFFCURVE",
"336 382 CURVE SMOOTH",
"212 382 LINE",
"212 238 LINE",
"312 238 LINE SMOOTH",
"496 238 OFFCURVE",
"614 346 OFFCURVE",
"612 496 CURVE SMOOTH",
"614 640 OFFCURVE",
"502 720 OFFCURVE",
"358 720 CURVE SMOOTH",
"212 720 LINE"
);
},
{
closed = 1;
nodes = (
"248 720 LINE",
"72 720 LINE",
"72 0 LINE",
"248 0 LINE"
);
},
{
closed = 1;
nodes = (
"326 264 LINE",
"470 0 LINE",
"666 0 LINE",
"454 368 LINE"
);
}
);
width = 700;
}
);
leftKerningGroup = LAT_H_UC;
leftMetricsKey = H;
rightKerningGroup = LAT_R_UC;
unicode = 0052;
},
{
glyphname = S;
lastChange = "2020-05-16 08:07:26 +0000";
layers = (
{
anchors = (
{
name = bottom;
position = "{328, 0}";
},
{
name = top;
position = "{312, 720}";
}
);
layerId = "2D8F7115-C311-411E-929D-56333CF7FFB2";
paths = (
{
closed = 1;
nodes = (
"462 -8 OFFCURVE",
"580 87 OFFCURVE",
"580 224 CURVE SMOOTH",
"580 368 OFFCURVE",
"446 405 OFFCURVE",
"382 424 CURVE SMOOTH",
"328 437 OFFCURVE",
"240 457 OFFCURVE",
"240 516 CURVE SMOOTH",
"240 550 OFFCURVE",
"270 572 OFFCURVE",
"312 572 CURVE SMOOTH",
"366 572 OFFCURVE",
"406 534 OFFCURVE",
"428 502 CURVE",
"572 590 LINE",
"530 673 OFFCURVE",
"430 728 OFFCURVE",
"310 728 CURVE SMOOTH",
"170 728 OFFCURVE",
"60 653 OFFCURVE",
"60 518 CURVE SMOOTH",
"60 396 OFFCURVE",
"156 340 OFFCURVE",
"256 308 CURVE SMOOTH",
"310 291 OFFCURVE",
"404 273 OFFCURVE",
"402 214 CURVE SMOOTH",
"402 178 OFFCURVE",
"368 152 OFFCURVE",
"322 152 CURVE SMOOTH",
"256 152 OFFCURVE",
"208 208 OFFCURVE",
"190 252 CURVE",
"44 162 LINE",
"78 67 OFFCURVE",
"194 -8 OFFCURVE",
"320 -8 CURVE SMOOTH"
);
}
);
userData = {
RMXScaler = {
height = 137;
weight = 160;
width = 140;
};
};
width = 624;
},
{
anchors = (
{
name = bottom;
position = "{288, 0}";
},
{
name = top;
position = "{272, 720}";
}
);
layerId = "AB099EFE-E788-4EFC-8633-CF147CB782A6";
paths = (
{
closed = 1;
nodes = (
"392 -8 OFFCURVE",
"488 64 OFFCURVE",
"490 176 CURVE SMOOTH",
"492 326 OFFCURVE",
"316 374 OFFCURVE",
"264 392 CURVE SMOOTH",
"188 419 OFFCURVE",
"110 462 OFFCURVE",
"110 558 CURVE SMOOTH",
"110 638 OFFCURVE",
"166 698 OFFCURVE",
"262 698 CURVE SMOOTH",
"354 698 OFFCURVE",
"410 642 OFFCURVE",
"434 602 CURVE",
"460 620 LINE",
"434 666 OFFCURVE",
"368 728 OFFCURVE",
"262 728 CURVE SMOOTH",
"154 728 OFFCURVE",
"78 662 OFFCURVE",
"78 556 CURVE SMOOTH",
"78 434 OFFCURVE",
"184 390 OFFCURVE",
"278 356 CURVE SMOOTH",
"348 330 OFFCURVE",
"458 290 OFFCURVE",
"458 178 CURVE SMOOTH",
"458 82 OFFCURVE",
"374 20 OFFCURVE",
"280 20 CURVE SMOOTH",
"198 20 OFFCURVE",
"122 68 OFFCURVE",
"94 138 CURVE",
"64 122 LINE",
"94 60 OFFCURVE",
"164 -8 OFFCURVE",
"278 -8 CURVE SMOOTH"
);
}
);
userData = {
RMXScaler = {
height = 139;
width = 140;
};
};
width = 554;
},
{
anchors = (
{
name = bottom;
position = "{290, 0}";
},
{
name = top;
position = "{290, 720}";
}
);
associatedMasterId = "AB099EFE-E788-4EFC-8633-CF147CB782A6";
layerId = "AC58DB70-1B15-454B-B494-93D4DED7A37B";
name = "Half {450}";
paths = (
{
closed = 1;
nodes = (
"418 -8 OFFCURVE",
"524 74 OFFCURVE",
"524 198 CURVE SMOOTH",
"524 344 OFFCURVE",
"382 388 OFFCURVE",
"314 410 CURVE SMOOTH",
"258 428 OFFCURVE",
"172 456 OFFCURVE",
"172 536 CURVE SMOOTH",
"172 596 OFFCURVE",
"224 638 OFFCURVE",
"288 638 CURVE SMOOTH",
"356 638 OFFCURVE",
"406 586 OFFCURVE",
"424 552 CURVE",
"506 604 LINE",
"476 666 OFFCURVE",
"398 730 OFFCURVE",
"286 730 CURVE SMOOTH",
"160 730 OFFCURVE",
"72 656 OFFCURVE",
"72 536 CURVE SMOOTH",
"72 414 OFFCURVE",
"160 364 OFFCURVE",
"264 330 CURVE SMOOTH",
"320 312 OFFCURVE",
"424 282 OFFCURVE",
"424 196 CURVE SMOOTH",
"424 130 OFFCURVE",
"364 84 OFFCURVE",
"292 84 CURVE SMOOTH",
"220 84 OFFCURVE",
"166 136 OFFCURVE",
"142 196 CURVE",
"56 140 LINE",
"82 68 OFFCURVE",
"178 -8 OFFCURVE",
"294 -8 CURVE SMOOTH"
);
}
);
userData = {
RMXScaler = {
height = 139;
width = 140;
};
};
width = 580;
}
);
leftKerningGroup = LAT_S_UC;
rightKerningGroup = LAT_S_UC;
unicode = 0053;
userData = {
RMXScaler = {
source = s;
};
};
},
{
glyphname = Germandbls;
lastChange = "2020-05-16 02:36:14 +0000";
layers = (
{
layerId = "AB099EFE-E788-4EFC-8633-CF147CB782A6";
paths = (
{
closed = 1;
nodes = (
"486 -8 OFFCURVE",
"590 92 OFFCURVE",
"590 220 CURVE SMOOTH",
"590 348 OFFCURVE",
"486 442 OFFCURVE",
"330 436 CURVE",
"346 420 LINE",
"464 692 LINE",
"464 700 LINE",
"406 720 OFFCURVE",
"342 728 OFFCURVE",
"290 728 CURVE SMOOTH",
"92 728 OFFCURVE",
"92 604 OFFCURVE",
"92 550 CURVE SMOOTH",
"92 0 LINE",
"124 0 LINE",
"124 552 LINE SMOOTH",
"124 618 OFFCURVE",
"124 698 OFFCURVE",
"298 698 CURVE SMOOTH",
"356 698 OFFCURVE",
"396 692 OFFCURVE",
"434 680 CURVE",
"432 694 LINE",
"314 422 LINE",
"314 410 LINE",
"334 410 LINE SMOOTH",
"462 410 OFFCURVE",
"558 340 OFFCURVE",
"558 220 CURVE SMOOTH",
"558 96 OFFCURVE",
"452 22 OFFCURVE",
"362 22 CURVE SMOOTH",
"326 22 OFFCURVE",
"284 30 OFFCURVE",
"248 38 CURVE",
"248 6 LINE",
"280 -2 OFFCURVE",
"323 -8 OFFCURVE",
"356 -8 CURVE SMOOTH"
);
}
);
width = 652;
},
{
layerId = "2D8F7115-C311-411E-929D-56333CF7FFB2";
paths = (
{
closed = 1;
nodes = (
"590 -8 OFFCURVE",
"700 88 OFFCURVE",
"700 220 CURVE SMOOTH",
"700 352 OFFCURVE",
"590 432 OFFCURVE",
"444 432 CURVE",
"538 346 LINE",
"642 658 LINE",
"642 676 LINE",
"588 706 OFFCURVE",
"472 732 OFFCURVE",
"370 732 CURVE SMOOTH",
"190 732 OFFCURVE",
"68 646 OFFCURVE",
"68 498 CURVE SMOOTH",
"68 0 LINE",
"244 0 LINE",
"244 476 LINE SMOOTH",
"244 506 OFFCURVE",
"260 576 OFFCURVE",
"378 576 CURVE SMOOTH",
"422 576 OFFCURVE",
"452 566 OFFCURVE",
"460 554 CURVE",
"450 598 LINE",
"364 332 LINE",
"364 304 LINE",
"416 304 LINE SMOOTH",
"492 304 OFFCURVE",
"526 264 OFFCURVE",
"526 218 CURVE SMOOTH",
"526 172 OFFCURVE",
"488 142 OFFCURVE",
"424 142 CURVE SMOOTH",
"410 142 OFFCURVE",
"386 144 OFFCURVE",
"354 150 CURVE",
"354 -6 LINE",
"386 -8 OFFCURVE",
"428 -8 OFFCURVE",
"446 -8 CURVE SMOOTH"
);
}
);
width = 724;
}
);
leftKerningGroup = LAT_GERMANDBLS_UC;
rightKerningGroup = LAT_GERMANDBLS_UC;
rightMetricsKey = B;
unicode = 1E9E;
},
{
glyphname = Schwa;
lastChange = "2020-05-16 02:36:25 +0000";
layers = (
{
anchors = (
{
name = bottom;
position = "{374, -24}";
},
{
name = top;
position = "{376, 750}";
}
);
layerId = "AB099EFE-E788-4EFC-8633-CF147CB782A6";
paths = (
{
closed = 1;
nodes = (
"552 -8 OFFCURVE",
"678 128 OFFCURVE",
"678 366 CURVE SMOOTH",
"678 594 OFFCURVE",
"552 728 OFFCURVE",
"370 728 CURVE SMOOTH",
"260 728 OFFCURVE",
"154 678 OFFCURVE",
"98 588 CURVE",
"128 574 LINE",
"180 656 OFFCURVE",
"284 700 OFFCURVE",
"370 698 CURVE SMOOTH",
"540 700 OFFCURVE",
"646 576 OFFCURVE",
"646 364 CURVE SMOOTH",
"646 144 OFFCURVE",
"528 24 OFFCURVE",
"372 22 CURVE SMOOTH",
"218 24 OFFCURVE",
"110 146 OFFCURVE",
"106 356 CURVE",
"658 356 LINE",
"658 384 LINE",
"74 384 LINE",
"74 362 LINE SMOOTH",
"74 142 OFFCURVE",
"190 -8 OFFCURVE",
"372 -8 CURVE SMOOTH"
);
}
);
width = 718;
},
{
anchors = (
{
name = bottom;
position = "{406, -24}";
},
{
name = top;
position = "{394, 740}";
}
);
layerId = "2D8F7115-C311-411E-929D-56333CF7FFB2";
paths = (
{
closed = 1;
nodes = (
"598 -8 OFFCURVE",
"742 140 OFFCURVE",
"742 360 CURVE SMOOTH",
"742 578 OFFCURVE",
"582 732 OFFCURVE",
"376 732 CURVE SMOOTH",
"244 732 OFFCURVE",
"128 668 OFFCURVE",
"68 564 CURVE",
"224 496 LINE",
"254 542 OFFCURVE",
"312 576 OFFCURVE",
"378 576 CURVE SMOOTH",
"484 576 OFFCURVE",
"564 488 OFFCURVE",
"564 362 CURVE SMOOTH",
"564 236 OFFCURVE",
"500 144 OFFCURVE",
"380 144 CURVE SMOOTH",
"294 144 OFFCURVE",
"210 200 OFFCURVE",
"210 272 CURVE",
"614 272 LINE",
"614 410 LINE",
"42 412 LINE",
"42 330 LINE SMOOTH",
"42 118 OFFCURVE",
"188 -8 OFFCURVE",
"384 -8 CURVE SMOOTH"
);
}
);
width = 766;
},
{
anchors = (
{
name = bottom;
position = "{390, -24}";
},
{
name = top;
position = "{386, 746}";
}
);
associatedMasterId = "AB099EFE-E788-4EFC-8633-CF147CB782A6";
layerId = "E88D8049-1054-478F-B246-304D48DB4790";
name = "Half {450}";
paths = (
{
closed = 1;
nodes = (
"555 -11 OFFCURVE",
"709 141 OFFCURVE",
"710 360 CURVE SMOOTH",
"709 573 OFFCURVE",
"558 730 OFFCURVE",
"360 730 CURVE SMOOTH",
"239 730 OFFCURVE",
"129 673 OFFCURVE",
"72 576 CURVE",
"166 534 LINE",
"207 599 OFFCURVE",
"280 637 OFFCURVE",
"360 638 CURVE SMOOTH",
"499 637 OFFCURVE",
"601 520 OFFCURVE",
"602 362 CURVE SMOOTH",
"603 198 OFFCURVE",
"494 83 OFFCURVE",
"364 82 CURVE SMOOTH",
"228 81 OFFCURVE",
"149 178 OFFCURVE",
"148 300 CURVE",
"620 300 LINE",
"620 390 LINE",
"48 390 LINE",
"48 316 LINE SMOOTH",
"47 127 OFFCURVE",
"171 -13 OFFCURVE",
"368 -8 CURVE SMOOTH"
);
}
);
width = 742;
}
);
leftKerningGroup = LAT_SCHWA_UC;
rightKerningGroup = LAT_O_UC;
unicode = 018F;
},
{
glyphname = T;
lastChange = "2020-05-16 04:49:53 +0000";
layers = (
{
anchors = (
{
name = bottom;
position = "{254, 0}";
},
{
name = cedilla;
position = "{254, 0}";
},
{
name = center;
position = "{254, 360}";
},
{
name = top;
position = "{254, 720}";
}
);
layerId = "AB099EFE-E788-4EFC-8633-CF147CB782A6";
paths = (
{
closed = 1;
nodes = (
"474 690 LINE",
"474 720 LINE",
"32 720 LINE",
"32 690 LINE"
);
},
{
closed = 1;
nodes = (
"238 698 LINE",
"238 0 LINE",
"270 0 LINE",
"270 698 LINE"
);
}
);
width = 506;
},
{
anchors = (
{
name = bottom;
position = "{282, 0}";
},
{
name = cedilla;
position = "{282, 0}";
},
{
name = center;
position = "{282, 328}";
},
{
name = top;
position = "{282, 720}";
}
);
layerId = "2D8F7115-C311-411E-929D-56333CF7FFB2";
paths = (
{
closed = 1;
nodes = (
"540 564 LINE",
"540 720 LINE",
"24 720 LINE",
"24 564 LINE"
);
},
{
closed = 1;
nodes = (
"194 588 LINE",
"194 0 LINE",
"370 0 LINE",
"370 588 LINE"
);
}
);
width = 564;
}
);
leftKerningGroup = LAT_T_UC;
rightKerningGroup = LAT_T_UC;
unicode = 0054;
},
{
glyphname = U;
lastChange = "2020-05-16 08:05:14 +0000";
layers = (
{
anchors = (
{
name = bottom;
position = "{332, 0}";
},
{
name = horn;
position = "{550, 720}";
},
{
name = ogonek;
position = "{332, 0}";
},
{
name = top;
position = "{332, 720}";
}
);
layerId = "AB099EFE-E788-4EFC-8633-CF147CB782A6";
paths = (
{
closed = 1;
nodes = (
"96 86 OFFCURVE",
"190 -8 OFFCURVE",
"332 -8 CURVE SMOOTH",
"476 -8 OFFCURVE",
"568 86 OFFCURVE",
"568 232 CURVE SMOOTH",
"568 720 LINE",
"536 720 LINE",
"536 240 LINE SMOOTH",
"536 106 OFFCURVE",
"456 22 OFFCURVE",
"332 22 CURVE SMOOTH",
"210 22 OFFCURVE",
"128 106 OFFCURVE",
"128 240 CURVE SMOOTH",
"128 720 LINE",
"96 720 LINE",
"96 232 LINE SMOOTH"
);
}
);
width = 664;
},
{
anchors = (
{
name = bottom;
position = "{362, 0}";
},
{
name = horn;
position = "{610, 720}";
},
{
name = ogonek;
position = "{362, 0}";
},
{
name = top;
position = "{362, 720}";
}
);
layerId = "2D8F7115-C311-411E-929D-56333CF7FFB2";
paths = (
{
closed = 1;
nodes = (
"72 106 OFFCURVE",
"186 -8 OFFCURVE",
"362 -8 CURVE SMOOTH",
"540 -8 OFFCURVE",
"652 106 OFFCURVE",
"652 284 CURVE SMOOTH",
"652 720 LINE",
"476 720 LINE",
"476 270 LINE SMOOTH",
"476 194 OFFCURVE",
"432 148 OFFCURVE",
"362 148 CURVE SMOOTH",
"294 148 OFFCURVE",
"248 194 OFFCURVE",
"248 270 CURVE SMOOTH",
"248 720 LINE",
"72 720 LINE",
"72 284 LINE SMOOTH"
);
}
);
width = 724;
}
);
leftKerningGroup = LAT_U_UC;
leftMetricsKey = H;
rightKerningGroup = LAT_U_UC;
rightMetricsKey = H;
unicode = 0055;
},
{
glyphname = V;
lastChange = "2020-05-18 07:50:27 +0000";
layers = (
{
anchors = (
{
name = bottom;
position = "{324, 0}";
},
{
name = top;
position = "{320, 720}";
}
);
layerId = "AB099EFE-E788-4EFC-8633-CF147CB782A6";
paths = (
{
closed = 1;
nodes = (
"336 0 LINE",
"616 720 LINE",
"580 720 LINE",
"418 294 LINE",
"324 40 LINE",
"320 40 LINE",
"226 294 LINE",
"64 720 LINE",
"28 720 LINE",
"308 0 LINE"
);
}
);
width = 644;
},
{
anchors = (
{
name = bottom;
position = "{358, 0}";
},
{
name = top;
position = "{356, 720}";
}
);
layerId = "2D8F7115-C311-411E-929D-56333CF7FFB2";
paths = (
{
closed = 1;
nodes = (
"432 0 LINE",
"708 720 LINE",
"516 720 LINE",
"420 434 LINE",
"358 236 LINE",
"354 236 LINE",
"292 434 LINE",
"196 720 LINE",
"4 720 LINE",
"284 0 LINE"
);
}
);
width = 712;
},
{
anchors = (
{
name = bottom;
position = "{342, 0}";
},
{
name = top;
position = "{338, 720}";
}
);
associatedMasterId = "AB099EFE-E788-4EFC-8633-CF147CB782A6";
layerId = "0D7ABE1B-ED2C-477C-ADA0-3A50A773B746";
name = "Half {450}";
paths = (
{
closed = 1;
nodes = (
"380 0 LINE",
"662 720 LINE",
"552 720 LINE",
"424 366 LINE",
"342 152 LINE",
"338 152 LINE",
"254 366 LINE",
"126 720 LINE",
"16 720 LINE",
"300 0 LINE"
);
}
);
width = 678;
}
);
leftKerningGroup = LAT_V_UC;
rightKerningGroup = LAT_V_UC;
unicode = 0056;
},
{
glyphname = W;
lastChange = "2020-05-18 08:32:10 +0000";
layers = (
{
background = {
anchors = (
{
name = bottom;
position = "{452, 0}";
},
{
name = top;
position = "{452, 720}";
}
);
paths = (
{
closed = 1;
nodes = (
"228 0 LINE",
"268 0 LINE",
"348 292 LINE",
"450 658 LINE",
"452 658 LINE",
"554 292 LINE",
"636 0 LINE",
"672 0 LINE",
"868 720 LINE",
"832 720 LINE",
"720 290 LINE",
"656 40 LINE",
"652 40 LINE",
"586 290 LINE",
"468 720 LINE",
"432 720 LINE",
"316 290 LINE",
"248 40 LINE",
"246 40 LINE",
"180 290 LINE",
"70 720 LINE",
"32 720 LINE"
);
}
);
};
components = (
{
name = W.001;
}
);
layerId = "AB099EFE-E788-4EFC-8633-CF147CB782A6";
width = 900;
},
{
background = {
anchors = (
{
name = bottom;
position = "{506, 0}";
},
{
name = top;
position = "{502, 720}";
}
);
paths = (
{
closed = 1;
nodes = (
"184 0 LINE",
"382 0 LINE",
"442 156 LINE",
"502 342 LINE",
"506 342 LINE",
"566 156 LINE",
"624 0 LINE",
"822 0 LINE",
"998 720 LINE",
"806 720 LINE",
"738 428 LINE",
"706 216 LINE",
"702 216 LINE",
"648 396 LINE",
"536 720 LINE",
"470 720 LINE",
"360 396 LINE",
"306 216 LINE",
"302 216 LINE",
"266 428 LINE",
"202 720 LINE",
"8 720 LINE"
);
}
);
};
components = (
{
name = W.001;
}
);
layerId = "2D8F7115-C311-411E-929D-56333CF7FFB2";
width = 1020;
},
{
associatedMasterId = "AB099EFE-E788-4EFC-8633-CF147CB782A6";
background = {
anchors = (
{
name = bottom;
position = "{474, 0}";
},
{
name = top;
position = "{472, 720}";
}
);
paths = (
{
closed = 1;
nodes = (
"206 0 LINE",
"320 0 LINE",
"388 210 LINE",
"472 466 LINE",
"474 466 LINE",
"560 210 LINE",
"626 0 LINE",
"740 0 LINE",
"924 720 LINE",
"814 720 LINE",
"726 350 LINE",
"676 146 LINE",
"672 146 LINE",
"612 344 LINE",
"498 720 LINE",
"448 720 LINE",
"338 344 LINE",
"274 146 LINE",
"272 146 LINE",
"222 350 LINE",
"136 720 LINE",
"22 720 LINE"
);
}
);
};
components = (
{
name = W.001;
}
);
layerId = "EFE37E7D-F637-41FE-8784-1086CBF7F997";
name = "Half {450}";
width = 944;
}
);
leftKerningGroup = LAT_W_UC;
rightKerningGroup = LAT_W_UC;
unicode = 0057;
},
{
color = 9;
glyphname = W.ss06;
lastChange = "2020-05-16 05:14:14 +0000";
layers = (
{
anchors = (
{
name = bottom;
position = "{458, -24}";
},
{
name = top;
position = "{454, 754}";
}
);
layerId = "AB099EFE-E788-4EFC-8633-CF147CB782A6";
paths = (
{
closed = 1;
nodes = (
"228 0 LINE",
"270 0 LINE",
"350 292 LINE",
"450 658 LINE",
"454 658 LINE",
"554 292 LINE",
"636 0 LINE",
"676 0 LINE",
"872 720 LINE",
"838 720 LINE",
"724 290 LINE",
"658 40 LINE",
"654 40 LINE",
"586 290 LINE",
"466 720 LINE",
"438 720 LINE",
"318 290 LINE",
"250 40 LINE",
"246 40 LINE",
"180 290 LINE",
"66 720 LINE",
"32 720 LINE"
);
}
);
width = 904;
},
{
anchors = (
{
name = bottom;
position = "{496, -24}";
},
{
name = top;
position = "{492, 744}";
}
);
layerId = "2D8F7115-C311-411E-929D-56333CF7FFB2";
paths = (
{
closed = 1;
nodes = (
"180 0 LINE",
"354 0 LINE",
"436 236 LINE",
"492 396 LINE",
"496 396 LINE",
"550 236 LINE",
"634 0 LINE",
"806 0 LINE",
"974 720 LINE",
"790 720 LINE",
"736 432 LINE",
"706 240 LINE",
"700 240 LINE",
"652 396 LINE",
"544 720 LINE",
"442 720 LINE",
"336 398 LINE",
"286 240 LINE",
"282 240 LINE",
"250 432 LINE",
"198 720 LINE",
"12 720 LINE"
);
}
);
width = 986;
},
{
anchors = (
{
name = bottom;
position = "{472, 0}";
},
{
name = top;
position = "{472, 720}";
}
);
associatedMasterId = "AB099EFE-E788-4EFC-8633-CF147CB782A6";
background = {
paths = (
{
closed = 1;
nodes = (
"198 0 LINE",
"328 0 LINE",
"400 262 LINE",
"470 536 LINE",
"474 536 LINE",
"544 262 LINE",
"616 0 LINE",
"746 0 LINE",
"924 720 LINE",
"808 720 LINE",
"724 352 LINE",
"674 132 LINE",
"672 132 LINE",
"620 344 LINE",
"520 720 LINE",
"424 720 LINE",
"324 346 LINE",
"274 132 LINE",
"270 132 LINE",
"220 352 LINE",
"138 720 LINE",
"20 720 LINE"
);
}
);
};
layerId = "4EB0F398-00BB-4F07-8BB1-D388A8938904";
name = "Half {450}";
paths = (
{
closed = 1;
nodes = (
"224 0 LINE",
"320 0 LINE",
"386 214 LINE",
"470 494 LINE",
"474 494 LINE",
"560 214 LINE",
"624 0 LINE",
"722 0 LINE",
"924 720 LINE",
"818 720 LINE",
"720 350 LINE",
"676 164 LINE",
"672 164 LINE",
"612 364 LINE",
"502 720 LINE",
"444 720 LINE",
"332 364 LINE",
"274 164 LINE",
"270 164 LINE",
"226 350 LINE",
"128 720 LINE",
"20 720 LINE"
);
}
);
width = 946;
}
);
leftKerningGroup = LAT_W_UC;
rightKerningGroup = LAT_W_UC;
},
{
glyphname = X;
lastChange = "2020-05-18 08:09:50 +0000";
layers = (
{
anchors = (
{
name = bottom;
position = "{318, 0}";
},
{
name = top;
position = "{318, 720}";
}
);
background = {
paths = (
{
closed = 1;
nodes = (
"550 720 LINE",
"52 0 LINE",
"88 0 LINE",
"586 720 LINE"
);
},
{
closed = 1;
nodes = (
"548 0 LINE",
"586 0 LINE",
"86 720 LINE",
"52 720 LINE"
);
}
);
};
layerId = "AB099EFE-E788-4EFC-8633-CF147CB782A6";
paths = (
{
closed = 1;
nodes = (
"90 0 LINE",
"318 336 LINE",
"324 336 LINE",
"340 356 LINE",
"340 360 LINE",
"588 720 LINE",
"552 720 LINE",
"322 384 LINE",
"316 384 LINE",
"300 362 LINE",
"300 358 LINE",
"52 0 LINE"
);
},
{
closed = 1;
nodes = (
"588 0 LINE",
"340 358 LINE",
"340 362 LINE",
"324 384 LINE",
"318 384 LINE",
"88 720 LINE",
"52 720 LINE",
"300 360 LINE",
"300 356 LINE",
"316 336 LINE",
"322 336 LINE",
"550 0 LINE"
);
}
);
width = 640;
},
{
anchors = (
{
name = bottom;
position = "{384, 0}";
},
{
name = top;
position = "{384, 720}";
}
);
background = {
paths = (
{
closed = 1;
nodes = (
"498 720 LINE",
"28 0 LINE",
"238 0 LINE",
"704 720 LINE"
);
},
{
closed = 1;
nodes = (
"506 0 LINE",
"716 0 LINE",
"246 720 LINE",
"42 720 LINE"
);
}
);
};
backgroundImage = {
crop = "{{307.016, 0}, {160.838, 213}}";
imagePath = ../../Ideation/Client/image_480.png;
locked = "1";
transform = "{4.775, 0, 0, 4.775, -1464, -146}";
};
layerId = "2D8F7115-C311-411E-929D-56333CF7FFB2";
paths = (
{
closed = 1;
nodes = (
"236 0 LINE",
"382 230 LINE",
"388 230 LINE",
"508 360 LINE",
"508 362 LINE",
"738 720 LINE",
"532 720 LINE",
"386 474 LINE",
"380 474 LINE",
"262 360 LINE",
"262 358 LINE",
"28 0 LINE"
);
},
{
closed = 1;
nodes = (
"740 0 LINE",
"508 358 LINE",
"508 360 LINE",
"388 474 LINE",
"382 474 LINE",
"236 720 LINE",
"32 720 LINE",
"262 362 LINE",
"262 360 LINE",
"380 230 LINE",
"386 230 LINE",
"532 0 LINE"
);
}
);
width = 768;
}
);
leftKerningGroup = LAT_X_UC;
rightKerningGroup = LAT_X_UC;
unicode = 0058;
},
{
glyphname = Y;
lastChange = "2020-05-16 04:42:59 +0000";
layers = (
{
anchors = (
{
name = bottom;
position = "{294, 0}";
},
{
name = top;
position = "{294, 720}";
}
);
layerId = "AB099EFE-E788-4EFC-8633-CF147CB782A6";
paths = (
{
closed = 1;
nodes = (
"278 0 LINE",
"310 0 LINE",
"310 332 LINE",
"560 720 LINE",
"524 720 LINE",
"390 510 LINE",
"296 366 LINE",
"292 366 LINE",
"198 510 LINE",
"64 720 LINE",
"28 720 LINE",
"278 332 LINE"
);
}
);
width = 588;
},
{
anchors = (
{
name = bottom;
position = "{340, 0}";
},
{
name = top;
position = "{340, 720}";
}
);
layerId = "2D8F7115-C311-411E-929D-56333CF7FFB2";
paths = (
{
closed = 1;
nodes = (
"252 0 LINE",
"428 0 LINE",
"428 272 LINE",
"676 720 LINE",
"474 720 LINE",
"408 588 LINE",
"342 440 LINE",
"338 440 LINE",
"272 588 LINE",
"206 720 LINE",
"4 720 LINE",
"252 272 LINE"
);
}
);
width = 680;
}
);
leftKerningGroup = LAT_Y_UC;
rightKerningGroup = LAT_Y_UC;
unicode = 0059;
},
{
glyphname = Z;
lastChange = "2020-05-16 02:28:34 +0000";
layers = (
{
anchors = (
{
name = bottom;
position = "{314, 0}";
},
{
name = top;
position = "{310, 720}";
}
);
layerId = "AB099EFE-E788-4EFC-8633-CF147CB782A6";
paths = (
{
closed = 1;
nodes = (
"64 0 LINE",
"534 0 LINE",
"534 28 LINE",
"106 28 LINE",
"106 30 LINE",
"524 700 LINE",
"524 720 LINE",
"90 720 LINE",
"90 690 LINE",
"482 690 LINE",
"482 688 LINE",
"64 18 LINE"
);
}
);
width = 598;
},
{
anchors = (
{
name = bottom;
position = "{314, 0}";
},
{
name = top;
position = "{314, 720}";
}
);
layerId = "2D8F7115-C311-411E-929D-56333CF7FFB2";
paths = (
{
closed = 1;
nodes = (
"36 0 LINE",
"590 0 LINE",
"590 154 LINE",
"294 154 LINE",
"294 156 LINE",
"582 694 LINE",
"582 720 LINE",
"50 720 LINE",
"50 566 LINE",
"326 566 LINE",
"326 564 LINE",
"36 24 LINE"
);
}
);
width = 626;
}
);
leftKerningGroup = LAT_Z_UC;
rightKerningGroup = LAT_Z_UC;
unicode = 005A;
},
{
export = 0;
glyphname = C.001;
lastChange = "2020-05-16 02:23:13 +0000";
layers = (
{
anchors = (
{
name = base;
position = "{420, 0}";
},
{
name = bottom;
position = "{400, 0}";
},
{
name = cedilla;
position = "{400, 0}";
},
{
name = top;
position = "{400, 720}";
}
);
layerId = "AB099EFE-E788-4EFC-8633-CF147CB782A6";
paths = (
{
closed = 1;
nodes = (
"640 144 LINE",
"604 78 OFFCURVE",
"508 22 OFFCURVE",
"400 20 CURVE SMOOTH",
"232 22 OFFCURVE",
"88 164 OFFCURVE",
"88 360 CURVE SMOOTH",
"88 560 OFFCURVE",
"242 700 OFFCURVE",
"402 698 CURVE SMOOTH",
"502 700 OFFCURVE",
"602 648 OFFCURVE",
"644 572 CURVE",
"672 588 LINE",
"632 662 OFFCURVE",
"522 728 OFFCURVE",
"402 728 CURVE SMOOTH",
"220 728 OFFCURVE",
"56 576 OFFCURVE",
"56 360 CURVE SMOOTH",
"56 148 OFFCURVE",
"214 -8 OFFCURVE",
"398 -8 CURVE SMOOTH",
"506 -8 OFFCURVE",
"616 44 OFFCURVE",
"666 124 CURVE"
);
}
);
width = 716;
},
{
anchors = (
{
name = base;
position = "{416, 0}";
},
{
name = bottom;
position = "{408, 0}";
},
{
name = cedilla;
position = "{420, 0}";
},
{
name = top;
position = "{406, 720}";
}
);
layerId = "2D8F7115-C311-411E-929D-56333CF7FFB2";
paths = (
{
closed = 1;
nodes = (
"570 236 LINE",
"548 190 OFFCURVE",
"482 144 OFFCURVE",
"408 144 CURVE SMOOTH",
"294 144 OFFCURVE",
"208 238 OFFCURVE",
"208 362 CURVE SMOOTH",
"208 484 OFFCURVE",
"294 576 OFFCURVE",
"408 576 CURVE SMOOTH",
"476 576 OFFCURVE",
"544 536 OFFCURVE",
"566 488 CURVE",
"722 562 LINE",
"672 664 OFFCURVE",
"534 732 OFFCURVE",
"406 732 CURVE SMOOTH",
"192 732 OFFCURVE",
"30 572 OFFCURVE",
"28 360 CURVE SMOOTH",
"30 148 OFFCURVE",
"194 -8 OFFCURVE",
"408 -8 CURVE SMOOTH",
"550 -8 OFFCURVE",
"688 66 OFFCURVE",
"734 174 CURVE"
);
}
);
width = 742;
},
{
anchors = (
{
name = base;
position = "{410, 0}";
},
{
name = bottom;
position = "{400, 0}";
},
{
name = cedilla;
position = "{402, 0}";
},
{
name = top;
position = "{400, 720}";
}
);
associatedMasterId = "AB099EFE-E788-4EFC-8633-CF147CB782A6";
layerId = "0C70BBED-6CBF-4E45-B429-2F50D50C94E8";
name = "Half {450}";
paths = (
{
closed = 1;
nodes = (
"596 192 LINE",
"553 121 OFFCURVE",
"483 82 OFFCURVE",
"400 82 CURVE SMOOTH",
"261 82 OFFCURVE",
"146 195 OFFCURVE",
"146 360 CURVE SMOOTH",
"146 522 OFFCURVE",
"255 637 OFFCURVE",
"398 638 CURVE SMOOTH",
"485 637 OFFCURVE",
"557 594 OFFCURVE",
"596 528 CURVE",
"684 576 LINE",
"627 674 OFFCURVE",
"522 730 OFFCURVE",
"400 730 CURVE SMOOTH",
"197 730 OFFCURVE",
"39 578 OFFCURVE",
"40 360 CURVE SMOOTH",
"39 138 OFFCURVE",
"203 -8 OFFCURVE",
"402 -8 CURVE SMOOTH",
"532 -8 OFFCURVE",
"635 53 OFFCURVE",
"688 150 CURVE"
);
}
);
width = 722;
}
);
leftKerningGroup = LAT_O_UC;
leftMetricsKey = O;
rightKerningGroup = LAT_C_UC;
},
{
export = 0;
glyphname = G.001;
lastChange = "2020-05-16 02:23:13 +0000";
layers = (
{
anchors = (
{
name = bottom;
position = "{384, 0}";
},
{
name = hook;
position = "{636, 616}";
},
{
name = top;
position = "{384, 720}";
}
);
layerId = "AB099EFE-E788-4EFC-8633-CF147CB782A6";
paths = (
{
closed = 1;
nodes = (
"570 18 OFFCURVE",
"396 18 CURVE SMOOTH",
"226 18 OFFCURVE",
"88 160 OFFCURVE",
"88 360 CURVE SMOOTH",
"88 552 OFFCURVE",
"216 700 OFFCURVE",
"390 698 CURVE SMOOTH",
"486 700 OFFCURVE",
"576 656 OFFCURVE",
"626 574 CURVE",
"656 588 LINE",
"600 678 OFFCURVE",
"496 728 OFFCURVE",
"388 728 CURVE SMOOTH",
"198 728 OFFCURVE",
"56 570 OFFCURVE",
"56 360 CURVE SMOOTH",
"56 142 OFFCURVE",
"208 -8 OFFCURVE",
"394 -8 CURVE SMOOTH",
"582 -8 OFFCURVE",
"694 136 OFFCURVE",
"692 342 CURVE SMOOTH",
"692 366 LINE",
"372 366 LINE",
"372 338 LINE",
"660 338 LINE",
"660 164 OFFCURVE"
);
}
);
width = 758;
},
{
anchors = (
{
name = bottom;
position = "{394, 0}";
},
{
name = hook;
position = "{652, 638}";
},
{
name = top;
position = "{394, 720}";
}
);
layerId = "2D8F7115-C311-411E-929D-56333CF7FFB2";
paths = (
{
closed = 1;
nodes = (
"500 144 OFFCURVE",
"410 144 CURVE SMOOTH",
"290 144 OFFCURVE",
"208 236 OFFCURVE",
"208 362 CURVE SMOOTH",
"208 488 OFFCURVE",
"290 576 OFFCURVE",
"396 576 CURVE SMOOTH",
"462 576 OFFCURVE",
"524 544 OFFCURVE",
"554 496 CURVE",
"712 564 LINE",
"650 668 OFFCURVE",
"534 732 OFFCURVE",
"398 732 CURVE SMOOTH",
"192 732 OFFCURVE",
"30 578 OFFCURVE",
"28 360 CURVE SMOOTH",
"30 140 OFFCURVE",
"192 -8 OFFCURVE",
"406 -8 CURVE SMOOTH",
"606 -8 OFFCURVE",
"738 120 OFFCURVE",
"738 290 CURVE SMOOTH",
"738 412 LINE",
"386 410 LINE",
"386 272 LINE",
"574 272 LINE",
"574 200 OFFCURVE"
);
}
);
width = 770;
},
{
anchors = (
{
name = bottom;
position = "{396, 0}";
},
{
name = hook;
position = "{638, 554}";
},
{
name = top;
position = "{388, 720}";
}
);
associatedMasterId = "AB099EFE-E788-4EFC-8633-CF147CB782A6";
layerId = "468E3CD5-7719-4A9D-BC7F-DB35573366CF";
name = "Half {450}";
paths = (
{
closed = 1;
nodes = (
"528 81 OFFCURVE",
"398 82 CURVE SMOOTH",
"254 83 OFFCURVE",
"145 198 OFFCURVE",
"146 362 CURVE SMOOTH",
"147 520 OFFCURVE",
"249 637 OFFCURVE",
"388 638 CURVE SMOOTH",
"469 637 OFFCURVE",
"542 599 OFFCURVE",
"582 534 CURVE",
"676 576 LINE",
"619 673 OFFCURVE",
"509 730 OFFCURVE",
"388 730 CURVE SMOOTH",
"190 730 OFFCURVE",
"39 573 OFFCURVE",
"40 360 CURVE SMOOTH",
"39 141 OFFCURVE",
"195 -11 OFFCURVE",
"396 -8 CURVE SMOOTH",
"588 -13 OFFCURVE",
"709 127 OFFCURVE",
"710 316 CURVE SMOOTH",
"710 392 LINE",
"374 392 LINE",
"374 300 LINE",
"606 300 LINE",
"605 178 OFFCURVE"
);
}
);
width = 758;
}
);
leftKerningGroup = LAT_O_UC;
leftMetricsKey = O;
rightKerningGroup = LAT_G_UC;
},
{
export = 0;
glyphname = IJ;
lastChange = "2020-05-16 02:23:13 +0000";
layers = (
{
anchors = (
{
name = bottom;
position = "{474, -24}";
},
{
name = top;
position = "{580, 750}";
}
);
components = (
{
name = I;
transform = "{1, 0, 0, 1, 18, 0}";
}
);
layerId = "AB099EFE-E788-4EFC-8633-CF147CB782A6";
paths = (
{
closed = 1;
nodes = (
"378 -214 OFFCURVE",
"418 -150 OFFCURVE",
"418 -68 CURVE SMOOTH",
"418 716 LINE",
"384 716 LINE",
"384 -72 LINE SMOOTH",
"384 -130 OFFCURVE",
"356 -186 OFFCURVE",
"278 -184 CURVE SMOOTH",
"234 -186 OFFCURVE",
"192 -170 OFFCURVE",
"168 -156 CURVE",
"162 -188 LINE",
"202 -206 OFFCURVE",
"240 -214 OFFCURVE",
"280 -214 CURVE SMOOTH"
);
}
);
width = 512;
},
{
anchors = (
{
name = bottom;
position = "{636, -24}";
},
{
name = top;
position = "{728, 740}";
}
);
components = (
{
name = I;
}
);
layerId = "2D8F7115-C311-411E-929D-56333CF7FFB2";
paths = (
{
closed = 1;
nodes = (
"506 -218 OFFCURVE",
"576 -128 OFFCURVE",
"576 -6 CURVE SMOOTH",
"576 716 LINE",
"398 716 LINE",
"398 10 LINE SMOOTH",
"400 -42 OFFCURVE",
"364 -64 OFFCURVE",
"304 -64 CURVE SMOOTH",
"276 -64 OFFCURVE",
"232 -58 OFFCURVE",
"196 -40 CURVE",
"156 -192 LINE",
"210 -210 OFFCURVE",
"288 -218 OFFCURVE",
"340 -218 CURVE SMOOTH"
);
}
);
width = 646;
}
);
leftKerningGroup = LAT_I_UC;
rightKerningGroup = LAT_I_UC;
unicode = 0132;
},
{
export = 0;
glyphname = Q.001;
lastChange = "2020-05-16 02:23:13 +0000";
layers = (
{
anchors = (
{
name = bottom;
position = "{394, -206}";
},
{
name = top;
position = "{394, 720}";
}
);
components = (
{
name = O;
}
);
layerId = "AB099EFE-E788-4EFC-8633-CF147CB782A6";
paths = (
{
closed = 1;
nodes = (
"376 -58 LINE SMOOTH",
"376 -122 OFFCURVE",
"422 -164 OFFCURVE",
"486 -164 CURVE SMOOTH",
"502 -164 OFFCURVE",
"514 -162 OFFCURVE",
"524 -158 CURVE",
"520 -130 LINE",
"510 -132 OFFCURVE",
"496 -134 OFFCURVE",
"486 -134 CURVE SMOOTH",
"444 -134 OFFCURVE",
"410 -114 OFFCURVE",
"410 -68 CURVE SMOOTH",
"410 8 LINE",
"376 8 LINE"
);
}
);
width = 790;
},
{
anchors = (
{
name = bottom;
position = "{398, -206}";
},
{
name = top;
position = "{398, 720}";
}
);
components = (
{
name = O;
}
);
layerId = "2D8F7115-C311-411E-929D-56333CF7FFB2";
paths = (
{
closed = 1;
nodes = (
"332 -54 LINE SMOOTH",
"334 -142 OFFCURVE",
"410 -210 OFFCURVE",
"506 -210 CURVE SMOOTH",
"522 -210 OFFCURVE",
"560 -208 OFFCURVE",
"582 -202 CURVE",
"570 -56 LINE",
"560 -60 OFFCURVE",
"530 -62 OFFCURVE",
"514 -62 CURVE SMOOTH",
"472 -62 OFFCURVE",
"450 -46 OFFCURVE",
"450 -22 CURVE SMOOTH",
"450 32 LINE",
"332 32 LINE"
);
}
);
width = 798;
},
{
anchors = (
{
name = bottom;
position = "{400, -206}";
},
{
name = top;
position = "{400, 720}";
}
);
associatedMasterId = "AB099EFE-E788-4EFC-8633-CF147CB782A6";
components = (
{
alignment = -1;
name = O;
transform = "{1, 0, 0, 1, 2, 0}";
}
);
layerId = "5F397B99-8889-4A27-BB1C-6FD1F8D7B180";
name = "Half {450}";
paths = (
{
closed = 1;
nodes = (
"354 -56 LINE SMOOTH",
"354 -132 OFFCURVE",
"405 -187 OFFCURVE",
"488 -188 CURVE SMOOTH",
"504 -187 OFFCURVE",
"532 -183 OFFCURVE",
"550 -178 CURVE",
"544 -92 LINE",
"530 -99 OFFCURVE",
"504 -101 OFFCURVE",
"490 -100 CURVE SMOOTH",
"456 -101 OFFCURVE",
"440 -78 OFFCURVE",
"440 -46 CURVE SMOOTH",
"440 20 LINE",
"354 20 LINE"
);
}
);
width = 800;
}
);
leftKerningGroup = LAT_O_UC;
rightKerningGroup = LAT_O_UC;
},
{
export = 0;
glyphname = Q.002;
lastChange = "2020-05-15 05:42:13 +0000";
layers = (
{
anchors = (
{
name = bottom;
position = "{394, -206}";
},
{
name = top;
position = "{394, 720}";
}
);
components = (
{
name = O;
}
);
layerId = "AB099EFE-E788-4EFC-8633-CF147CB782A6";
paths = (
{
closed = 1;
nodes = (
"650 -26 LINE",
"598 70 LINE",
"590 82 LINE",
"518 208 LINE",
"492 192 LINE",
"566 62 LINE",
"572 52 LINE",
"622 -44 LINE"
);
}
);
width = 790;
},
{
anchors = (
{
name = bottom;
position = "{398, -206}";
},
{
name = top;
position = "{398, 720}";
}
);
components = (
{
alignment = -1;
name = O;
}
);
layerId = "2D8F7115-C311-411E-929D-56333CF7FFB2";
paths = (
{
closed = 1;
nodes = (
"712 0 LINE",
"656 96 LINE",
"574 206 LINE",
"492 348 LINE",
"368 280 LINE",
"468 106 LINE",
"536 20 LINE",
"588 -68 LINE"
);
}
);
width = 798;
},
{
anchors = (
{
name = bottom;
position = "{396, -206}";
},
{
name = top;
position = "{396, 720}";
}
);
associatedMasterId = "AB099EFE-E788-4EFC-8633-CF147CB782A6";
components = (
{
alignment = -1;
name = O;
}
);
guideLines = (
{
angle = 60;
position = "{670, 0}";
},
{
angle = 150;
position = "{670, 0}";
}
);
layerId = "5F397B99-8889-4A27-BB1C-6FD1F8D7B180";
name = "Half {450}";
paths = (
{
closed = 1;
nodes = (
"668 -42 LINE",
"610 64 LINE",
"590 98 LINE",
"500 256 LINE",
"412 208 LINE",
"484 80 LINE",
"510 32 LINE",
"580 -90 LINE"
);
}
);
width = 794;
}
);
leftKerningGroup = LAT_O_UC;
rightKerningGroup = LAT_O_UC;
},
{
export = 0;
glyphname = Q.003;
lastChange = "2020-05-15 05:42:13 +0000";
layers = (
{
anchors = (
{
name = bottom;
position = "{394, -206}";
},
{
name = top;
position = "{394, 720}";
}
);
components = (
{
name = O;
}
);
layerId = "AB099EFE-E788-4EFC-8633-CF147CB782A6";
paths = (
{
closed = 1;
nodes = (
"662 8 LINE",
"600 104 LINE",
"590 118 LINE",
"506 242 LINE",
"478 226 LINE",
"568 96 LINE",
"576 86 LINE",
"636 -8 LINE"
);
}
);
width = 790;
},
{
anchors = (
{
name = bottom;
position = "{398, -206}";
},
{
name = top;
position = "{398, 720}";
}
);
components = (
{
alignment = -1;
name = O;
}
);
layerId = "2D8F7115-C311-411E-929D-56333CF7FFB2";
paths = (
{
closed = 1;
nodes = (
"758 58 LINE",
"682 138 LINE",
"576 226 LINE",
"460 368 LINE",
"354 284 LINE",
"492 128 LINE",
"580 62 LINE",
"652 -26 LINE"
);
}
);
width = 798;
},
{
anchors = (
{
name = bottom;
position = "{396, -206}";
},
{
name = top;
position = "{396, 720}";
}
);
associatedMasterId = "AB099EFE-E788-4EFC-8633-CF147CB782A6";
components = (
{
alignment = -1;
name = O;
}
);
guideLines = (
{
angle = 60;
position = "{670, 0}";
},
{
angle = 150;
position = "{670, 0}";
}
);
layerId = "5F397B99-8889-4A27-BB1C-6FD1F8D7B180";
name = "Half {450}";
paths = (
{
closed = 1;
nodes = (
"740 50 LINE",
"664 130 LINE",
"624 160 LINE",
"490 300 LINE",
"418 240 LINE",
"554 98 LINE",
"594 66 LINE",
"666 -8 LINE"
);
}
);
width = 794;
}
);
leftKerningGroup = LAT_O_UC;
rightKerningGroup = LAT_O_UC;
},
{
export = 0;
glyphname = W.001;
lastChange = "2020-05-18 07:56:23 +0000";
layers = (
{
anchors = (
{
name = bottom;
position = "{450, 0}";
},
{
name = top;
position = "{450, 720}";
}
);
layerId = "AB099EFE-E788-4EFC-8633-CF147CB782A6";
paths = (
{
closed = 1;
nodes = (
"228 0 LINE",
"268 0 LINE",
"448 606 LINE",
"452 606 LINE",
"632 0 LINE",
"672 0 LINE",
"868 720 LINE",
"834 720 LINE",
"676 134 LINE",
"654 36 LINE",
"650 36 LINE",
"462 672 LINE",
"438 672 LINE",
"250 36 LINE",
"246 36 LINE",
"224 134 LINE",
"66 720 LINE",
"32 720 LINE"
);
}
);
width = 900;
},
{
anchors = (
{
name = bottom;
position = "{510, 0}";
},
{
name = top;
position = "{510, 720}";
}
);
layerId = "2D8F7115-C311-411E-929D-56333CF7FFB2";
paths = (
{
closed = 1;
nodes = (
"220 0 LINE",
"364 0 LINE",
"508 312 LINE",
"512 312 LINE",
"656 0 LINE",
"802 0 LINE",
"1012 720 LINE",
"826 720 LINE",
"746 430 LINE",
"704 250 LINE",
"700 250 LINE",
"546 638 LINE",
"474 638 LINE",
"320 250 LINE",
"316 250 LINE",
"274 430 LINE",
"196 720 LINE",
"8 720 LINE"
);
}
);
width = 1020;
},
{
anchors = (
{
name = bottom;
position = "{472, 0}";
},
{
name = top;
position = "{472, 720}";
}
);
associatedMasterId = "AB099EFE-E788-4EFC-8633-CF147CB782A6";
layerId = "EFE37E7D-F637-41FE-8784-1086CBF7F997";
name = "Half {450}";
paths = (
{
closed = 1;
nodes = (
"232 0 LINE",
"324 0 LINE",
"470 396 LINE",
"474 396 LINE",
"622 0 LINE",
"714 0 LINE",
"928 720 LINE",
"820 720 LINE",
"720 352 LINE",
"664 150 LINE",
"660 150 LINE",
"492 636 LINE",
"452 636 LINE",
"284 150 LINE",
"280 150 LINE",
"224 352 LINE",
"124 720 LINE",
"16 720 LINE"
);
}
);
width = 944;
}
);
leftKerningGroup = LAT_W_UC;
rightKerningGroup = LAT_W_UC;
},
{
glyphname = a;
lastChange = "2020-05-19 00:29:28 +0000";
layers = (
{
anchors = (
{
name = bottom;
position = "{244, 0}";
},
{
name = ogonek;
position = "{406, 0}";
},
{
name = top;
position = "{244, 512}";
}
);
guideLines = (
{
angle = 60;
position = "{450, -8}";
}
);
layerId = "AB099EFE-E788-4EFC-8633-CF147CB782A6";
paths = (
{
closed = 1;
nodes = (
"292 -8 OFFCURVE",
"354 38 OFFCURVE",
"386 88 CURVE",
"378 86 LINE",
"390 86 LINE",
"384 90 LINE",
"390 46 OFFCURVE",
"408 16 OFFCURVE",
"440 -2 CURVE SMOOTH",
"450 -8 LINE",
"466 18 LINE",
"458 22 LINE SMOOTH",
"434 34 OFFCURVE",
"416 64 OFFCURVE",
"416 114 CURVE SMOOTH",
"416 334 LINE SMOOTH",
"416 448 OFFCURVE",
"378 520 OFFCURVE",
"252 520 CURVE SMOOTH",
"180 520 OFFCURVE",
"116 496 OFFCURVE",
"76 464 CURVE",
"90 438 LINE",
"134 474 OFFCURVE",
"190 492 OFFCURVE",
"250 492 CURVE SMOOTH",
"348 492 OFFCURVE",
"386 444 OFFCURVE",
"386 338 CURVE SMOOTH",
"386 274 LINE",
"386 270 LINE",
"386 176 LINE SMOOTH",
"386 94 OFFCURVE",
"298 20 OFFCURVE",
"212 20 CURVE SMOOTH",
"140 20 OFFCURVE",
"82 72 OFFCURVE",
"82 138 CURVE SMOOTH",
"82 214 OFFCURVE",
"156 268 OFFCURVE",
"300 268 CURVE SMOOTH",
"396 268 LINE",
"396 296 LINE",
"300 296 LINE SMOOTH",
"138 296 OFFCURVE",
"52 232 OFFCURVE",
"52 138 CURVE SMOOTH",
"52 54 OFFCURVE",
"122 -8 OFFCURVE",
"212 -8 CURVE SMOOTH"
);
}
);
width = 506;
},
{
anchors = (
{
name = bottom;
position = "{282, 0}";
},
{
name = ogonek;
position = "{422, 0}";
},
{
name = top;
position = "{292, 528}";
}
);
layerId = "2D8F7115-C311-411E-929D-56333CF7FFB2";
paths = (
{
closed = 1;
nodes = (
"294 -8 OFFCURVE",
"354 32 OFFCURVE",
"374 74 CURVE",
"348 64 LINE",
"386 64 LINE",
"358 92 LINE",
"363 62 OFFCURVE",
"400 14 OFFCURVE",
"472 -4 CURVE SMOOTH",
"488 -8 LINE",
"568 130 LINE",
"548 140 LINE SMOOTH",
"527 151 OFFCURVE",
"514 162 OFFCURVE",
"514 212 CURVE SMOOTH",
"514 348 LINE SMOOTH",
"514 430 OFFCURVE",
"504 536 OFFCURVE",
"296 536 CURVE SMOOTH",
"202 536 OFFCURVE",
"104 508 OFFCURVE",
"66 486 CURVE",
"124 358 LINE",
"160 378 OFFCURVE",
"226 398 OFFCURVE",
"268 398 CURVE SMOOTH",
"312 398 OFFCURVE",
"346 382 OFFCURVE",
"346 346 CURVE SMOOTH",
"346 270 LINE",
"354 250 LINE",
"354 182 LINE SMOOTH",
"354 130 OFFCURVE",
"298 116 OFFCURVE",
"266 116 CURVE SMOOTH",
"232 116 OFFCURVE",
"206 134 OFFCURVE",
"206 166 CURVE SMOOTH",
"206 198 OFFCURVE",
"230 216 OFFCURVE",
"278 216 CURVE SMOOTH",
"376 216 LINE",
"376 312 LINE",
"242 312 LINE SMOOTH",
"114 312 OFFCURVE",
"38 248 OFFCURVE",
"36 152 CURVE SMOOTH",
"38 64 OFFCURVE",
"104 -8 OFFCURVE",
"210 -8 CURVE SMOOTH"
);
}
);
width = 592;
},
{
anchors = (
{
name = bottom;
position = "{276, 0}";
},
{
name = ogonek;
position = "{418, 0}";
},
{
name = top;
position = "{276, 520}";
}
);
associatedMasterId = "AB099EFE-E788-4EFC-8633-CF147CB782A6";
background = {
paths = (
{
closed = 1;
nodes = (
"482 96 OFFCURVE",
"468 110 OFFCURVE",
"468 154 CURVE",
"468 340 LINE",
"468 443 OFFCURVE",
"420 528 OFFCURVE",
"276 528 CURVE",
"241 528 OFFCURVE",
"195 523 OFFCURVE",
"158 512 CURVE",
"129 504 OFFCURVE",
"103 493 OFFCURVE",
"78 478 CURVE",
"102 388 LINE",
"119 399 OFFCURVE",
"136 406 OFFCURVE",
"156 414 CURVE",
"191 429 OFFCURVE",
"239 437 OFFCURVE",
"264 436 CURVE",
"350 437 OFFCURVE",
"368 401 OFFCURVE",
"368 334 CURVE",
"368 308 LINE",
"296 308 LINE",
"140 309 OFFCURVE",
"47 234 OFFCURVE",
"48 146 CURVE",
"48 54 OFFCURVE",
"120 -8 OFFCURVE",
"220 -8 CURVE",
"260 -8 OFFCURVE",
"296 0 OFFCURVE",
"328 18 CURVE",
"352 31 OFFCURVE",
"372 48 OFFCURVE",
"386 68 CURVE",
"386 68 LINE",
"395 31 OFFCURVE",
"429 7 OFFCURVE",
"470 -8 CURVE",
"470 -8 LINE",
"520 78 LINE",
"508 82 LINE"
);
},
{
closed = 1;
nodes = (
"183 78 OFFCURVE",
"148 104 OFFCURVE",
"148 148 CURVE",
"148 210 OFFCURVE",
"234 232 OFFCURVE",
"302 232 CURVE",
"374 232 LINE",
"374 208 LINE",
"374 109 OFFCURVE",
"288 78 OFFCURVE",
"228 78 CURVE"
);
}
);
};
guideLines = (
{
angle = 60;
position = "{474, -8}";
}
);
layerId = "10222E3F-14CA-477D-B1AE-4234237F89B0";
name = "Half {450}";
paths = (
{
closed = 1;
nodes = (
"306 -8 OFFCURVE",
"368 30 OFFCURVE",
"394 82 CURVE",
"366 68 LINE",
"406 68 LINE",
"386 72 LINE",
"387 49 OFFCURVE",
"422 14 OFFCURVE",
"460 -2 CURVE SMOOTH",
"474 -8 LINE",
"522 76 LINE",
"510 82 LINE SMOOTH",
"478 98 OFFCURVE",
"468 120 OFFCURVE",
"468 162 CURVE SMOOTH",
"468 330 LINE SMOOTH",
"468 428 OFFCURVE",
"440 528 OFFCURVE",
"276 528 CURVE SMOOTH",
"206 528 OFFCURVE",
"132 510 OFFCURVE",
"78 480 CURVE",
"114 394 LINE",
"150 418 OFFCURVE",
"206 436 OFFCURVE",
"266 436 CURVE SMOOTH",
"368 436 OFFCURVE",
"368 384 OFFCURVE",
"368 328 CURVE SMOOTH",
"368 270 LINE",
"374 236 LINE",
"374 192 LINE SMOOTH",
"374 112 OFFCURVE",
"293 78 OFFCURVE",
"234 78 CURVE SMOOTH",
"184 78 OFFCURVE",
"148 102 OFFCURVE",
"148 146 CURVE SMOOTH",
"148 224 OFFCURVE",
"250 230 OFFCURVE",
"302 230 CURVE SMOOTH",
"394 230 LINE",
"394 310 LINE",
"296 310 LINE SMOOTH",
"136 310 OFFCURVE",
"48 244 OFFCURVE",
"48 144 CURVE SMOOTH",
"48 52 OFFCURVE",
"128 -8 OFFCURVE",
"226 -8 CURVE SMOOTH"
);
}
);
width = 554;
}
);
leftKerningGroup = LAT_ASS02_LC;
rightKerningGroup = LAT_A_LC;
rightMetricsKey = u;
unicode = 0061;
},
{
glyphname = a.002;
lastChange = "2020-05-18 06:48:47 +0000";
layers = (
{
anchors = (
{
name = bottom;
position = "{244, 0}";
},
{
name = ogonek;
position = "{406, 0}";
},
{
name = top;
position = "{244, 512}";
}
);
layerId = "AB099EFE-E788-4EFC-8633-CF147CB782A6";
paths = (
{
closed = 1;
nodes = (
"416 0 LINE",
"416 328 LINE SMOOTH",
"416 462 OFFCURVE",
"374 520 OFFCURVE",
"252 520 CURVE SMOOTH",
"186 520 OFFCURVE",
"110 498 OFFCURVE",
"68 468 CURVE",
"82 442 LINE",
"128 476 OFFCURVE",
"196 492 OFFCURVE",
"248 492 CURVE SMOOTH",
"344 492 OFFCURVE",
"384 454 OFFCURVE",
"384 340 CURVE SMOOTH",
"384 274 LINE",
"384 270 LINE",
"384 120 LINE",
"378 86 LINE",
"386 86 LINE",
"386 0 LINE"
);
},
{
closed = 1;
nodes = (
"292 -8 OFFCURVE",
"354 38 OFFCURVE",
"386 88 CURVE",
"390 142 LINE",
"346 68 OFFCURVE",
"288 22 OFFCURVE",
"212 20 CURVE SMOOTH",
"140 22 OFFCURVE",
"82 72 OFFCURVE",
"82 138 CURVE SMOOTH",
"82 214 OFFCURVE",
"156 268 OFFCURVE",
"300 268 CURVE SMOOTH",
"396 268 LINE",
"396 296 LINE",
"300 296 LINE SMOOTH",
"138 296 OFFCURVE",
"52 232 OFFCURVE",
"52 138 CURVE SMOOTH",
"52 54 OFFCURVE",
"122 -8 OFFCURVE",
"212 -8 CURVE SMOOTH"
);
}
);
width = 492;
},
{
anchors = (
{
name = bottom;
position = "{282, 0}";
},
{
name = ogonek;
position = "{422, 0}";
},
{
name = top;
position = "{292, 528}";
}
);
layerId = "2D8F7115-C311-411E-929D-56333CF7FFB2";
paths = (
{
closed = 1;
nodes = (
"514 0 LINE",
"514 348 LINE SMOOTH",
"514 430 OFFCURVE",
"504 536 OFFCURVE",
"296 536 CURVE SMOOTH",
"202 536 OFFCURVE",
"104 512 OFFCURVE",
"66 490 CURVE",
"124 358 LINE",
"160 378 OFFCURVE",
"226 400 OFFCURVE",
"268 398 CURVE SMOOTH",
"312 400 OFFCURVE",
"346 382 OFFCURVE",
"346 346 CURVE SMOOTH",
"346 270 LINE",
"350 250 LINE",
"350 128 LINE",
"348 64 LINE",
"370 64 LINE",
"370 0 LINE"
);
},
{
closed = 1;
nodes = (
"294 -8 OFFCURVE",
"354 32 OFFCURVE",
"374 74 CURVE",
"350 152 LINE",
"330 128 OFFCURVE",
"298 116 OFFCURVE",
"266 116 CURVE SMOOTH",
"232 116 OFFCURVE",
"206 134 OFFCURVE",
"206 166 CURVE SMOOTH",
"206 198 OFFCURVE",
"230 218 OFFCURVE",
"278 218 CURVE SMOOTH",
"356 218 LINE",
"356 304 LINE",
"244 304 LINE SMOOTH",
"116 304 OFFCURVE",
"38 240 OFFCURVE",
"36 144 CURVE SMOOTH",
"38 56 OFFCURVE",
"104 -8 OFFCURVE",
"210 -8 CURVE SMOOTH"
);
}
);
width = 570;
},
{
anchors = (
{
name = bottom;
position = "{276, 0}";
},
{
name = ogonek;
position = "{418, 0}";
},
{
name = top;
position = "{276, 520}";
}
);
associatedMasterId = "AB099EFE-E788-4EFC-8633-CF147CB782A6";
layerId = "10222E3F-14CA-477D-B1AE-4234237F89B0";
name = "Half {450}";
paths = (
{
closed = 1;
nodes = (
"468 0 LINE",
"468 340 LINE SMOOTH",
"468 438 OFFCURVE",
"446 528 OFFCURVE",
"276 528 CURVE SMOOTH",
"206 528 OFFCURVE",
"132 512 OFFCURVE",
"78 484 CURVE",
"114 398 LINE",
"150 421 OFFCURVE",
"212 440 OFFCURVE",
"264 440 CURVE SMOOTH",
"366 440 OFFCURVE",
"368 397 OFFCURVE",
"368 338 CURVE SMOOTH",
"368 270 LINE",
"374 236 LINE",
"374 128 LINE",
"366 68 LINE",
"386 68 LINE",
"386 0 LINE"
);
},
{
closed = 1;
nodes = (
"302 -8 OFFCURVE",
"368 31 OFFCURVE",
"394 82 CURVE",
"376 166 LINE",
"352 113 OFFCURVE",
"286 78 OFFCURVE",
"228 78 CURVE SMOOTH",
"185 78 OFFCURVE",
"148 101 OFFCURVE",
"148 146 CURVE SMOOTH",
"148 226 OFFCURVE",
"259 230 OFFCURVE",
"302 230 CURVE SMOOTH",
"394 230 LINE",
"394 312 LINE",
"296 312 LINE SMOOTH",
"111 312 OFFCURVE",
"47 234 OFFCURVE",
"48 146 CURVE SMOOTH",
"47 51 OFFCURVE",
"121 -8 OFFCURVE",
"220 -8 CURVE SMOOTH"
);
}
);
width = 532;
}
);
leftKerningGroup = LAT_ASS02_LC;
rightKerningGroup = LAT_A_LC;
rightMetricsKey = n;
},
{
color = 4;
glyphname = a.ss01;
lastChange = "2020-05-18 11:30:18 +0000";
layers = (
{
anchors = (
{
name = bottom;
position = "{294, 0}";
},
{
name = center;
position = "{306, 256}";
},
{
name = ogonek;
position = "{474, -4}";
},
{
name = top;
position = "{306, 512}";
},
{
name = topright;
position = "{606, 512}";
}
);
components = (
{
alignment = -1;
name = _part.bowl.ss01;
transform = "{-1, 0, 0, 1, 620, 0}";
}
);
layerId = "AB099EFE-E788-4EFC-8633-CF147CB782A6";
paths = (
{
closed = 1;
nodes = (
"534 0 LINE",
"534 512 LINE",
"504 512 LINE",
"504 396 LINE",
"494 396 LINE",
"506 372 LINE",
"506 140 LINE",
"492 116 LINE",
"504 116 LINE",
"504 0 LINE"
);
}
);
width = 612;
},
{
anchors = (
{
name = bottom;
position = "{336, 0}";
},
{
name = center;
position = "{334, 264}";
},
{
name = ogonek;
position = "{502, 0}";
},
{
name = top;
position = "{342, 528}";
},
{
name = topright;
position = "{636, 528}";
}
);
components = (
{
alignment = -1;
name = _part.bowl.ss01;
transform = "{-1, 0, 0, 1, 656, 0}";
}
);
layerId = "2D8F7115-C311-411E-929D-56333CF7FFB2";
paths = (
{
closed = 1;
nodes = (
"592 0 LINE",
"592 528 LINE",
"428 528 LINE",
"428 470 LINE",
"408 470 LINE",
"426 420 LINE",
"426 88 LINE",
"412 62 LINE",
"428 62 LINE",
"428 0 LINE"
);
}
);
width = 654;
},
{
anchors = (
{
name = bottom;
position = "{322, 0}";
},
{
name = center;
position = "{326, 262}";
},
{
name = ogonek;
position = "{490, -2}";
},
{
name = top;
position = "{330, 520}";
},
{
name = topright;
position = "{618, 520}";
}
);
associatedMasterId = "AB099EFE-E788-4EFC-8633-CF147CB782A6";
components = (
{
alignment = -1;
name = _part.bowl.ss01;
transform = "{-1, 0, 0, 1, 644, 0}";
}
);
layerId = "AC8A3195-6078-46FD-AA9D-1AC5F6AC1630";
name = "Half {450}";
paths = (
{
closed = 1;
nodes = (
"570 0 LINE",
"570 520 LINE",
"466 520 LINE",
"466 460 LINE",
"452 460 LINE",
"472 430 LINE",
"472 90 LINE",
"454 60 LINE",
"466 60 LINE",
"466 0 LINE"
);
}
);
width = 644;
}
);
leftKerningGroup = LAT_O_LC;
leftMetricsKey = o;
rightKerningGroup = LAT_ASS01_LC;
},
{
color = 6;
glyphname = a.ss02;
lastChange = "2020-05-19 01:33:55 +0000";
layers = (
{
anchors = (
{
name = bottom;
position = "{282, 0}";
},
{
name = ogonek;
position = "{488, 0}";
},
{
name = top;
position = "{282, 512}";
},
{
name = topright;
position = "{560, 512}";
}
);
components = (
{
name = _part.bowl;
transform = "{-1, 0, 0, 1, 584, 0}";
}
);
layerId = "AB099EFE-E788-4EFC-8633-CF147CB782A6";
paths = (
{
closed = 1;
nodes = (
"546 18 LINE",
"538 22 LINE SMOOTH",
"516 33 OFFCURVE",
"498 60 OFFCURVE",
"498 114 CURVE SMOOTH",
"498 512 LINE",
"468 512 LINE",
"468 406 LINE",
"462 406 LINE",
"470 390 LINE",
"470 144 LINE",
"458 108 LINE",
"472 108 LINE",
"468 114 LINE",
"470 52 OFFCURVE",
"490 16 OFFCURVE",
"520 -2 CURVE SMOOTH",
"530 -8 LINE"
);
}
);
width = 586;
},
{
anchors = (
{
name = bottom;
position = "{314, 0}";
},
{
name = ogonek;
position = "{484, 0}";
},
{
name = top;
position = "{314, 528}";
},
{
name = topright;
position = "{612, 528}";
}
);
components = (
{
name = _part.bowl;
transform = "{-1, 0, 0, 1, 638, 0}";
}
);
layerId = "2D8F7115-C311-411E-929D-56333CF7FFB2";
paths = (
{
closed = 1;
nodes = (
"630 130 LINE",
"610 140 LINE SMOOTH",
"589 150 OFFCURVE",
"576 162 OFFCURVE",
"576 212 CURVE SMOOTH",
"576 528 LINE",
"402 528 LINE",
"402 488 LINE",
"388 488 LINE",
"408 436 LINE",
"408 134 LINE",
"392 72 LINE",
"436 72 LINE",
"426 78 LINE",
"440 40 OFFCURVE",
"484 9 OFFCURVE",
"534 -4 CURVE SMOOTH",
"550 -8 LINE"
);
}
);
width = 654;
},
{
anchors = (
{
name = bottom;
position = "{304, 0}";
},
{
name = ogonek;
position = "{462, -2}";
},
{
name = top;
position = "{312, 520}";
},
{
name = topright;
position = "{588, 520}";
}
);
associatedMasterId = "AB099EFE-E788-4EFC-8633-CF147CB782A6";
components = (
{
name = _part.bowl;
transform = "{-1, 0, 0, 1, 608, 0}";
}
);
layerId = "10222E3F-14CA-477D-B1AE-4234237F89B0";
name = "Half {450}";
paths = (
{
closed = 1;
nodes = (
"582 76 LINE",
"570 82 LINE SMOOTH",
"541 96 OFFCURVE",
"532 116 OFFCURVE",
"532 162 CURVE SMOOTH",
"532 512 LINE",
"430 512 LINE",
"430 464 LINE",
"418 464 LINE",
"440 404 LINE",
"440 140 LINE",
"418 76 LINE",
"476 76 LINE",
"444 90 LINE",
"448 60 OFFCURVE",
"484 14 OFFCURVE",
"520 -2 CURVE SMOOTH",
"534 -8 LINE"
);
}
);
width = 614;
}
);
leftKerningGroup = LAT_O_LC;
leftMetricsKey = o;
rightKerningGroup = LAT_A_LC;
rightMetricsKey = u;
},
{
glyphname = ae;
lastChange = "2020-05-17 05:07:44 +0000";
layers = (
{
anchors = (
{
name = bottom;
position = "{406, 0}";
},
{
name = top;
position = "{398, 512}";
}
);
background = {
components = (
{
name = a;
transform = "{0.96569, 0, 0, 1, 4, 0}";
},
{
name = e;
transform = "{0.94033, 0, 0, 1, 326, 0}";
}
);
};
layerId = "AB099EFE-E788-4EFC-8633-CF147CB782A6";
paths = (
{
closed = 1;
nodes = (
"310 -8 OFFCURVE",
"381 59 OFFCURVE",
"402 144 CURVE",
"396 144 LINE",
"427 50 OFFCURVE",
"496 -8 OFFCURVE",
"596 -8 CURVE SMOOTH",
"662 -8 OFFCURVE",
"718 18 OFFCURVE",
"764 64 CURVE",
"744 86 LINE",
"714 54 OFFCURVE",
"654 20 OFFCURVE",
"592 20 CURVE SMOOTH",
"486 20 OFFCURVE",
"409 113 OFFCURVE",
"408 266 CURVE SMOOTH",
"410 407 OFFCURVE",
"484 492 OFFCURVE",
"588 492 CURVE SMOOTH",
"698 492 OFFCURVE",
"764 400 OFFCURVE",
"762 276 CURVE",
"402 276 LINE",
"402 248 LINE",
"792 248 LINE",
"794 262 OFFCURVE",
"794 272 OFFCURVE",
"794 278 CURVE SMOOTH",
"794 424 OFFCURVE",
"710 520 OFFCURVE",
"588 520 CURVE SMOOTH",
"501 520 OFFCURVE",
"431 472 OFFCURVE",
"398 382 CURVE",
"404 382 LINE",
"393 468 OFFCURVE",
"358 520 OFFCURVE",
"254 520 CURVE SMOOTH",
"194 520 OFFCURVE",
"110 500 OFFCURVE",
"68 470 CURVE",
"84 444 LINE",
"130 476 OFFCURVE",
"200 492 OFFCURVE",
"252 492 CURVE SMOOTH",
"352 492 OFFCURVE",
"378 440 OFFCURVE",
"378 310 CURVE SMOOTH",
"378 154 LINE",
"380 180 LINE",
"357 70 OFFCURVE",
"287 20 OFFCURVE",
"210 20 CURVE SMOOTH",
"132 20 OFFCURVE",
"82 70 OFFCURVE",
"82 134 CURVE SMOOTH",
"82 208 OFFCURVE",
"148 248 OFFCURVE",
"288 248 CURVE SMOOTH",
"386 248 LINE",
"386 276 LINE",
"292 276 LINE SMOOTH",
"136 276 OFFCURVE",
"52 230 OFFCURVE",
"52 134 CURVE SMOOTH",
"52 48 OFFCURVE",
"118 -8 OFFCURVE",
"210 -8 CURVE SMOOTH"
);
}
);
width = 844;
},
{
anchors = (
{
name = bottom;
position = "{434, 0}";
},
{
name = top;
position = "{438, 528}";
}
);
background = {
components = (
{
name = a;
transform = "{0.96569, 0, 0, 1, 2, 0}";
},
{
name = e;
transform = "{0.94033, 0, 0, 1, 312, 0}";
}
);
};
layerId = "2D8F7115-C311-411E-929D-56333CF7FFB2";
paths = (
{
closed = 1;
nodes = (
"358 -8 OFFCURVE",
"432 64 OFFCURVE",
"442 110 CURVE",
"400 110 LINE",
"440 40 OFFCURVE",
"512 -8 OFFCURVE",
"612 -8 CURVE SMOOTH",
"678 -8 OFFCURVE",
"748 10 OFFCURVE",
"792 40 CURVE",
"720 154 LINE",
"696 136 OFFCURVE",
"660 124 OFFCURVE",
"622 124 CURVE SMOOTH",
"576 124 OFFCURVE",
"482 140 OFFCURVE",
"482 264 CURVE SMOOTH",
"482 380 OFFCURVE",
"550 408 OFFCURVE",
"594 408 CURVE SMOOTH",
"648 408 OFFCURVE",
"686 366 OFFCURVE",
"686 314 CURVE",
"464 314 LINE",
"472 216 LINE",
"826 216 LINE",
"830 236 OFFCURVE",
"832 256 OFFCURVE",
"832 280 CURVE SMOOTH",
"832 470 OFFCURVE",
"706 536 OFFCURVE",
"604 536 CURVE SMOOTH",
"530 536 OFFCURVE",
"433 499 OFFCURVE",
"416 440 CURVE",
"466 440 LINE",
"441 499 OFFCURVE",
"406 536 OFFCURVE",
"286 536 CURVE SMOOTH",
"204 536 OFFCURVE",
"118 520 OFFCURVE",
"66 490 CURVE",
"122 358 LINE",
"152 380 OFFCURVE",
"212 402 OFFCURVE",
"266 402 CURVE SMOOTH",
"366 402 OFFCURVE",
"356 332 OFFCURVE",
"356 294 CURVE SMOOTH",
"356 140 LINE",
"366 166 LINE",
"356 152 OFFCURVE",
"322 116 OFFCURVE",
"262 116 CURVE SMOOTH",
"230 116 OFFCURVE",
"198 130 OFFCURVE",
"198 166 CURVE SMOOTH",
"198 218 OFFCURVE",
"268 216 OFFCURVE",
"312 216 CURVE SMOOTH",
"372 216 LINE",
"372 312 LINE",
"274 312 LINE SMOOTH",
"126 312 OFFCURVE",
"36 258 OFFCURVE",
"36 146 CURVE SMOOTH",
"36 44 OFFCURVE",
"122 -8 OFFCURVE",
"232 -8 CURVE SMOOTH"
);
}
);
width = 864;
},
{
anchors = (
{
name = bottom;
position = "{432, 0}";
},
{
name = top;
position = "{432, 520}";
}
);
associatedMasterId = "AB099EFE-E788-4EFC-8633-CF147CB782A6";
background = {
components = (
{
name = a;
},
{
name = e;
transform = "{0.96, 0, 0, 1, 320, 0}";
}
);
paths = (
{
closed = 1;
nodes = (
"688 -8 OFFCURVE",
"756 12 OFFCURVE",
"798 52 CURVE",
"748 130 LINE",
"718 98 OFFCURVE",
"670 80 OFFCURVE",
"618 80 CURVE SMOOTH",
"524 80 OFFCURVE",
"466 152 OFFCURVE",
"466 260 CURVE SMOOTH",
"466 370 OFFCURVE",
"520 442 OFFCURVE",
"602 442 CURVE SMOOTH",
"682 442 OFFCURVE",
"728 378 OFFCURVE",
"726 304 CURVE",
"442 304 LINE",
"442 222 LINE",
"816 222 LINE",
"816 226 OFFCURVE",
"820 258 OFFCURVE",
"820 284 CURVE SMOOTH",
"818 438 OFFCURVE",
"724 528 OFFCURVE",
"604 528 CURVE SMOOTH",
"472 528 OFFCURVE",
"378 420 OFFCURVE",
"378 260 CURVE SMOOTH",
"378 110 OFFCURVE",
"468 -8 OFFCURVE",
"614 -8 CURVE SMOOTH"
);
},
{
closed = 1;
nodes = (
"344 -8 OFFCURVE",
"416 52 OFFCURVE",
"444 120 CURVE",
"386 192 LINE",
"368 124 OFFCURVE",
"298 80 OFFCURVE",
"230 80 CURVE SMOOTH",
"182 80 OFFCURVE",
"148 106 OFFCURVE",
"148 148 CURVE SMOOTH",
"148 196 OFFCURVE",
"186 222 OFFCURVE",
"282 222 CURVE SMOOTH",
"380 222 LINE",
"380 304 LINE",
"280 304 LINE SMOOTH",
"138 304 OFFCURVE",
"48 248 OFFCURVE",
"48 146 CURVE SMOOTH",
"48 56 OFFCURVE",
"118 -8 OFFCURVE",
"226 -8 CURVE SMOOTH"
);
},
{
closed = 1;
nodes = (
"466 126 LINE",
"466 376 LINE SMOOTH",
"466 458 OFFCURVE",
"416 532 OFFCURVE",
"274 532 CURVE SMOOTH",
"198 532 OFFCURVE",
"118 510 OFFCURVE",
"80 482 CURVE",
"114 396 LINE",
"142 420 OFFCURVE",
"214 440 OFFCURVE",
"266 440 CURVE SMOOTH",
"378 440 OFFCURVE",
"378 374 OFFCURVE",
"378 304 CURVE SMOOTH",
"378 126 LINE"
);
}
);
};
layerId = "0E25C16D-2446-49C2-8681-EBC11D211070";
name = "Half {450}";
paths = (
{
closed = 1;
nodes = (
"338 -8 OFFCURVE",
"411 46 OFFCURVE",
"440 110 CURVE",
"412 110 LINE",
"453 39 OFFCURVE",
"521 -8 OFFCURVE",
"614 -8 CURVE SMOOTH",
"688 -8 OFFCURVE",
"756 12 OFFCURVE",
"798 52 CURVE",
"748 130 LINE",
"718 98 OFFCURVE",
"670 80 OFFCURVE",
"618 80 CURVE SMOOTH",
"530 80 OFFCURVE",
"466 144 OFFCURVE",
"466 262 CURVE SMOOTH",
"466 380 OFFCURVE",
"526 442 OFFCURVE",
"602 442 CURVE SMOOTH",
"682 442 OFFCURVE",
"728 378 OFFCURVE",
"726 304 CURVE",
"454 304 LINE",
"452 222 LINE",
"816 222 LINE",
"816 226 OFFCURVE",
"820 258 OFFCURVE",
"820 284 CURVE SMOOTH",
"818 438 OFFCURVE",
"724 528 OFFCURVE",
"604 528 CURVE SMOOTH",
"529 528 OFFCURVE",
"464 493 OFFCURVE",
"424 436 CURVE",
"452 436 LINE",
"431 491 OFFCURVE",
"379 532 OFFCURVE",
"274 532 CURVE SMOOTH",
"198 532 OFFCURVE",
"118 510 OFFCURVE",
"80 482 CURVE",
"114 396 LINE",
"142 420 OFFCURVE",
"214 440 OFFCURVE",
"266 440 CURVE SMOOTH",
"387 440 OFFCURVE",
"378 363 OFFCURVE",
"378 288 CURVE SMOOTH",
"378 148 LINE",
"382 180 LINE",
"366 128 OFFCURVE",
"300 80 OFFCURVE",
"230 80 CURVE SMOOTH",
"182 80 OFFCURVE",
"148 106 OFFCURVE",
"148 148 CURVE SMOOTH",
"148 196 OFFCURVE",
"186 222 OFFCURVE",
"282 222 CURVE SMOOTH",
"394 222 LINE",
"394 304 LINE",
"280 304 LINE SMOOTH",
"138 304 OFFCURVE",
"48 248 OFFCURVE",
"48 146 CURVE SMOOTH",
"48 56 OFFCURVE",
"118 -8 OFFCURVE",
"226 -8 CURVE SMOOTH"
);
}
);
width = 864;
}
);
leftKerningGroup = LAT_ASS02_LC;
leftMetricsKey = a;
rightKerningGroup = LAT_E_LC;
rightMetricsKey = e;
unicode = 00E6;
},
{
glyphname = b;
lastChange = "2020-05-19 01:26:38 +0000";
layers = (
{
anchors = (
{
name = bottom;
position = "{292, 0}";
},
{
name = center;
position = "{94, 616}";
},
{
name = top;
position = "{316, 564}";
}
);
components = (
{
name = _part.bowl;
transform = "{1, 0, 0, 1, -6, 0}";
}
);
layerId = "AB099EFE-E788-4EFC-8633-CF147CB782A6";
paths = (
{
closed = 1;
nodes = (
"80 0 LINE",
"110 0 LINE",
"110 116 LINE",
"120 116 LINE",
"108 132 LINE",
"108 364 LINE",
"116 394 LINE",
"110 394 LINE",
"110 752 LINE",
"80 752 LINE"
);
}
);
width = 578;
},
{
anchors = (
{
name = bottom;
position = "{332, 0}";
},
{
name = center;
position = "{154, 634}";
},
{
name = top;
position = "{406, 568}";
}
);
components = (
{
name = _part.bowl;
transform = "{1, 0, 0, 1, 6, 0}";
}
);
layerId = "2D8F7115-C311-411E-929D-56333CF7FFB2";
paths = (
{
closed = 1;
nodes = (
"68 0 LINE",
"232 0 LINE",
"232 62 LINE",
"254 62 LINE",
"236 110 LINE",
"236 398 LINE",
"254 480 LINE",
"242 480 LINE",
"242 752 LINE",
"68 752 LINE"
);
}
);
width = 644;
},
{
anchors = (
{
name = bottom;
position = "{310, 0}";
},
{
name = center;
position = "{122, 626}";
},
{
name = top;
position = "{358, 566}";
}
);
associatedMasterId = "AB099EFE-E788-4EFC-8633-CF147CB782A6";
components = (
{
alignment = -1;
name = _part.bowl;
}
);
layerId = "5A761FBB-D991-4916-A5B6-6B494825C86B";
name = "Half {450}";
paths = (
{
closed = 1;
nodes = (
"72 0 LINE",
"174 0 LINE",
"174 60 LINE",
"192 60 LINE",
"168 116 LINE",
"168 408 LINE",
"182 460 LINE",
"174 460 LINE",
"174 752 LINE",
"72 752 LINE"
);
}
);
width = 608;
}
);
leftKerningGroup = LAT_H_UC;
leftMetricsKey = h;
rightKerningGroup = LAT_O_LC;
rightMetricsKey = o;
unicode = 0062;
},
{
color = 4;
glyphname = b.ss01;
lastChange = "2020-05-18 11:24:04 +0000";
layers = (
{
anchors = (
{
name = bottom;
position = "{296, 0}";
},
{
name = center;
position = "{98, 616}";
},
{
name = top;
position = "{320, 564}";
}
);
components = (
{
name = _part.bowl.ss01;
transform = "{1, 0, 0, 1, -4, 0}";
}
);
layerId = "AB099EFE-E788-4EFC-8633-CF147CB782A6";
paths = (
{
closed = 1;
nodes = (
"82 0 LINE",
"112 0 LINE",
"112 116 LINE",
"122 116 LINE",
"110 132 LINE",
"110 364 LINE",
"118 394 LINE",
"112 394 LINE",
"112 752 LINE",
"82 752 LINE"
);
}
);
width = 616;
},
{
anchors = (
{
name = bottom;
position = "{330, 0}";
},
{
name = center;
position = "{152, 634}";
},
{
name = top;
position = "{404, 568}";
}
);
components = (
{
name = _part.bowl.ss01;
transform = "{1, 0, 0, 1, 2, 0}";
}
);
layerId = "2D8F7115-C311-411E-929D-56333CF7FFB2";
paths = (
{
closed = 1;
nodes = (
"66 0 LINE",
"230 0 LINE",
"230 62 LINE",
"252 62 LINE",
"232 110 LINE",
"232 398 LINE",
"252 480 LINE",
"240 480 LINE",
"240 752 LINE",
"66 752 LINE"
);
}
);
width = 660;
},
{
anchors = (
{
name = bottom;
position = "{313, 0}";
},
{
name = center;
position = "{125, 625}";
},
{
name = top;
position = "{362, 566}";
}
);
associatedMasterId = "AB099EFE-E788-4EFC-8633-CF147CB782A6";
components = (
{
alignment = -1;
name = _part.bowl.ss01;
}
);
layerId = "5A761FBB-D991-4916-A5B6-6B494825C86B";
name = "Half {450}";
paths = (
{
closed = 1;
nodes = (
"74 0 LINE",
"176 0 LINE",
"176 62 LINE",
"188 62 LINE",
"172 94 LINE",
"172 404 LINE",
"186 460 LINE",
"176 460 LINE",
"176 752 LINE",
"74 752 LINE"
);
}
);
width = 644;
}
);
leftKerningGroup = LAT_L_LC;
rightKerningGroup = LAT_O_LC;
rightMetricsKey = o;
},
{
glyphname = c;
lastChange = "2020-05-18 08:38:23 +0000";
layers = (
{
anchors = (
{
name = bottom;
position = "{296, 0}";
},
{
name = cedilla;
position = "{304, 0}";
},
{
name = top;
position = "{296, 512}";
}
);
layerId = "AB099EFE-E788-4EFC-8633-CF147CB782A6";
paths = (
{
closed = 1;
nodes = (
"391.395 -8 OFFCURVE",
"453.657 35.412 OFFCURVE",
"488.787 75.791 CURVE",
"469.192 97.114 LINE",
"429.327 53.571 OFFCURVE",
"379.503 21.987 OFFCURVE",
"306 20 CURVE SMOOTH",
"180 22 OFFCURVE",
"82 128 OFFCURVE",
"82 256 CURVE SMOOTH",
"82 392 OFFCURVE",
"184 492 OFFCURVE",
"308 492 CURVE SMOOTH",
"350.681 492 OFFCURVE",
"419.709 478.827 OFFCURVE",
"462.144 414.144 CURVE",
"483.442 435.442 LINE",
"442.866 489.761 OFFCURVE",
"381.153 520 OFFCURVE",
"306 520 CURVE SMOOTH",
"160 520 OFFCURVE",
"52 400 OFFCURVE",
"52 256 CURVE SMOOTH",
"52 106 OFFCURVE",
"168 -8 OFFCURVE",
"302 -8 CURVE SMOOTH"
);
}
);
width = 528;
},
{
anchors = (
{
name = bottom;
position = "{300, 0}";
},
{
name = cedilla;
position = "{306, 0}";
},
{
name = top;
position = "{306, 528}";
}
);
layerId = "2D8F7115-C311-411E-929D-56333CF7FFB2";
paths = (
{
closed = 1;
nodes = (
"390 -8 OFFCURVE",
"460 26 OFFCURVE",
"510 78 CURVE",
"404 190 LINE",
"382 160 OFFCURVE",
"346 140 OFFCURVE",
"306 140 CURVE SMOOTH",
"238 140 OFFCURVE",
"192 194 OFFCURVE",
"192 266 CURVE SMOOTH",
"192 340 OFFCURVE",
"240 388 OFFCURVE",
"306 388 CURVE SMOOTH",
"350 388 OFFCURVE",
"386 368 OFFCURVE",
"400 346 CURVE",
"510 454 LINE",
"460 508 OFFCURVE",
"390 536 OFFCURVE",
"308 536 CURVE SMOOTH",
"160 536 OFFCURVE",
"32 430 OFFCURVE",
"32 268 CURVE SMOOTH",
"32 114 OFFCURVE",
"146 -8 OFFCURVE",
"306 -8 CURVE SMOOTH"
);
}
);
width = 530;
},
{
anchors = (
{
name = bottom;
position = "{302, 0}";
},
{
name = cedilla;
position = "{310, 0}";
},
{
name = top;
position = "{302, 520}";
}
);
associatedMasterId = "AB099EFE-E788-4EFC-8633-CF147CB782A6";
background = {
paths = (
{
closed = 1;
nodes = (
"390 -8 OFFCURVE",
"454 37 OFFCURVE",
"492 80 CURVE",
"424 138 LINE",
"394 95 OFFCURVE",
"349 74 OFFCURVE",
"298 74 CURVE SMOOTH",
"207 74 OFFCURVE",
"137 152 OFFCURVE",
"138 256 CURVE SMOOTH",
"137 362 OFFCURVE",
"205 444 OFFCURVE",
"298 444 CURVE SMOOTH",
"357 444 OFFCURVE",
"399 415 OFFCURVE",
"424 380 CURVE",
"492 438 LINE",
"454 481 OFFCURVE",
"388 528 OFFCURVE",
"300 528 CURVE SMOOTH",
"156 528 OFFCURVE",
"43 407 OFFCURVE",
"42 256 CURVE SMOOTH",
"43 109 OFFCURVE",
"156 -8 OFFCURVE",
"300 -8 CURVE SMOOTH"
);
}
);
};
layerId = "98F6FA9A-5184-406D-994E-3285DF595750";
name = "Half {450}";
paths = (
{
closed = 1;
nodes = (
"383 -8 OFFCURVE",
"455 25 OFFCURVE",
"502 84 CURVE",
"438 154 LINE",
"410 111 OFFCURVE",
"354 84 OFFCURVE",
"304 84 CURVE SMOOTH",
"222 84 OFFCURVE",
"144 156 OFFCURVE",
"144 262 CURVE SMOOTH",
"144 362 OFFCURVE",
"220 436 OFFCURVE",
"306 436 CURVE SMOOTH",
"356 436 OFFCURVE",
"404 408 OFFCURVE",
"430 374 CURVE",
"496 440 LINE",
"449 496 OFFCURVE",
"378 528 OFFCURVE",
"302 528 CURVE SMOOTH",
"162 528 OFFCURVE",
"45 417 OFFCURVE",
"44 258 CURVE SMOOTH",
"45 101 OFFCURVE",
"164 -8 OFFCURVE",
"302 -8 CURVE SMOOTH"
);
}
);
width = 530;
}
);
leftKerningGroup = LAT_O_LC;
leftMetricsKey = o;
rightKerningGroup = LAT_C_LC;
unicode = 0063;
},
{
glyphname = c.ss01;
lastChange = "2020-05-18 08:37:54 +0000";
layers = (
{
anchors = (
{
name = bottom;
position = "{302, 0}";
},
{
name = cedilla;
position = "{310, 0}";
},
{
name = top;
position = "{302, 512}";
}
);
layerId = "AB099EFE-E788-4EFC-8633-CF147CB782A6";
paths = (
{
closed = 1;
nodes = (
"406 -8 OFFCURVE",
"472 40 OFFCURVE",
"506 82 CURVE",
"482 98 LINE",
"440 54 OFFCURVE",
"388 20 OFFCURVE",
"312 20 CURVE SMOOTH",
"184 20 OFFCURVE",
"82 128 OFFCURVE",
"82 256 CURVE SMOOTH",
"82 392 OFFCURVE",
"188 492 OFFCURVE",
"316 492 CURVE SMOOTH",
"360 492 OFFCURVE",
"434 478 OFFCURVE",
"478 408 CURVE",
"506 420 LINE",
"464 486 OFFCURVE",
"394 520 OFFCURVE",
"312 520 CURVE SMOOTH",
"164 520 OFFCURVE",
"52 400 OFFCURVE",
"52 256 CURVE SMOOTH",
"52 106 OFFCURVE",
"172 -8 OFFCURVE",
"308 -8 CURVE SMOOTH"
);
}
);
width = 548;
},
{
anchors = (
{
name = bottom;
position = "{306, 0}";
},
{
name = cedilla;
position = "{312, 0}";
},
{
name = top;
position = "{312, 528}";
}
);
layerId = "2D8F7115-C311-411E-929D-56333CF7FFB2";
paths = (
{
closed = 1;
nodes = (
"410 -8 OFFCURVE",
"492 36 OFFCURVE",
"542 104 CURVE",
"416 194 LINE",
"390 156 OFFCURVE",
"346 140 OFFCURVE",
"312 140 CURVE SMOOTH",
"240 140 OFFCURVE",
"188 190 OFFCURVE",
"188 268 CURVE SMOOTH",
"188 342 OFFCURVE",
"242 388 OFFCURVE",
"314 388 CURVE SMOOTH",
"352 388 OFFCURVE",
"392 372 OFFCURVE",
"412 342 CURVE",
"544 424 LINE",
"494 494 OFFCURVE",
"410 536 OFFCURVE",
"314 536 CURVE SMOOTH",
"158 536 OFFCURVE",
"32 428 OFFCURVE",
"32 268 CURVE SMOOTH",
"32 112 OFFCURVE",
"150 -8 OFFCURVE",
"312 -8 CURVE SMOOTH"
);
}
);
width = 560;
},
{
anchors = (
{
name = bottom;
position = "{308, 0}";
},
{
name = cedilla;
position = "{316, 0}";
},
{
name = top;
position = "{308, 520}";
}
);
associatedMasterId = "AB099EFE-E788-4EFC-8633-CF147CB782A6";
background = {
paths = (
{
closed = 1;
nodes = (
"390 -8 OFFCURVE",
"454 37 OFFCURVE",
"492 80 CURVE",
"424 138 LINE",
"394 95 OFFCURVE",
"349 74 OFFCURVE",
"298 74 CURVE SMOOTH",
"207 74 OFFCURVE",
"137 152 OFFCURVE",
"138 256 CURVE SMOOTH",
"137 362 OFFCURVE",
"205 444 OFFCURVE",
"298 444 CURVE SMOOTH",
"357 444 OFFCURVE",
"399 415 OFFCURVE",
"424 380 CURVE",
"492 438 LINE",
"454 481 OFFCURVE",
"388 528 OFFCURVE",
"300 528 CURVE SMOOTH",
"156 528 OFFCURVE",
"43 407 OFFCURVE",
"42 256 CURVE SMOOTH",
"43 109 OFFCURVE",
"156 -8 OFFCURVE",
"300 -8 CURVE SMOOTH"
);
}
);
};
layerId = "98F6FA9A-5184-406D-994E-3285DF595750";
name = "Half {450}";
paths = (
{
closed = 1;
nodes = (
"402 -8 OFFCURVE",
"488 42 OFFCURVE",
"532 118 CURVE",
"450 166 LINE",
"428 124 OFFCURVE",
"368 84 OFFCURVE",
"310 84 CURVE SMOOTH",
"226 84 OFFCURVE",
"148 156 OFFCURVE",
"148 262 CURVE SMOOTH",
"148 362 OFFCURVE",
"224 436 OFFCURVE",
"312 436 CURVE SMOOTH",
"372 436 OFFCURVE",
"430 396 OFFCURVE",
"450 352 CURVE",
"532 402 LINE",
"486 484 OFFCURVE",
"398 528 OFFCURVE",
"308 528 CURVE SMOOTH",
"164 528 OFFCURVE",
"44 416 OFFCURVE",
"44 258 CURVE SMOOTH",
"44 102 OFFCURVE",
"166 -8 OFFCURVE",
"308 -8 CURVE SMOOTH"
);
}
);
width = 560;
}
);
leftKerningGroup = LAT_O_LC;
leftMetricsKey = o;
rightKerningGroup = LAT_C_LC;
},
{
glyphname = d;
lastChange = "2020-05-19 01:07:06 +0000";
layers = (
{
anchors = (
{
name = bottom;
position = "{296, 0}";
},
{
name = center;
position = "{484, 616}";
},
{
name = leghookretroflex;
position = "{484, 0}";
},
{
name = top;
position = "{482, 752}";
},
{
name = topright;
position = "{498, 752}";
}
);
components = (
{
name = _part.bowl;
transform = "{-1, 0, 0, 1, 584, 0}";
}
);
layerId = "AB099EFE-E788-4EFC-8633-CF147CB782A6";
paths = (
{
closed = 1;
nodes = (
"546 18 LINE",
"538 22 LINE SMOOTH",
"516 33 OFFCURVE",
"498 60 OFFCURVE",
"498 114 CURVE SMOOTH",
"498 754 LINE",
"468 754 LINE",
"468 406 LINE",
"462 406 LINE",
"470 390 LINE",
"470 144 LINE",
"458 108 LINE",
"472 108 LINE",
"468 114 LINE",
"470 52 OFFCURVE",
"490 16 OFFCURVE",
"520 -2 CURVE SMOOTH",
"530 -8 LINE"
);
}
);
width = 586;
},
{
anchors = (
{
name = bottom;
position = "{314, 0}";
},
{
name = center;
position = "{488, 634}";
},
{
name = leghookretroflex;
position = "{490, 0}";
},
{
name = top;
position = "{490, 752}";
},
{
name = topright;
position = "{576, 752}";
}
);
components = (
{
name = _part.bowl;
transform = "{-1, 0, 0, 1, 638, 0}";
}
);
layerId = "2D8F7115-C311-411E-929D-56333CF7FFB2";
paths = (
{
closed = 1;
nodes = (
"630 130 LINE",
"610 140 LINE SMOOTH",
"589 151 OFFCURVE",
"576 162 OFFCURVE",
"576 212 CURVE SMOOTH",
"576 752 LINE",
"402 752 LINE",
"402 488 LINE",
"388 488 LINE",
"408 436 LINE",
"408 134 LINE",
"392 72 LINE",
"436 72 LINE",
"426 78 LINE",
"440 40 OFFCURVE",
"483 9 OFFCURVE",
"534 -4 CURVE SMOOTH",
"550 -8 LINE"
);
}
);
width = 656;
},
{
anchors = (
{
name = bottom;
position = "{298, 0}";
},
{
name = center;
position = "{482, 624}";
},
{
name = leghookretroflex;
position = "{482, 0}";
},
{
name = top;
position = "{482, 752}";
},
{
name = topright;
position = "{610, 752}";
}
);
associatedMasterId = "AB099EFE-E788-4EFC-8633-CF147CB782A6";
background = {
paths = (
{
closed = 1;
nodes = (
"582 76 LINE",
"570 82 LINE SMOOTH",
"541 97 OFFCURVE",
"532 119 OFFCURVE",
"532 162 CURVE SMOOTH",
"532 752 LINE",
"430 752 LINE",
"430 140 LINE",
"418 68 LINE",
"448 68 LINE",
"448 60 OFFCURVE",
"463 4 OFFCURVE",
"520 -6 CURVE SMOOTH",
"532 -8 LINE"
);
}
);
};
components = (
{
alignment = -1;
name = _part.bowl;
transform = "{-1, 0, 0, 1, 608, 0}";
}
);
layerId = "93F45F20-9F23-4A78-8C04-8606029ED3EE";
name = "Half {450}";
paths = (
{
closed = 1;
nodes = (
"582 76 LINE",
"570 82 LINE SMOOTH",
"541 97 OFFCURVE",
"532 116 OFFCURVE",
"532 162 CURVE SMOOTH",
"532 752 LINE",
"430 752 LINE",
"430 464 LINE",
"418 464 LINE",
"440 404 LINE",
"440 140 LINE",
"418 76 LINE",
"476 76 LINE",
"444 90 LINE",
"448 60 OFFCURVE",
"484 14 OFFCURVE",
"520 -2 CURVE SMOOTH",
"534 -8 LINE"
);
}
);
width = 614;
}
);
leftKerningGroup = LAT_O_LC;
leftMetricsKey = o;
rightKerningGroup = LAT_D_LC;
unicode = 0064;
},
{
glyphname = eth;
lastChange = "2020-05-16 06:09:50 +0000";
layers = (
{
background = {
paths = (
{
closed = 1;
nodes = (
"477 449 OFFCURVE",
"387 499 OFFCURVE",
"294 500 CURVE SMOOTH",
"152 499 OFFCURVE",
"46 393 OFFCURVE",
"48 248 CURVE SMOOTH",
"46 102 OFFCURVE",
"149 -8 OFFCURVE",
"286 -8 CURVE SMOOTH",
"432 -8 OFFCURVE",
"525 115 OFFCURVE",
"526 304 CURVE SMOOTH",
"525 515 OFFCURVE",
"383 691 OFFCURVE",
"158 762 CURVE",
"150 734 LINE",
"361 668 OFFCURVE",
"494 503 OFFCURVE",
"496 304 CURVE SMOOTH",
"494 131 OFFCURVE",
"413 21 OFFCURVE",
"286 20 CURVE SMOOTH",
"165 21 OFFCURVE",
"77 117 OFFCURVE",
"78 248 CURVE SMOOTH",
"77 376 OFFCURVE",
"170 471 OFFCURVE",
"294 470 CURVE SMOOTH",
"376 471 OFFCURVE",
"454 427 OFFCURVE",
"490 360 CURVE",
"518 372 LINE"
);
}
);
};
layerId = "AB099EFE-E788-4EFC-8633-CF147CB782A6";
paths = (
{
closed = 1;
nodes = (
"436 -8 OFFCURVE",
"526 124 OFFCURVE",
"526 304 CURVE SMOOTH",
"526 556 OFFCURVE",
"332 712 OFFCURVE",
"160 762 CURVE",
"150 736 LINE",
"274 698 OFFCURVE",
"432 596 OFFCURVE",
"480 416 CURVE",
"488 422 LINE",
"472 422 LINE",
"488 406 LINE",
"462 458 OFFCURVE",
"374 500 OFFCURVE",
"298 500 CURVE SMOOTH",
"144 500 OFFCURVE",
"48 386 OFFCURVE",
"48 244 CURVE SMOOTH",
"48 100 OFFCURVE",
"152 -8 OFFCURVE",
"288 -8 CURVE SMOOTH"
);
},
{
closed = 1;
nodes = (
"166 22 OFFCURVE",
"76 118 OFFCURVE",
"76 244 CURVE SMOOTH",
"76 380 OFFCURVE",
"174 472 OFFCURVE",
"292 470 CURVE SMOOTH",
"366 472 OFFCURVE",
"456 422 OFFCURVE",
"496 360 CURVE",
"488 384 LINE",
"494 356 OFFCURVE",
"498 330 OFFCURVE",
"498 298 CURVE SMOOTH",
"498 150 OFFCURVE",
"420 22 OFFCURVE",
"286 20 CURVE SMOOTH"
);
},
{
closed = 1;
nodes = (
"452 738 LINE",
"442 760 LINE",
"144 596 LINE",
"156 572 LINE"
);
}
);
width = 574;
},
{
background = {
components = (
{
name = delta;
transform = "{1, 0, 0, 1, -4, 0}";
}
);
};
layerId = "2D8F7115-C311-411E-929D-56333CF7FFB2";
paths = (
{
closed = 1;
nodes = (
"474 -8 OFFCURVE",
"588 126 OFFCURVE",
"588 318 CURVE SMOOTH",
"588 532 OFFCURVE",
"446 710 OFFCURVE",
"182 830 CURVE",
"116 696 LINE",
"266 642 OFFCURVE",
"376 550 OFFCURVE",
"422 438 CURVE",
"444 462 LINE",
"400 462 LINE",
"430 428 LINE",
"414 484 OFFCURVE",
"338 502 OFFCURVE",
"282 502 CURVE SMOOTH",
"164 502 OFFCURVE",
"34 412 OFFCURVE",
"32 252 CURVE SMOOTH",
"34 102 OFFCURVE",
"154 -8 OFFCURVE",
"306 -8 CURVE SMOOTH"
);
},
{
closed = 1;
nodes = (
"252 144 OFFCURVE",
"198 192 OFFCURVE",
"198 262 CURVE SMOOTH",
"198 334 OFFCURVE",
"258 368 OFFCURVE",
"310 368 CURVE SMOOTH",
"368 368 OFFCURVE",
"434 332 OFFCURVE",
"450 282 CURVE",
"426 360 LINE",
"428 342 OFFCURVE",
"430 324 OFFCURVE",
"430 304 CURVE SMOOTH",
"430 210 OFFCURVE",
"382 144 OFFCURVE",
"310 144 CURVE SMOOTH"
);
},
{
closed = 1;
nodes = (
"524 738 LINE",
"464 826 LINE",
"118 592 LINE",
"162 528 LINE"
);
}
);
width = 620;
},
{
associatedMasterId = "AB099EFE-E788-4EFC-8633-CF147CB782A6";
background = {
components = (
{
name = delta;
transform = "{1, 0, 0, 1, -12, 0}";
}
);
};
layerId = "91BDAD2D-5B11-4BE0-BF5F-19682392A8C1";
name = "Half {450}";
paths = (
{
closed = 1;
nodes = (
"446 -8 OFFCURVE",
"552 108 OFFCURVE",
"552 306 CURVE SMOOTH",
"552 556 OFFCURVE",
"386 704 OFFCURVE",
"170 796 CURVE",
"132 714 LINE",
"264 662 OFFCURVE",
"402 574 OFFCURVE",
"448 434 CURVE",
"462 450 LINE",
"436 450 LINE",
"452 432 LINE",
"432 472 OFFCURVE",
"362 506 OFFCURVE",
"284 506 CURVE SMOOTH",
"144 506 OFFCURVE",
"40 402 OFFCURVE",
"40 254 CURVE SMOOTH",
"40 102 OFFCURVE",
"152 -8 OFFCURVE",
"298 -8 CURVE SMOOTH"
);
},
{
closed = 1;
nodes = (
"208 84 OFFCURVE",
"142 152 OFFCURVE",
"142 248 CURVE SMOOTH",
"142 348 OFFCURVE",
"210 412 OFFCURVE",
"296 412 CURVE SMOOTH",
"354 412 OFFCURVE",
"428 382 OFFCURVE",
"462 308 CURVE",
"448 344 LINE",
"448 340 OFFCURVE",
"454 320 OFFCURVE",
"454 282 CURVE SMOOTH",
"454 190 OFFCURVE",
"406 84 OFFCURVE",
"296 84 CURVE SMOOTH"
);
},
{
closed = 1;
nodes = (
"492 742 LINE",
"456 798 LINE",
"132 606 LINE",
"166 550 LINE"
);
}
);
width = 592;
}
);
leftKerningGroup = LAT_ETH_LC;
rightKerningGroup = LAT_ETH_LC;
unicode = 00F0;
},
{
glyphname = e;
lastChange = "2020-05-16 08:25:20 +0000";
layers = (
{
anchors = (
{
name = bottom;
position = "{286, 0}";
},
{
name = cedilla;
position = "{280, 0}";
},
{
name = ogonek;
position = "{374, 34}";
},
{
name = top;
position = "{282, 512}";
}
);
layerId = "AB099EFE-E788-4EFC-8633-CF147CB782A6";
paths = (
{
closed = 1;
nodes = (
"360 -8 OFFCURVE",
"422 24 OFFCURVE",
"462 62 CURVE",
"446 86 LINE",
"402 48 OFFCURVE",
"350 22 OFFCURVE",
"284 20 CURVE SMOOTH",
"162 22 OFFCURVE",
"82 114 OFFCURVE",
"82 254 CURVE SMOOTH",
"82 402 OFFCURVE",
"172 492 OFFCURVE",
"282 492 CURVE SMOOTH",
"394 492 OFFCURVE",
"468 400 OFFCURVE",
"464 276 CURVE",
"76 276 LINE",
"76 246 LINE",
"496 246 LINE",
"496 260 OFFCURVE",
"496 272 OFFCURVE",
"496 284 CURVE SMOOTH",
"496 420 OFFCURVE",
"410 520 OFFCURVE",
"282 520 CURVE SMOOTH",
"152 520 OFFCURVE",
"52 418 OFFCURVE",
"52 254 CURVE SMOOTH",
"52 100 OFFCURVE",
"146 -8 OFFCURVE",
"286 -8 CURVE SMOOTH"
);
}
);
width = 546;
},
{
anchors = (
{
name = bottom;
position = "{298, 0}";
},
{
name = cedilla;
position = "{294, 0}";
},
{
name = ogonek;
position = "{372, 14}";
},
{
name = top;
position = "{288, 520}";
}
);
associatedMasterId = "AB099EFE-E788-4EFC-8633-CF147CB782A6";
layerId = "197FD552-64D2-439A-92C4-31C862AB66D0";
name = "Half {450}";
paths = (
{
closed = 1;
nodes = (
"368 -8 OFFCURVE",
"436 12 OFFCURVE",
"482 50 CURVE",
"430 128 LINE",
"400 102 OFFCURVE",
"358 80 OFFCURVE",
"302 80 CURVE SMOOTH",
"204 80 OFFCURVE",
"138 154 OFFCURVE",
"138 262 CURVE SMOOTH",
"138 366 OFFCURVE",
"196 442 OFFCURVE",
"286 442 CURVE SMOOTH",
"370 442 OFFCURVE",
"424 374 OFFCURVE",
"422 300 CURVE",
"118 300 LINE",
"118 222 LINE",
"510 222 LINE",
"512 232 OFFCURVE",
"516 258 OFFCURVE",
"516 284 CURVE SMOOTH",
"516 428 OFFCURVE",
"418 528 OFFCURVE",
"286 528 CURVE SMOOTH",
"142 528 OFFCURVE",
"44 416 OFFCURVE",
"44 262 CURVE SMOOTH",
"44 104 OFFCURVE",
"148 -8 OFFCURVE",
"306 -8 CURVE SMOOTH"
);
}
);
width = 560;
},
{
anchors = (
{
name = bottom;
position = "{312, 0}";
},
{
name = cedilla;
position = "{316, 0}";
},
{
name = ogonek;
position = "{384, 18}";
},
{
name = top;
position = "{298, 528}";
}
);
background = {
paths = (
{
closed = 1;
nodes = (
"154 539 OFFCURVE",
"33 432 OFFCURVE",
"32 264 CURVE SMOOTH",
"33 90 OFFCURVE",
"164 -8 OFFCURVE",
"312 -8 CURVE SMOOTH",
"407 -8 OFFCURVE",
"469 31 OFFCURVE",
"512 80 CURVE",
"404 170 LINE",
"386 146 OFFCURVE",
"347 121 OFFCURVE",
"304 122 CURVE SMOOTH",
"251 121 OFFCURVE",
"185 158 OFFCURVE",
"184 270 CURVE SMOOTH",
"185 374 OFFCURVE",
"245 405 OFFCURVE",
"294 404 CURVE SMOOTH",
"345 405 OFFCURVE",
"397 366 OFFCURVE",
"396 314 CURVE",
"164 314 LINE",
"164 214 LINE",
"536 214 LINE",
"541 230 OFFCURVE",
"545 247 OFFCURVE",
"544 282 CURVE SMOOTH",
"545 465 OFFCURVE",
"413 539 OFFCURVE",
"296 536 CURVE SMOOTH"
);
}
);
};
layerId = "2D8F7115-C311-411E-929D-56333CF7FFB2";
paths = (
{
closed = 1;
nodes = (
"394 -8 OFFCURVE",
"456 12 OFFCURVE",
"502 44 CURVE",
"430 156 LINE",
"410 138 OFFCURVE",
"368 124 OFFCURVE",
"322 124 CURVE SMOOTH",
"226 124 OFFCURVE",
"184 186 OFFCURVE",
"182 268 CURVE SMOOTH",
"184 354 OFFCURVE",
"230 408 OFFCURVE",
"296 406 CURVE SMOOTH",
"348 408 OFFCURVE",
"388 374 OFFCURVE",
"388 314 CURVE",
"168 314 LINE",
"168 210 LINE",
"538 210 LINE",
"545 234 OFFCURVE",
"546 264 OFFCURVE",
"546 284 CURVE SMOOTH",
"546 428 OFFCURVE",
"442 536 OFFCURVE",
"298 536 CURVE SMOOTH",
"154 536 OFFCURVE",
"34 428 OFFCURVE",
"32 262 CURVE SMOOTH",
"34 104 OFFCURVE",
"142 -8 OFFCURVE",
"310 -8 CURVE SMOOTH"
);
}
);
width = 578;
}
);
leftKerningGroup = LAT_O_LC;
leftMetricsKey = o;
rightKerningGroup = LAT_E_LC;
unicode = 0065;
},
{
glyphname = f;
lastChange = "2020-05-16 08:26:01 +0000";
layers = (
{
anchors = (
{
name = bottom;
position = "{148, 0}";
},
{
name = top;
position = "{240, 752}";
}
);
layerId = "AB099EFE-E788-4EFC-8633-CF147CB782A6";
paths = (
{
closed = 1;
nodes = (
"160 0 LINE",
"160 620 LINE SMOOTH",
"160 678 OFFCURVE",
"188 732 OFFCURVE",
"254 732 CURVE SMOOTH",
"292 732 OFFCURVE",
"324 716 OFFCURVE",
"342 702 CURVE",
"348 734 LINE",
"316 752 OFFCURVE",
"288 760 OFFCURVE",
"252 760 CURVE SMOOTH",
"168 760 OFFCURVE",
"130 698 OFFCURVE",
"130 614 CURVE SMOOTH",
"130 0 LINE"
);
},
{
closed = 1;
nodes = (
"314 484 LINE",
"314 512 LINE",
"44 512 LINE",
"44 484 LINE"
);
}
);
width = 360;
},
{
anchors = (
{
name = bottom;
position = "{212, 0}";
},
{
name = top;
position = "{284, 752}";
}
);
layerId = "2D8F7115-C311-411E-929D-56333CF7FFB2";
paths = (
{
closed = 1;
nodes = (
"292 0 LINE",
"292 554 LINE SMOOTH",
"292 600 OFFCURVE",
"320 612 OFFCURVE",
"358 612 CURVE SMOOTH",
"378 612 OFFCURVE",
"408 606 OFFCURVE",
"432 594 CURVE",
"458 740 LINE",
"426 752 OFFCURVE",
"372 760 OFFCURVE",
"330 760 CURVE SMOOTH",
"188 760 OFFCURVE",
"118 676 OFFCURVE",
"118 560 CURVE SMOOTH",
"118 0 LINE"
);
},
{
closed = 1;
nodes = (
"440 380 LINE",
"440 528 LINE",
"20 528 LINE",
"20 380 LINE"
);
}
);
width = 474;
},
{
anchors = (
{
name = bottom;
position = "{176, 0}";
},
{
name = top;
position = "{266, 752}";
}
);
associatedMasterId = "AB099EFE-E788-4EFC-8633-CF147CB782A6";
layerId = "D74EF1A5-D3D7-4756-8257-D68E12FD6949";
name = "Half {450}";
paths = (
{
closed = 1;
nodes = (
"224 0 LINE",
"224 588 LINE SMOOTH",
"224 645 OFFCURVE",
"255 666 OFFCURVE",
"300 666 CURVE SMOOTH",
"321 666 OFFCURVE",
"349 658 OFFCURVE",
"376 644 CURVE",
"394 738 LINE",
"366 752 OFFCURVE",
"329 760 OFFCURVE",
"288 760 CURVE SMOOTH",
"177 760 OFFCURVE",
"122 695 OFFCURVE",
"122 606 CURVE SMOOTH",
"122 0 LINE"
);
},
{
closed = 1;
nodes = (
"374 430 LINE",
"374 520 LINE",
"30 520 LINE",
"28 430 LINE"
);
}
);
width = 412;
}
);
leftKerningGroup = LAT_F_LC;
rightKerningGroup = LAT_F_LC;
unicode = 0066;
},
{
glyphname = g;
lastChange = "2020-05-19 01:27:39 +0000";
layers = (
{
anchors = (
{
name = bottom;
position = "{288, -206}";
},
{
name = top;
position = "{286, 512}";
}
);
components = (
{
name = _part.bowl;
transform = "{-1, 0, 0, 1, 586, 0}";
}
);
layerId = "AB099EFE-E788-4EFC-8633-CF147CB782A6";
paths = (
{
closed = 1;
nodes = (
"374 -214 OFFCURVE",
"500 -156 OFFCURVE",
"500 4 CURVE SMOOTH",
"500 512 LINE",
"470 512 LINE",
"470 404 LINE",
"466 404 LINE",
"472 378 LINE",
"472 138 LINE",
"466 108 LINE",
"470 108 LINE",
"470 2 LINE SMOOTH",
"470 -136 OFFCURVE",
"362 -186 OFFCURVE",
"282 -184 CURVE SMOOTH",
"224 -186 OFFCURVE",
"162 -164 OFFCURVE",
"122 -130 CURVE",
"104 -156 LINE",
"144 -188 OFFCURVE",
"214 -214 OFFCURVE",
"280 -214 CURVE SMOOTH"
);
}
);
width = 584;
},
{
anchors = (
{
name = bottom;
position = "{314, -206}";
},
{
name = top;
position = "{304, 528}";
}
);
components = (
{
name = _part.bowl;
transform = "{-1, 0, 0, 0.95973, 642, 22}";
}
);
layerId = "2D8F7115-C311-411E-929D-56333CF7FFB2";
paths = (
{
closed = 1;
nodes = (
"462 -218 OFFCURVE",
"576 -126 OFFCURVE",
"576 34 CURVE SMOOTH",
"576 528 LINE",
"412 528 LINE",
"412 486 LINE",
"380 486 LINE",
"412 420 LINE",
"412 122 LINE",
"398 72 LINE",
"412 72 LINE",
"412 24 LINE SMOOTH",
"412 -46 OFFCURVE",
"330 -74 OFFCURVE",
"266 -74 CURVE SMOOTH",
"218 -74 OFFCURVE",
"166 -54 OFFCURVE",
"130 -32 CURVE",
"78 -170 LINE",
"120 -192 OFFCURVE",
"198 -218 OFFCURVE",
"288 -218 CURVE SMOOTH"
);
}
);
width = 640;
},
{
anchors = (
{
name = bottom;
position = "{302, -206}";
},
{
name = top;
position = "{296, 520}";
}
);
associatedMasterId = "AB099EFE-E788-4EFC-8633-CF147CB782A6";
components = (
{
alignment = -1;
name = _part.bowl;
transform = "{-1, 0, 0, 0.98762, 612, 8}";
}
);
layerId = "D548E82C-F1D5-44DE-B786-3582CB4D3885";
name = "Half {450}";
paths = (
{
closed = 1;
nodes = (
"418 -216 OFFCURVE",
"540 -141 OFFCURVE",
"540 20 CURVE SMOOTH",
"540 520 LINE",
"438 520 LINE",
"438 462 LINE",
"416 462 LINE",
"444 412 LINE",
"444 122 LINE",
"424 74 LINE",
"442 74 LINE",
"442 14 LINE SMOOTH",
"442 -90 OFFCURVE",
"346 -125 OFFCURVE",
"276 -126 CURVE SMOOTH",
"222 -125 OFFCURVE",
"164 -105 OFFCURVE",
"130 -78 CURVE",
"94 -164 LINE",
"133 -189 OFFCURVE",
"207 -216 OFFCURVE",
"286 -216 CURVE SMOOTH"
);
}
);
width = 614;
}
);
leftKerningGroup = LAT_G_LC;
rightKerningGroup = LAT_G_LC;
unicode = 0067;
},
{
color = 4;
glyphname = g.ss01;
lastChange = "2020-05-19 01:03:38 +0000";
layers = (
{
anchors = (
{
name = bottom;
position = "{310, -206}";
},
{
name = top;
position = "{308, 512}";
}
);
components = (
{
name = _part.bowl.ss01;
transform = "{-1, 0, 0, 1, 622, 0}";
}
);
layerId = "AB099EFE-E788-4EFC-8633-CF147CB782A6";
paths = (
{
closed = 1;
nodes = (
"400 -214 OFFCURVE",
"536 -156 OFFCURVE",
"536 4 CURVE SMOOTH",
"536 512 LINE",
"506 512 LINE",
"506 396 LINE",
"498 396 LINE",
"508 362 LINE",
"508 154 LINE",
"500 120 LINE",
"506 120 LINE",
"506 2 LINE SMOOTH",
"506 -136 OFFCURVE",
"386 -186 OFFCURVE",
"304 -184 CURVE SMOOTH",
"242 -186 OFFCURVE",
"176 -162 OFFCURVE",
"136 -130 CURVE",
"116 -156 LINE",
"158 -188 OFFCURVE",
"232 -214 OFFCURVE",
"300 -214 CURVE SMOOTH"
);
}
);
width = 620;
},
{
anchors = (
{
name = bottom;
position = "{332, -206}";
},
{
name = top;
position = "{322, 528}";
}
);
components = (
{
name = _part.bowl.ss01;
transform = "{-1, 0, 0, 0.95973, 660, 22}";
}
);
layerId = "2D8F7115-C311-411E-929D-56333CF7FFB2";
paths = (
{
closed = 1;
nodes = (
"480 -218 OFFCURVE",
"594 -126 OFFCURVE",
"594 34 CURVE SMOOTH",
"594 528 LINE",
"430 528 LINE",
"430 478 LINE",
"408 478 LINE",
"430 418 LINE",
"430 104 LINE",
"418 72 LINE",
"424 72 LINE",
"424 24 LINE SMOOTH",
"424 -46 OFFCURVE",
"348 -74 OFFCURVE",
"284 -74 CURVE SMOOTH",
"236 -74 OFFCURVE",
"184 -54 OFFCURVE",
"148 -32 CURVE",
"96 -170 LINE",
"138 -192 OFFCURVE",
"216 -218 OFFCURVE",
"306 -218 CURVE SMOOTH"
);
}
);
width = 658;
},
{
anchors = (
{
name = bottom;
position = "{328, -206}";
},
{
name = top;
position = "{322, 520}";
}
);
associatedMasterId = "AB099EFE-E788-4EFC-8633-CF147CB782A6";
components = (
{
alignment = -1;
name = _part.bowl.ss01;
transform = "{-1, 0, 0, 0.97986, 644, 12}";
}
);
layerId = "D548E82C-F1D5-44DE-B786-3582CB4D3885";
name = "Half {450}";
paths = (
{
closed = 1;
nodes = (
"450 -216 OFFCURVE",
"568 -138 OFFCURVE",
"568 20 CURVE SMOOTH",
"568 520 LINE",
"468 520 LINE",
"468 460 LINE",
"454 460 LINE",
"472 416 LINE",
"472 120 LINE",
"462 70 LINE",
"466 70 LINE",
"466 14 LINE SMOOTH",
"466 -90 OFFCURVE",
"372 -125 OFFCURVE",
"298 -126 CURVE SMOOTH",
"234 -125 OFFCURVE",
"177 -101 OFFCURVE",
"134 -68 CURVE",
"96 -160 LINE",
"142 -193 OFFCURVE",
"220 -216 OFFCURVE",
"300 -216 CURVE SMOOTH"
);
}
);
width = 642;
}
);
leftKerningGroup = LAT_G_LC;
leftMetricsKey = g;
rightKerningGroup = LAT_G_LC;
rightMetricsKey = g;
},
{
color = 7;
glyphname = g.ss03;
lastChange = "2020-05-16 02:59:39 +0000";
layers = (
{
anchors = (
{
name = bottom;
position = "{286, -214}";
},
{
name = top;
position = "{274, 512}";
}
);
background = {
paths = (
{
closed = 1;
nodes = (
"430 454 LINE",
"448 478 LINE SMOOTH",
"462 497 OFFCURVE",
"487 516 OFFCURVE",
"532 516 CURVE",
"532 544 LINE",
"489 545 OFFCURVE",
"452 528 OFFCURVE",
"428 500 CURVE SMOOTH",
"410 476 LINE"
);
}
);
};
layerId = "AB099EFE-E788-4EFC-8633-CF147CB782A6";
paths = (
{
closed = 1;
nodes = (
"416 -214 OFFCURVE",
"522 -142 OFFCURVE",
"522 -56 CURVE SMOOTH",
"522 16 OFFCURVE",
"464 62 OFFCURVE",
"366 62 CURVE SMOOTH",
"230 62 LINE SMOOTH",
"164 62 OFFCURVE",
"114 96 OFFCURVE",
"114 154 CURVE SMOOTH",
"114 180 OFFCURVE",
"130 202 OFFCURVE",
"144 214 CURVE",
"124 236 LINE",
"106 220 OFFCURVE",
"86 190 OFFCURVE",
"86 154 CURVE SMOOTH",
"86 96 OFFCURVE",
"132 34 OFFCURVE",
"230 34 CURVE SMOOTH",
"374 34 LINE SMOOTH",
"448 34 OFFCURVE",
"490 0 OFFCURVE",
"490 -56 CURVE SMOOTH",
"490 -124 OFFCURVE",
"406 -186 OFFCURVE",
"282 -186 CURVE SMOOTH",
"164 -186 OFFCURVE",
"92 -136 OFFCURVE",
"92 -68 CURVE SMOOTH",
"92 -16 OFFCURVE",
"136 36 OFFCURVE",
"176 52 CURVE",
"150 70 LINE",
"102 44 OFFCURVE",
"64 -14 OFFCURVE",
"64 -68 CURVE SMOOTH",
"64 -150 OFFCURVE",
"142 -214 OFFCURVE",
"282 -214 CURVE SMOOTH"
);
},
{
closed = 1;
nodes = (
"392 162 OFFCURVE",
"474 236 OFFCURVE",
"474 342 CURVE SMOOTH",
"474 446 OFFCURVE",
"396 522 OFFCURVE",
"274 522 CURVE SMOOTH",
"158 522 OFFCURVE",
"76 450 OFFCURVE",
"76 344 CURVE SMOOTH",
"76 236 OFFCURVE",
"160 162 OFFCURVE",
"276 162 CURVE SMOOTH"
);
},
{
closed = 1;
nodes = (
"180 190 OFFCURVE",
"108 254 OFFCURVE",
"108 342 CURVE SMOOTH",
"108 432 OFFCURVE",
"180 494 OFFCURVE",
"274 494 CURVE SMOOTH",
"372 494 OFFCURVE",
"442 432 OFFCURVE",
"442 342 CURVE SMOOTH",
"442 254 OFFCURVE",
"372 190 OFFCURVE",
"274 190 CURVE SMOOTH"
);
},
{
closed = 1;
nodes = (
"456 470 OFFCURVE",
"490 488 OFFCURVE",
"530 506 CURVE",
"514 534 LINE",
"476 516 OFFCURVE",
"440 494 OFFCURVE",
"412 472 CURVE",
"426 446 LINE"
);
}
);
width = 586;
},
{
anchors = (
{
name = bottom;
position = "{300, -218}";
},
{
name = top;
position = "{290, 528}";
}
);
background = {
paths = (
{
closed = 1;
nodes = (
"462 430 LINE",
"472 446 LINE SMOOTH",
"488 471 OFFCURVE",
"532 475 OFFCURVE",
"586 472 CURVE",
"586 598 LINE",
"516 598 OFFCURVE",
"453 570 OFFCURVE",
"418 522 CURVE SMOOTH",
"382 474 LINE"
);
}
);
};
layerId = "2D8F7115-C311-411E-929D-56333CF7FFB2";
paths = (
{
closed = 1;
nodes = (
"490 -218 OFFCURVE",
"590 -152 OFFCURVE",
"590 -46 CURVE SMOOTH",
"590 50 OFFCURVE",
"514 98 OFFCURVE",
"412 96 CURVE SMOOTH",
"290 96 LINE SMOOTH",
"234 98 OFFCURVE",
"190 116 OFFCURVE",
"190 150 CURVE SMOOTH",
"190 170 OFFCURVE",
"202 184 OFFCURVE",
"216 190 CURVE",
"158 242 LINE",
"98 214 OFFCURVE",
"76 150 OFFCURVE",
"76 114 CURVE SMOOTH",
"76 36 OFFCURVE",
"172 -8 OFFCURVE",
"306 -8 CURVE SMOOTH",
"366 -8 LINE SMOOTH",
"404 -8 OFFCURVE",
"430 -24 OFFCURVE",
"430 -46 CURVE SMOOTH",
"430 -74 OFFCURVE",
"382 -92 OFFCURVE",
"310 -92 CURVE SMOOTH",
"238 -92 OFFCURVE",
"162 -74 OFFCURVE",
"162 -32 CURVE SMOOTH",
"162 -8 OFFCURVE",
"184 16 OFFCURVE",
"212 24 CURVE",
"116 58 LINE",
"64 44 OFFCURVE",
"26 -14 OFFCURVE",
"24 -70 CURVE SMOOTH",
"26 -160 OFFCURVE",
"124 -218 OFFCURVE",
"300 -218 CURVE SMOOTH"
);
},
{
closed = 1;
nodes = (
"424 150 OFFCURVE",
"520 232 OFFCURVE",
"520 344 CURVE SMOOTH",
"520 456 OFFCURVE",
"422 536 OFFCURVE",
"288 536 CURVE SMOOTH",
"158 536 OFFCURVE",
"62 460 OFFCURVE",
"62 350 CURVE SMOOTH",
"62 236 OFFCURVE",
"162 150 OFFCURVE",
"294 150 CURVE SMOOTH"
);
},
{
closed = 1;
nodes = (
"246 266 OFFCURVE",
"210 298 OFFCURVE",
"210 342 CURVE SMOOTH",
"210 382 OFFCURVE",
"246 416 OFFCURVE",
"290 416 CURVE SMOOTH",
"338 416 OFFCURVE",
"372 382 OFFCURVE",
"372 340 CURVE SMOOTH",
"372 298 OFFCURVE",
"340 266 OFFCURVE",
"292 266 CURVE SMOOTH"
);
},
{
closed = 1;
nodes = (
"516 452 OFFCURVE",
"532 458 OFFCURVE",
"596 458 CURVE",
"564 582 LINE",
"514 568 OFFCURVE",
"472 552 OFFCURVE",
"394 492 CURVE",
"466 434 LINE"
);
}
);
width = 606;
},
{
anchors = (
{
name = bottom;
position = "{294, -216}";
},
{
name = top;
position = "{290, 520}";
}
);
associatedMasterId = "AB099EFE-E788-4EFC-8633-CF147CB782A6";
background = {
paths = (
{
closed = 1;
nodes = (
"487 509 OFFCURVE",
"504 512 OFFCURVE",
"520 516 CURVE",
"518 588 LINE",
"489 583 OFFCURVE",
"465 577 OFFCURVE",
"442 566 CURVE",
"420 553 OFFCURVE",
"403 541 OFFCURVE",
"388 528 CURVE",
"374 504 LINE",
"347 512 OFFCURVE",
"319 520 OFFCURVE",
"288 518 CURVE",
"250 520 OFFCURVE",
"217 512 OFFCURVE",
"188 498 CURVE",
"158 482 OFFCURVE",
"135 462 OFFCURVE",
"120 436 CURVE",
"102 412 OFFCURVE",
"92 383 OFFCURVE",
"92 350 CURVE",
"92 317 OFFCURVE",
"102 288 OFFCURVE",
"120 262 CURVE",
"125 250 OFFCURVE",
"133 242 OFFCURVE",
"142 234 CURVE",
"137 225 OFFCURVE",
"132 220 OFFCURVE",
"128 214 CURVE",
"115 192 OFFCURVE",
"109 171 OFFCURVE",
"108 146 CURVE",
"109 122 OFFCURVE",
"116 100 OFFCURVE",
"130 78 CURVE",
"128 78 OFFCURVE",
"128 78 OFFCURVE",
"130 78 CURVE",
"113 66 OFFCURVE",
"100 51 OFFCURVE",
"90 32 CURVE",
"74 7 OFFCURVE",
"67 -18 OFFCURVE",
"66 -48 CURVE",
"67 -78 OFFCURVE",
"77 -107 OFFCURVE",
"94 -132 CURVE",
"115 -156 OFFCURVE",
"143 -178 OFFCURVE",
"178 -192 CURVE",
"213 -206 OFFCURVE",
"252 -213 OFFCURVE",
"294 -214 CURVE",
"341 -213 OFFCURVE",
"384 -206 OFFCURVE",
"422 -192 CURVE",
"458 -178 OFFCURVE",
"488 -157 OFFCURVE",
"510 -132 CURVE",
"531 -106 OFFCURVE",
"543 -75 OFFCURVE",
"544 -40 CURVE",
"543 -4 OFFCURVE",
"531 24 OFFCURVE",
"512 44 CURVE",
"489 60 OFFCURVE",
"465 73 OFFCURVE",
"438 78 CURVE",
"411 83 OFFCURVE",
"381 86 OFFCURVE",
"348 86 CURVE",
"286 86 LINE",
"252 86 OFFCURVE",
"227 92 OFFCURVE",
"212 104 CURVE",
"198 118 OFFCURVE",
"190 134 OFFCURVE",
"190 152 CURVE",
"190 168 OFFCURVE",
"195 182 OFFCURVE",
"204 194 CURVE",
"229 182 OFFCURVE",
"258 177 OFFCURVE",
"290 176 CURVE",
"326 177 OFFCURVE",
"360 184 OFFCURVE",
"388 198 CURVE",
"417 214 OFFCURVE",
"440 234 OFFCURVE",
"458 262 CURVE",
"473 287 OFFCURVE",
"481 317 OFFCURVE",
"480 348 CURVE",
"481 382 OFFCURVE",
"473 411 OFFCURVE",
"456 436 CURVE",
"450 447 OFFCURVE",
"442 456 OFFCURVE",
"434 464 CURVE",
"438 470 LINE",
"446 482 OFFCURVE",
"458 492 OFFCURVE",
"470 502 CURVE"
);
},
{
closed = 1;
nodes = (
"348 8 LINE",
"376 9 OFFCURVE",
"402 5 OFFCURVE",
"424 -2 CURVE",
"443 -8 OFFCURVE",
"454 -26 OFFCURVE",
"454 -50 CURVE",
"454 -66 OFFCURVE",
"447 -82 OFFCURVE",
"432 -96 CURVE",
"416 -109 OFFCURVE",
"397 -119 OFFCURVE",
"374 -126 CURVE",
"349 -133 OFFCURVE",
"324 -136 OFFCURVE",
"296 -138 CURVE",
"255 -136 OFFCURVE",
"219 -127 OFFCURVE",
"190 -110 CURVE",
"163 -92 OFFCURVE",
"150 -71 OFFCURVE",
"148 -48 CURVE",
"150 -29 OFFCURVE",
"155 -11 OFFCURVE",
"168 6 CURVE",
"174 14 OFFCURVE",
"180 23 OFFCURVE",
"188 28 CURVE",
"187 29 OFFCURVE",
"187 28 OFFCURVE",
"190 28 CURVE",
"215 14 OFFCURVE",
"247 9 OFFCURVE",
"288 8 CURVE"
);
},
{
closed = 1;
nodes = (
"347 261 OFFCURVE",
"321 251 OFFCURVE",
"290 250 CURVE",
"256 252 OFFCURVE",
"228 261 OFFCURVE",
"208 282 CURVE",
"186 297 OFFCURVE",
"176 321 OFFCURVE",
"176 350 CURVE",
"176 379 OFFCURVE",
"186 403 OFFCURVE",
"208 422 CURVE",
"227 438 OFFCURVE",
"255 447 OFFCURVE",
"288 448 CURVE",
"320 447 OFFCURVE",
"346 437 OFFCURVE",
"368 422 CURVE",
"388 402 OFFCURVE",
"399 378 OFFCURVE",
"400 348 CURVE",
"399 321 OFFCURVE",
"388 297 OFFCURVE",
"368 282 CURVE"
);
},
{
closed = 1;
nodes = (
"444 454 LINE",
"458 474 LINE SMOOTH",
"473 495 OFFCURVE",
"506 508 OFFCURVE",
"558 508 CURVE",
"558 584 LINE",
"499 584 OFFCURVE",
"442 565 OFFCURVE",
"416 528 CURVE SMOOTH",
"392 490 LINE"
);
}
);
};
layerId = "D548E82C-F1D5-44DE-B786-3582CB4D3885";
name = "Half {450}";
paths = (
{
closed = 1;
nodes = (
"456 -216 OFFCURVE",
"556 -140 OFFCURVE",
"558 -46 CURVE SMOOTH",
"560 36 OFFCURVE",
"492 88 OFFCURVE",
"398 88 CURVE SMOOTH",
"280 88 LINE SMOOTH",
"244 88 OFFCURVE",
"188 94 OFFCURVE",
"188 144 CURVE SMOOTH",
"188 166 OFFCURVE",
"198 178 OFFCURVE",
"218 192 CURVE",
"162 238 LINE",
"122 212 OFFCURVE",
"100 180 OFFCURVE",
"100 140 CURVE SMOOTH",
"100 80 OFFCURVE",
"154 2 OFFCURVE",
"292 2 CURVE SMOOTH",
"360 2 LINE SMOOTH",
"410 2 OFFCURVE",
"454 -4 OFFCURVE",
"454 -44 CURVE SMOOTH",
"454 -90 OFFCURVE",
"390 -126 OFFCURVE",
"296 -126 CURVE SMOOTH",
"220 -126 OFFCURVE",
"150 -102 OFFCURVE",
"150 -46 CURVE SMOOTH",
"150 -8 OFFCURVE",
"182 16 OFFCURVE",
"214 26 CURVE",
"136 66 LINE",
"86 42 OFFCURVE",
"54 -5 OFFCURVE",
"54 -54 CURVE SMOOTH",
"54 -154 OFFCURVE",
"156 -216 OFFCURVE",
"298 -216 CURVE SMOOTH"
);
},
{
closed = 1;
nodes = (
"412 158 OFFCURVE",
"498 238 OFFCURVE",
"498 344 CURVE SMOOTH",
"498 452 OFFCURVE",
"408 528 OFFCURVE",
"292 528 CURVE SMOOTH",
"174 528 OFFCURVE",
"82 452 OFFCURVE",
"82 344 CURVE SMOOTH",
"82 236 OFFCURVE",
"176 158 OFFCURVE",
"294 158 CURVE SMOOTH"
);
},
{
closed = 1;
nodes = (
"232 244 OFFCURVE",
"182 286 OFFCURVE",
"182 342 CURVE SMOOTH",
"182 396 OFFCURVE",
"230 440 OFFCURVE",
"294 440 CURVE SMOOTH",
"346 440 OFFCURVE",
"396 410 OFFCURVE",
"396 344 CURVE SMOOTH",
"396 284 OFFCURVE",
"356 244 OFFCURVE",
"294 244 CURVE SMOOTH"
);
},
{
closed = 1;
nodes = (
"488 454 OFFCURVE",
"514 468 OFFCURVE",
"564 476 CURVE",
"522 566 LINE",
"478 548 OFFCURVE",
"436 526 OFFCURVE",
"384 490 CURVE",
"446 436 LINE"
);
}
);
width = 596;
}
);
leftKerningGroup = LAT_G_LC;
rightKerningGroup = LAT_G_LC;
},
{
glyphname = h;
lastChange = "2020-05-19 00:33:35 +0000";
layers = (
{
anchors = (
{
name = bottom;
position = "{272, 0}";
},
{
name = center;
position = "{96, 616}";
},
{
name = top;
position = "{98, 720}";
}
);
layerId = "AB099EFE-E788-4EFC-8633-CF147CB782A6";
paths = (
{
closed = 1;
nodes = (
"110 0 LINE",
"110 326 LINE SMOOTH",
"110 418 OFFCURVE",
"198 492 OFFCURVE",
"282 492 CURVE SMOOTH",
"418 492 OFFCURVE",
"432 386 OFFCURVE",
"432 306 CURVE SMOOTH",
"432 0 LINE",
"462 0 LINE",
"462 314 LINE SMOOTH",
"462 440 OFFCURVE",
"408 520 OFFCURVE",
"288 520 CURVE SMOOTH",
"201 520 OFFCURVE",
"128 469 OFFCURVE",
"102 402 CURVE",
"124 420 LINE",
"110 420 LINE",
"110 752 LINE",
"80 752 LINE",
"80 0 LINE"
);
}
);
width = 538;
},
{
anchors = (
{
name = bottom;
position = "{316, 0}";
},
{
name = center;
position = "{154, 634}";
},
{
name = top;
position = "{154, 752}";
}
);
background = {
paths = (
{
closed = 1;
nodes = (
"566 0 LINE",
"566 340 LINE SMOOTH",
"566 470 OFFCURVE",
"506 536 OFFCURVE",
"398 536 CURVE SMOOTH",
"310 536 OFFCURVE",
"222 490 OFFCURVE",
"208 426 CURVE",
"232 308 LINE",
"240 342 OFFCURVE",
"288 396 OFFCURVE",
"340 394 CURVE SMOOTH",
"390 396 OFFCURVE",
"390 338 OFFCURVE",
"390 290 CURVE SMOOTH",
"390 0 LINE"
);
}
);
};
layerId = "2D8F7115-C311-411E-929D-56333CF7FFB2";
paths = (
{
closed = 1;
nodes = (
"242 0 LINE",
"242 308 LINE SMOOTH",
"242 364 OFFCURVE",
"276 394 OFFCURVE",
"320 394 CURVE SMOOTH",
"364 394 OFFCURVE",
"392 366 OFFCURVE",
"392 310 CURVE SMOOTH",
"392 0 LINE",
"566 0 LINE",
"566 348 LINE SMOOTH",
"566 464 OFFCURVE",
"500 536 OFFCURVE",
"390 536 CURVE SMOOTH",
"312 536 OFFCURVE",
"230 500 OFFCURVE",
"214 424 CURVE",
"254 480 LINE",
"242 480 LINE",
"242 752 LINE",
"68 752 LINE",
"68 0 LINE"
);
}
);
width = 622;
},
{
anchors = (
{
name = bottom;
position = "{292, 0}";
},
{
name = center;
position = "{126, 624}";
},
{
name = top;
position = "{122, 752}";
}
);
associatedMasterId = "AB099EFE-E788-4EFC-8633-CF147CB782A6";
background = {
paths = (
{
closed = 1;
nodes = (
"512 0 LINE",
"512 332 LINE SMOOTH",
"512 415 OFFCURVE",
"477 528 OFFCURVE",
"340 528 CURVE SMOOTH",
"264 528 OFFCURVE",
"192 496 OFFCURVE",
"154 432 CURVE",
"156 306 LINE",
"193 388 OFFCURVE",
"255 438 OFFCURVE",
"316 438 CURVE SMOOTH",
"409 438 OFFCURVE",
"410 349 OFFCURVE",
"410 304 CURVE SMOOTH",
"410 0 LINE"
);
}
);
};
layerId = "39EFB1E4-533D-4678-8F1E-E84D7E2E78D0";
name = "Half {450}";
paths = (
{
closed = 1;
nodes = (
"174 0 LINE",
"174 310 LINE SMOOTH",
"174 394 OFFCURVE",
"230 436 OFFCURVE",
"298 436 CURVE SMOOTH",
"368 436 OFFCURVE",
"410 392 OFFCURVE",
"410 310 CURVE SMOOTH",
"410 0 LINE",
"512 0 LINE",
"512 332 LINE SMOOTH",
"512 414 OFFCURVE",
"470 528 OFFCURVE",
"326 528 CURVE SMOOTH",
"248 528 OFFCURVE",
"180 496 OFFCURVE",
"152 426 CURVE",
"196 466 LINE",
"174 466 LINE",
"174 752 LINE",
"72 752 LINE",
"72 0 LINE"
);
}
);
width = 576;
}
);
leftKerningGroup = LAT_H_UC;
rightKerningGroup = LAT_N_LC;
rightMetricsKey = n;
unicode = 0068;
},
{
glyphname = idotless;
lastChange = "2020-05-15 06:27:13 +0000";
layers = (
{
anchors = (
{
name = bottom;
position = "{96, 0}";
},
{
name = ogonek;
position = "{66, 0}";
},
{
name = top;
position = "{98, 512}";
}
);
layerId = "AB099EFE-E788-4EFC-8633-CF147CB782A6";
paths = (
{
closed = 1;
nodes = (
"114 0 LINE",
"114 512 LINE",
"84 512 LINE",
"84 0 LINE"
);
}
);
width = 196;
},
{
anchors = (
{
name = bottom;
position = "{150, 0}";
},
{
name = ogonek;
position = "{164, 0}";
},
{
name = top;
position = "{150, 528}";
}
);
guideLines = (
{
angle = 60;
position = "{204, 0}";
}
);
layerId = "2D8F7115-C311-411E-929D-56333CF7FFB2";
paths = (
{
closed = 1;
nodes = (
"236 0 LINE",
"236 528 LINE",
"62 528 LINE",
"62 0 LINE"
);
}
);
width = 298;
},
{
anchors = (
{
name = bottom;
position = "{124, 0}";
},
{
name = ogonek;
position = "{128, 0}";
},
{
name = top;
position = "{124, 520}";
}
);
associatedMasterId = "AB099EFE-E788-4EFC-8633-CF147CB782A6";
layerId = "AE9AEE94-C3D5-4AA6-8DA1-95250520065B";
name = "Half {450}";
paths = (
{
closed = 1;
nodes = (
"174 0 LINE",
"174 520 LINE",
"72 520 LINE",
"72 0 LINE"
);
}
);
width = 246;
}
);
unicode = 0131;
},
{
color = 8;
glyphname = idotless.ss05;
lastChange = "2020-05-17 05:12:42 +0000";
layers = (
{
anchors = (
{
name = bottom;
position = "{140, 0}";
},
{
name = center;
position = "{106, 278}";
},
{
name = ogonek;
position = "{164, 0}";
},
{
name = top;
position = "{106, 512}";
}
);
guideLines = (
{
angle = 80;
position = "{178, -8}";
}
);
layerId = "AB099EFE-E788-4EFC-8633-CF147CB782A6";
paths = (
{
closed = 1;
nodes = (
"184 -4 OFFCURVE",
"198 -2 OFFCURVE",
"222 6 CURVE",
"216 34 LINE",
"208 30 OFFCURVE",
"188 24 OFFCURVE",
"172 24 CURVE SMOOTH",
"122 24 OFFCURVE",
"120 78 OFFCURVE",
"120 122 CURVE SMOOTH",
"120 512 LINE",
"90 512 LINE",
"90 120 LINE SMOOTH",
"90 66 OFFCURVE",
"90 -4 OFFCURVE",
"170 -4 CURVE SMOOTH"
);
}
);
width = 242;
},
{
anchors = (
{
name = bottom;
position = "{164, 0}";
},
{
name = center;
position = "{152, 278}";
},
{
name = ogonek;
position = "{202, 0}";
},
{
name = top;
position = "{152, 528}";
}
);
guideLines = (
{
angle = 80;
position = "{272, -8}";
}
);
layerId = "2D8F7115-C311-411E-929D-56333CF7FFB2";
paths = (
{
closed = 1;
nodes = (
"244 -8 OFFCURVE",
"288 -4 OFFCURVE",
"314 8 CURVE",
"292 142 LINE",
"284 138 OFFCURVE",
"276 136 OFFCURVE",
"268 136 CURVE SMOOTH",
"236 136 OFFCURVE",
"236 154 OFFCURVE",
"236 174 CURVE SMOOTH",
"236 528 LINE",
"62 528 LINE",
"62 124 LINE SMOOTH",
"62 42 OFFCURVE",
"116 -8 OFFCURVE",
"214 -8 CURVE SMOOTH"
);
}
);
width = 330;
},
{
anchors = (
{
name = bottom;
position = "{154, 0}";
},
{
name = center;
position = "{134, 278}";
},
{
name = ogonek;
position = "{202, 0}";
},
{
name = top;
position = "{138, 520}";
}
);
associatedMasterId = "AB099EFE-E788-4EFC-8633-CF147CB782A6";
guideLines = (
{
angle = 80;
position = "{180, -8}";
}
);
layerId = "FCE0932C-1120-48E4-95DD-8C2B49BF8D66";
name = "Half {450}";
paths = (
{
closed = 1;
nodes = (
"218 -8 OFFCURVE",
"252 -4 OFFCURVE",
"276 4 CURVE",
"258 92 LINE",
"248 88 OFFCURVE",
"236 86 OFFCURVE",
"226 86 CURVE SMOOTH",
"184 86 OFFCURVE",
"184 122 OFFCURVE",
"184 150 CURVE SMOOTH",
"184 520 LINE",
"82 520 LINE",
"82 138 LINE SMOOTH",
"82 50 OFFCURVE",
"122 -8 OFFCURVE",
"198 -8 CURVE SMOOTH"
);
}
);
width = 296;
}
);
},
{
glyphname = jdotless;
lastChange = "2020-05-16 07:11:53 +0000";
layers = (
{
anchors = (
{
name = center;
position = "{126, 278}";
},
{
name = top;
position = "{126, 512}";
}
);
layerId = "AB099EFE-E788-4EFC-8633-CF147CB782A6";
paths = (
{
closed = 1;
nodes = (
"102 -214 OFFCURVE",
"140 -150 OFFCURVE",
"140 -68 CURVE SMOOTH",
"140 512 LINE",
"110 512 LINE",
"110 -74 LINE SMOOTH",
"110 -132 OFFCURVE",
"82 -184 OFFCURVE",
"14 -184 CURVE SMOOTH",
"0 -184 OFFCURVE",
"-16 -182 OFFCURVE",
"-30 -176 CURVE",
"-38 -206 LINE",
"-22 -212 OFFCURVE",
"0 -214 OFFCURVE",
"16 -214 CURVE SMOOTH"
);
}
);
width = 226;
},
{
anchors = (
{
name = center;
position = "{168, 278}";
},
{
name = top;
position = "{166, 528}";
}
);
layerId = "2D8F7115-C311-411E-929D-56333CF7FFB2";
paths = (
{
closed = 1;
nodes = (
"190 -218 OFFCURVE",
"256 -128 OFFCURVE",
"254 -6 CURVE SMOOTH",
"254 528 LINE",
"80 528 LINE",
"80 -18 LINE SMOOTH",
"80 -44 OFFCURVE",
"66 -64 OFFCURVE",
"26 -64 CURVE SMOOTH",
"10 -64 OFFCURVE",
"-14 -60 OFFCURVE",
"-30 -52 CURVE",
"-54 -202 LINE",
"-26 -212 OFFCURVE",
"18 -218 OFFCURVE",
"54 -218 CURVE SMOOTH"
);
}
);
width = 316;
},
{
anchors = (
{
name = center;
position = "{148, 278}";
},
{
name = top;
position = "{146, 520}";
}
);
associatedMasterId = "AB099EFE-E788-4EFC-8633-CF147CB782A6";
layerId = "07B42797-D86D-41F2-ABBA-4C41B9928AA5";
name = "{450}";
paths = (
{
closed = 1;
nodes = (
"148 -216 OFFCURVE",
"198 -150 OFFCURVE",
"198 -62 CURVE SMOOTH",
"198 520 LINE",
"94 520 LINE",
"94 -50 LINE SMOOTH",
"94 -98 OFFCURVE",
"70 -120 OFFCURVE",
"30 -120 CURVE SMOOTH",
"12 -120 OFFCURVE",
"-4 -116 OFFCURVE",
"-22 -108 CURVE",
"-36 -204 LINE",
"-18 -212 OFFCURVE",
"8 -216 OFFCURVE",
"36 -216 CURVE SMOOTH"
);
}
);
width = 272;
}
);
leftKerningGroup = LAT_J_LC;
rightKerningGroup = LAT_J_LC;
unicode = 0237;
},
{
glyphname = k;
lastChange = "2020-05-16 07:19:52 +0000";
layers = (
{
anchors = (
{
name = bottom;
position = "{252, 0}";
},
{
name = top;
position = "{94, 752}";
}
);
layerId = "AB099EFE-E788-4EFC-8633-CF147CB782A6";
paths = (
{
closed = 1;
nodes = (
"110 0 LINE",
"110 246 LINE",
"152 246 LINE",
"128 258 LINE",
"400 0 LINE",
"442 0 LINE",
"158 270 LINE",
"158 252 LINE",
"424 512 LINE",
"380 512 LINE",
"128 264 LINE",
"152 276 LINE",
"110 276 LINE",
"110 752 LINE",
"80 752 LINE",
"80 0 LINE"
);
}
);
width = 476;
},
{
anchors = (
{
name = bottom;
position = "{324, 0}";
},
{
name = top;
position = "{156, 752}";
}
);
layerId = "2D8F7115-C311-411E-929D-56333CF7FFB2";
paths = (
{
closed = 1;
nodes = (
"242 0 LINE",
"242 222 LINE",
"278 222 LINE",
"224 248 LINE",
"412 0 LINE",
"614 0 LINE",
"352 326 LINE",
"352 226 LINE",
"604 528 LINE",
"398 528 LINE",
"224 296 LINE",
"278 322 LINE",
"242 322 LINE",
"242 752 LINE",
"68 752 LINE",
"68 0 LINE"
);
}
);
width = 626;
},
{
anchors = (
{
name = bottom;
position = "{284, 0}";
},
{
name = top;
position = "{122, 752}";
}
);
associatedMasterId = "AB099EFE-E788-4EFC-8633-CF147CB782A6";
layerId = "747C743E-195A-40A8-87E1-D6A4F966DDB7";
name = "Half {450}";
paths = (
{
closed = 1;
nodes = (
"174 0 LINE",
"174 230 LINE",
"216 230 LINE",
"174 258 LINE",
"402 0 LINE",
"536 0 LINE",
"266 300 LINE",
"266 246 LINE",
"522 520 LINE",
"386 520 LINE",
"174 290 LINE",
"216 316 LINE",
"174 316 LINE",
"174 752 LINE",
"72 752 LINE",
"72 0 LINE"
);
}
);
width = 562;
}
);
leftKerningGroup = LAT_H_UC;
leftMetricsKey = h;
rightKerningGroup = LAT_K_LC;
unicode = 006B;
},
{
glyphname = kgreenlandic;
lastChange = "2020-05-16 03:01:21 +0000";
layers = (
{
anchors = (
{
name = bottom;
position = "{238, 0}";
},
{
name = top;
position = "{238, 512}";
}
);
layerId = "AB099EFE-E788-4EFC-8633-CF147CB782A6";
paths = (
{
closed = 1;
nodes = (
"110 0 LINE",
"110 246 LINE",
"150 246 LINE",
"126 258 LINE",
"398 0 LINE",
"440 0 LINE",
"156 270 LINE",
"156 252 LINE",
"422 512 LINE",
"378 512 LINE",
"126 264 LINE",
"150 276 LINE",
"110 276 LINE",
"110 512 LINE",
"80 512 LINE",
"80 0 LINE"
);
}
);
width = 474;
},
{
anchors = (
{
name = bottom;
position = "{306, 0}";
},
{
name = top;
position = "{306, 528}";
}
);
layerId = "2D8F7115-C311-411E-929D-56333CF7FFB2";
paths = (
{
closed = 1;
nodes = (
"234 0 LINE",
"234 222 LINE",
"270 222 LINE",
"216 248 LINE",
"404 0 LINE",
"606 0 LINE",
"344 326 LINE",
"344 226 LINE",
"596 528 LINE",
"390 528 LINE",
"216 296 LINE",
"270 322 LINE",
"234 322 LINE",
"234 528 LINE",
"60 528 LINE",
"60 0 LINE"
);
}
);
width = 618;
}
);
leftMetricsKey = n;
rightMetricsKey = k;
unicode = 0138;
},
{
glyphname = l;
lastChange = "2020-05-19 00:23:54 +0000";
layers = (
{
anchors = (
{
name = bottom;
position = "{134, 0}";
},
{
name = center;
position = "{96, 374}";
},
{
name = top;
position = "{96, 752}";
},
{
name = topright;
position = "{112, 752}";
}
);
background = {
components = (
{
name = l.ss01;
transform = "{1, 0, 0, 1, -14, 0}";
}
);
};
layerId = "AB099EFE-E788-4EFC-8633-CF147CB782A6";
paths = (
{
closed = 1;
nodes = (
"158 -4 OFFCURVE",
"172 -2 OFFCURVE",
"182 2 CURVE",
"182 32 LINE",
"176 28 OFFCURVE",
"162 24 OFFCURVE",
"148 24 CURVE SMOOTH",
"110 24 OFFCURVE",
"110 64 OFFCURVE",
"110 96 CURVE SMOOTH",
"110 752 LINE",
"80 752 LINE",
"80 92 LINE SMOOTH",
"80 22 OFFCURVE",
"102 -4 OFFCURVE",
"146 -4 CURVE SMOOTH"
);
}
);
width = 210;
},
{
anchors = (
{
name = bottom;
position = "{186, 0}";
},
{
name = center;
position = "{154, 394}";
},
{
name = top;
position = "{154, 754}";
},
{
name = topright;
position = "{242, 752}";
}
);
background = {
components = (
{
name = l.ss01;
}
);
};
guideLines = (
{
angle = 100;
position = "{316, -12}";
}
);
layerId = "2D8F7115-C311-411E-929D-56333CF7FFB2";
paths = (
{
closed = 1;
nodes = (
"246 -8 OFFCURVE",
"274 -2 OFFCURVE",
"296 6 CURVE",
"296 140 LINE",
"292 138 OFFCURVE",
"284 136 OFFCURVE",
"278 136 CURVE SMOOTH",
"250 136 OFFCURVE",
"242 158 OFFCURVE",
"242 174 CURVE SMOOTH",
"242 752 LINE",
"68 752 LINE",
"68 144 LINE SMOOTH",
"68 64 OFFCURVE",
"120 -8 OFFCURVE",
"210 -8 CURVE SMOOTH"
);
}
);
width = 328;
},
{
anchors = (
{
name = bottom;
position = "{174, 0}";
},
{
name = center;
position = "{126, 384}";
},
{
name = top;
position = "{124, 752}";
},
{
name = topright;
position = "{278, 752}";
}
);
associatedMasterId = "AB099EFE-E788-4EFC-8633-CF147CB782A6";
background = {
components = (
{
name = l.ss01;
transform = "{1, 0, 0, 1, -10, 0}";
}
);
};
layerId = "07F136B1-63E0-44F7-A7A8-9BD3A03A128C";
name = "Half {450}";
paths = (
{
closed = 1;
nodes = (
"200 -8 OFFCURVE",
"215 -8 OFFCURVE",
"232 -4 CURVE",
"232 86 LINE",
"222 84 OFFCURVE",
"213 84 OFFCURVE",
"206 84 CURVE SMOOTH",
"181 84 OFFCURVE",
"174 103 OFFCURVE",
"174 132 CURVE SMOOTH",
"174 752 LINE",
"72 752 LINE",
"72 138 LINE SMOOTH",
"72 49 OFFCURVE",
"107 -8 OFFCURVE",
"188 -8 CURVE SMOOTH"
);
}
);
width = 264;
}
);
leftKerningGroup = LAT_L_LC;
leftMetricsKey = h;
rightKerningGroup = LAT_L_LC;
unicode = 006C;
},
{
color = 4;
glyphname = l.ss01;
lastChange = "2020-05-15 05:42:13 +0000";
layers = (
{
anchors = (
{
name = bottom;
position = "{110, 0}";
},
{
name = center;
position = "{110, 358}";
},
{
name = dot;
position = "{232, 360}";
},
{
name = top;
position = "{108, 804}";
},
{
name = topright;
position = "{126, 752}";
}
);
layerId = "AB099EFE-E788-4EFC-8633-CF147CB782A6";
paths = (
{
closed = 1;
nodes = (
"126 0 LINE",
"126 752 LINE",
"94 752 LINE",
"94 0 LINE"
);
}
);
width = 220;
},
{
anchors = (
{
name = bottom;
position = "{158, 0}";
},
{
name = center;
position = "{158, 394}";
},
{
name = dot;
position = "{400, 400}";
},
{
name = top;
position = "{158, 752}";
},
{
name = topright;
position = "{246, 752}";
}
);
layerId = "2D8F7115-C311-411E-929D-56333CF7FFB2";
paths = (
{
closed = 1;
nodes = (
"246 0 LINE",
"246 752 LINE",
"70 752 LINE",
"70 0 LINE"
);
}
);
width = 316;
}
);
leftKerningGroup = LAT_H_UC;
rightKerningGroup = LAT_H_UC;
},
{
glyphname = m;
lastChange = "2020-05-19 01:38:24 +0000";
layers = (
{
anchors = (
{
name = bottom;
position = "{404, 0}";
},
{
name = leghookleft;
position = "{714, 0}";
},
{
name = top;
position = "{404, 512}";
}
);
background = {
paths = (
{
closed = 1;
nodes = (
"110 0 LINE",
"110 386 LINE",
"116 418 LINE",
"110 418 LINE",
"110 512 LINE",
"80 512 LINE",
"80 0 LINE"
);
},
{
closed = 1;
nodes = (
"420 0 LINE",
"420 336 LINE SMOOTH",
"420 466 OFFCURVE",
"356 520 OFFCURVE",
"274 520 CURVE SMOOTH",
"192 520 OFFCURVE",
"134 468 OFFCURVE",
"104 402 CURVE",
"104 354 LINE",
"136 420 OFFCURVE",
"188 492 OFFCURVE",
"274 492 CURVE SMOOTH",
"338 492 OFFCURVE",
"390 454 OFFCURVE",
"390 326 CURVE SMOOTH",
"390 0 LINE"
);
},
{
closed = 1;
nodes = (
"728 0 LINE",
"728 336 LINE SMOOTH",
"728 466 OFFCURVE",
"664 520 OFFCURVE",
"582 520 CURVE SMOOTH",
"500 520 OFFCURVE",
"438 462 OFFCURVE",
"406 398 CURVE",
"414 354 LINE",
"444 420 OFFCURVE",
"496 492 OFFCURVE",
"582 492 CURVE SMOOTH",
"646 492 OFFCURVE",
"698 454 OFFCURVE",
"698 326 CURVE SMOOTH",
"698 0 LINE"
);
}
);
};
guideLines = (
{
angle = 60;
position = "{126, 358}";
}
);
layerId = "AB099EFE-E788-4EFC-8633-CF147CB782A6";
paths = (
{
closed = 1;
nodes = (
"110 0 LINE",
"110 318 LINE SMOOTH",
"110 398 OFFCURVE",
"172 492 OFFCURVE",
"268 492 CURVE SMOOTH",
"328 492 OFFCURVE",
"390 454 OFFCURVE",
"390 332 CURVE SMOOTH",
"390 0 LINE",
"420 0 LINE",
"420 330 LINE SMOOTH",
"420 400 OFFCURVE",
"480 492 OFFCURVE",
"576 492 CURVE SMOOTH",
"640 492 OFFCURVE",
"698 454 OFFCURVE",
"698 326 CURVE SMOOTH",
"698 0 LINE",
"728 0 LINE",
"728 336 LINE SMOOTH",
"728 466 OFFCURVE",
"658 520 OFFCURVE",
"574 520 CURVE SMOOTH",
"482 520 OFFCURVE",
"428 456 OFFCURVE",
"410 404 CURVE",
"422 410 LINE",
"400 410 LINE",
"414 400 LINE",
"396 474 OFFCURVE",
"338 520 OFFCURVE",
"266 520 CURVE SMOOTH",
"188 520 OFFCURVE",
"134 468 OFFCURVE",
"104 402 CURVE",
"116 418 LINE",
"110 418 LINE",
"110 512 LINE",
"80 512 LINE",
"80 0 LINE"
);
}
);
width = 804;
},
{
anchors = (
{
name = bottom;
position = "{452, 0}";
},
{
name = leghookleft;
position = "{746, 0}";
},
{
name = top;
position = "{450, 528}";
}
);
background = {
paths = (
{
closed = 1;
nodes = (
"234 0 LINE",
"234 382 LINE",
"246 462 LINE",
"224 462 LINE",
"224 528 LINE",
"60 528 LINE",
"60 0 LINE"
);
},
{
closed = 1;
nodes = (
"534 0 LINE",
"534 330 LINE SMOOTH",
"534 408 OFFCURVE",
"512 536 OFFCURVE",
"374 536 CURVE SMOOTH",
"292 536 OFFCURVE",
"228 494 OFFCURVE",
"188 398 CURVE",
"202 308 LINE",
"220 342 OFFCURVE",
"264 396 OFFCURVE",
"310 394 CURVE SMOOTH",
"360 396 OFFCURVE",
"360 334 OFFCURVE",
"360 290 CURVE SMOOTH",
"360 0 LINE"
);
},
{
closed = 1;
nodes = (
"834 0 LINE",
"834 330 LINE SMOOTH",
"836 408 OFFCURVE",
"814 536 OFFCURVE",
"668 536 CURVE SMOOTH",
"580 536 OFFCURVE",
"512 488 OFFCURVE",
"478 398 CURVE",
"502 308 LINE",
"520 342 OFFCURVE",
"564 396 OFFCURVE",
"610 394 CURVE SMOOTH",
"660 396 OFFCURVE",
"660 334 OFFCURVE",
"660 290 CURVE SMOOTH",
"660 0 LINE"
);
}
);
};
layerId = "2D8F7115-C311-411E-929D-56333CF7FFB2";
paths = (
{
closed = 1;
nodes = (
"234 0 LINE",
"234 314 LINE SMOOTH",
"234 358 OFFCURVE",
"256 394 OFFCURVE",
"302 394 CURVE SMOOTH",
"352 394 OFFCURVE",
"360 362 OFFCURVE",
"360 314 CURVE SMOOTH",
"360 0 LINE",
"534 0 LINE",
"534 314 LINE SMOOTH",
"534 358 OFFCURVE",
"556 394 OFFCURVE",
"602 394 CURVE SMOOTH",
"652 394 OFFCURVE",
"660 362 OFFCURVE",
"660 314 CURVE SMOOTH",
"660 0 LINE",
"834 0 LINE",
"834 330 LINE SMOOTH",
"834 408 OFFCURVE",
"814 536 OFFCURVE",
"668 536 CURVE SMOOTH",
"594 536 OFFCURVE",
"532 502 OFFCURVE",
"500 438 CURVE",
"518 454 LINE",
"498 454 LINE",
"514 438 LINE",
"490 500 OFFCURVE",
"448 536 OFFCURVE",
"374 536 CURVE SMOOTH",
"292 536 OFFCURVE",
"230 494 OFFCURVE",
"190 398 CURVE",
"246 462 LINE",
"224 462 LINE",
"224 528 LINE",
"60 528 LINE",
"60 0 LINE"
);
}
);
width = 890;
},
{
anchors = (
{
name = bottom;
position = "{428, 0}";
},
{
name = leghookleft;
position = "{730, 0}";
},
{
name = top;
position = "{427, 520}";
}
);
associatedMasterId = "AB099EFE-E788-4EFC-8633-CF147CB782A6";
background = {
paths = (
{
closed = 1;
nodes = (
"170 0 LINE",
"170 404 LINE",
"182 454 LINE",
"162 454 LINE",
"162 520 LINE",
"68 520 LINE",
"68 0 LINE"
);
},
{
closed = 1;
nodes = (
"474 0 LINE",
"474 376 LINE SMOOTH",
"475 465 OFFCURVE",
"405 528 OFFCURVE",
"312 528 CURVE SMOOTH",
"243 528 OFFCURVE",
"177 483 OFFCURVE",
"144 426 CURVE",
"146 306 LINE",
"171 366 OFFCURVE",
"218 438 OFFCURVE",
"296 438 CURVE SMOOTH",
"370 438 OFFCURVE",
"372 376 OFFCURVE",
"372 304 CURVE SMOOTH",
"372 0 LINE"
);
},
{
closed = 1;
nodes = (
"780 0 LINE",
"780 376 LINE SMOOTH",
"779 465 OFFCURVE",
"711 528 OFFCURVE",
"620 528 CURVE SMOOTH",
"551 528 OFFCURVE",
"483 489 OFFCURVE",
"448 444 CURVE",
"450 306 LINE",
"475 366 OFFCURVE",
"522 438 OFFCURVE",
"600 438 CURVE SMOOTH",
"674 438 OFFCURVE",
"676 376 OFFCURVE",
"676 304 CURVE SMOOTH",
"676 0 LINE"
);
}
);
};
guideLines = (
{
angle = 60;
position = "{164, 446}";
},
{
angle = 60;
position = "{166, 350}";
}
);
layerId = "7C464084-DF0B-4897-9988-7D453C095C5A";
name = "Half {450}";
paths = (
{
closed = 1;
nodes = (
"170 0 LINE",
"170 310 LINE SMOOTH",
"170 394 OFFCURVE",
"218 436 OFFCURVE",
"276 436 CURVE SMOOTH",
"336 436 OFFCURVE",
"372 392 OFFCURVE",
"372 310 CURVE SMOOTH",
"372 0 LINE",
"474 0 LINE",
"474 310 LINE SMOOTH",
"474 394 OFFCURVE",
"522 436 OFFCURVE",
"580 436 CURVE SMOOTH",
"640 436 OFFCURVE",
"676 392 OFFCURVE",
"676 310 CURVE SMOOTH",
"676 0 LINE",
"780 0 LINE",
"780 334 LINE SMOOTH",
"780 438 OFFCURVE",
"736 528 OFFCURVE",
"616 528 CURVE SMOOTH",
"526 528 OFFCURVE",
"456 476 OFFCURVE",
"430 408 CURVE",
"482 446 LINE",
"416 446 LINE",
"462 408 LINE",
"444 474 OFFCURVE",
"398 528 OFFCURVE",
"316 528 CURVE SMOOTH",
"234 528 OFFCURVE",
"166 482 OFFCURVE",
"142 406 CURVE",
"190 462 LINE",
"170 462 LINE",
"170 520 LINE",
"68 520 LINE",
"68 0 LINE"
);
}
);
width = 844;
}
);
leftKerningGroup = LAT_N_LC;
leftMetricsKey = n;
rightKerningGroup = LAT_N_LC;
rightMetricsKey = n;
unicode = 006D;
},
{
glyphname = n;
lastChange = "2020-05-19 00:34:07 +0000";
layers = (
{
anchors = (
{
name = bottom;
position = "{282, 0}";
},
{
name = leghookleft;
position = "{96, 0}";
},
{
name = leghookretroflex;
position = "{448, 0}";
},
{
name = top;
position = "{284, 512}";
}
);
background = {
paths = (
{
closed = 1;
nodes = (
"110 0 LINE",
"110 386 LINE",
"116 412 LINE",
"110 412 LINE",
"110 512 LINE",
"80 512 LINE",
"80 0 LINE"
);
},
{
closed = 1;
nodes = (
"462 0 LINE",
"462 304 LINE SMOOTH",
"462 430 OFFCURVE",
"420 520 OFFCURVE",
"294 520 CURVE SMOOTH",
"214 520 OFFCURVE",
"140 470 OFFCURVE",
"102 396 CURVE",
"108 356 LINE",
"148 436 OFFCURVE",
"220 492 OFFCURVE",
"292 492 CURVE SMOOTH",
"430 492 OFFCURVE",
"432 354 OFFCURVE",
"432 258 CURVE SMOOTH",
"432 0 LINE"
);
}
);
};
layerId = "AB099EFE-E788-4EFC-8633-CF147CB782A6";
paths = (
{
closed = 1;
nodes = (
"110 0 LINE",
"110 326 LINE SMOOTH",
"110 418 OFFCURVE",
"198 492 OFFCURVE",
"282 492 CURVE SMOOTH",
"418 492 OFFCURVE",
"432 386 OFFCURVE",
"432 306 CURVE SMOOTH",
"432 0 LINE",
"462 0 LINE",
"462 314 LINE SMOOTH",
"462 440 OFFCURVE",
"408 520 OFFCURVE",
"288 520 CURVE SMOOTH",
"201 520 OFFCURVE",
"128 469 OFFCURVE",
"102 402 CURVE",
"124 420 LINE",
"110 420 LINE",
"110 512 LINE",
"80 512 LINE",
"80 0 LINE"
);
}
);
width = 538;
},
{
anchors = (
{
name = bottom;
position = "{306, 0}";
},
{
name = leghookleft;
position = "{146, 0}";
},
{
name = leghookretroflex;
position = "{470, 0}";
},
{
name = top;
position = "{324, 528}";
}
);
background = {
paths = (
{
closed = 1;
nodes = (
"234 0 LINE",
"234 382 LINE",
"246 456 LINE",
"228 456 LINE",
"228 528 LINE",
"60 528 LINE",
"60 0 LINE"
);
},
{
closed = 1;
nodes = (
"558 0 LINE",
"558 340 LINE SMOOTH",
"558 472 OFFCURVE",
"500 536 OFFCURVE",
"384 536 CURVE SMOOTH",
"308 536 OFFCURVE",
"214 482 OFFCURVE",
"200 398 CURVE",
"224 308 LINE",
"232 342 OFFCURVE",
"280 396 OFFCURVE",
"330 394 CURVE SMOOTH",
"382 396 OFFCURVE",
"384 338 OFFCURVE",
"384 290 CURVE SMOOTH",
"384 0 LINE"
);
}
);
};
layerId = "2D8F7115-C311-411E-929D-56333CF7FFB2";
paths = (
{
closed = 1;
nodes = (
"234 0 LINE",
"234 308 LINE SMOOTH",
"234 364 OFFCURVE",
"268 394 OFFCURVE",
"312 394 CURVE SMOOTH",
"356 394 OFFCURVE",
"384 366 OFFCURVE",
"384 310 CURVE SMOOTH",
"384 0 LINE",
"558 0 LINE",
"558 348 LINE SMOOTH",
"558 464 OFFCURVE",
"490 536 OFFCURVE",
"392 536 CURVE SMOOTH",
"304 536 OFFCURVE",
"224 488 OFFCURVE",
"206 398 CURVE",
"246 456 LINE",
"228 456 LINE",
"228 528 LINE",
"60 528 LINE",
"60 0 LINE"
);
}
);
width = 614;
},
{
anchors = (
{
name = bottom;
position = "{290, 0}";
},
{
name = leghookleft;
position = "{120, 0}";
},
{
name = leghookretroflex;
position = "{456, 0}";
},
{
name = top;
position = "{306, 520}";
}
);
associatedMasterId = "AB099EFE-E788-4EFC-8633-CF147CB782A6";
background = {
paths = (
{
closed = 1;
nodes = (
"170 0 LINE",
"170 404 LINE",
"192 450 LINE",
"170 450 LINE",
"170 520 LINE",
"68 520 LINE",
"68 0 LINE"
);
},
{
closed = 1;
nodes = (
"508 0 LINE",
"508 332 LINE SMOOTH",
"508 415 OFFCURVE",
"475 528 OFFCURVE",
"338 528 CURVE SMOOTH",
"262 528 OFFCURVE",
"188 488 OFFCURVE",
"150 420 CURVE",
"152 306 LINE",
"189 388 OFFCURVE",
"251 438 OFFCURVE",
"312 438 CURVE SMOOTH",
"405 438 OFFCURVE",
"406 349 OFFCURVE",
"406 304 CURVE SMOOTH",
"406 0 LINE"
);
}
);
};
layerId = "B3BA6D2D-8889-4E23-852D-A1E06A84ADF3";
name = "Half {450}";
paths = (
{
closed = 1;
nodes = (
"170 0 LINE",
"170 310 LINE SMOOTH",
"170 394 OFFCURVE",
"226 436 OFFCURVE",
"294 436 CURVE SMOOTH",
"364 436 OFFCURVE",
"406 392 OFFCURVE",
"406 310 CURVE SMOOTH",
"406 0 LINE",
"508 0 LINE",
"508 332 LINE SMOOTH",
"508 416 OFFCURVE",
"463 528 OFFCURVE",
"324 528 CURVE SMOOTH",
"244 528 OFFCURVE",
"176 490 OFFCURVE",
"148 422 CURVE",
"192 462 LINE",
"170 462 LINE",
"170 520 LINE",
"68 520 LINE",
"68 0 LINE"
);
}
);
width = 572;
}
);
leftKerningGroup = LAT_N_LC;
rightKerningGroup = LAT_N_LC;
unicode = 006E;
},
{
glyphname = o;
lastChange = "2020-05-19 00:55:05 +0000";
layers = (
{
anchors = (
{
name = bottom;
position = "{302, 0}";
},
{
name = center;
position = "{302, 256}";
},
{
name = horn;
position = "{416, 494}";
},
{
name = ogonek;
position = "{352, 12}";
},
{
name = top;
position = "{302, 512}";
},
{
name = topright;
position = "{588, 512}";
}
);
layerId = "AB099EFE-E788-4EFC-8633-CF147CB782A6";
paths = (
{
closed = 1;
nodes = (
"446 -8 OFFCURVE",
"548 106 OFFCURVE",
"548 256 CURVE SMOOTH",
"548 410 OFFCURVE",
"446 520 OFFCURVE",
"300 520 CURVE SMOOTH",
"154 520 OFFCURVE",
"52 410 OFFCURVE",
"52 256 CURVE SMOOTH",
"52 106 OFFCURVE",
"154 -8 OFFCURVE",
"300 -8 CURVE SMOOTH"
);
},
{
closed = 1;
nodes = (
"176 22 OFFCURVE",
"82 118 OFFCURVE",
"82 256 CURVE SMOOTH",
"82 396 OFFCURVE",
"176 492 OFFCURVE",
"300 492 CURVE SMOOTH",
"428 492 OFFCURVE",
"518 396 OFFCURVE",
"518 256 CURVE SMOOTH",
"518 118 OFFCURVE",
"428 22 OFFCURVE",
"300 20 CURVE SMOOTH"
);
}
);
width = 600;
},
{
anchors = (
{
name = bottom;
position = "{312, 0}";
},
{
name = center;
position = "{312, 264}";
},
{
name = horn;
position = "{460, 496}";
},
{
name = ogonek;
position = "{370, 14}";
},
{
name = top;
position = "{312, 528}";
},
{
name = topright;
position = "{594, 528}";
}
);
layerId = "2D8F7115-C311-411E-929D-56333CF7FFB2";
paths = (
{
closed = 1;
nodes = (
"468 -8 OFFCURVE",
"592 104 OFFCURVE",
"592 264 CURVE SMOOTH",
"592 424 OFFCURVE",
"468 536 OFFCURVE",
"312 536 CURVE SMOOTH",
"158 536 OFFCURVE",
"34 424 OFFCURVE",
"32 264 CURVE SMOOTH",
"34 104 OFFCURVE",
"158 -8 OFFCURVE",
"312 -8 CURVE SMOOTH"
);
},
{
closed = 1;
nodes = (
"247 136 OFFCURVE",
"196 189 OFFCURVE",
"196 264 CURVE SMOOTH",
"196 338 OFFCURVE",
"247 390 OFFCURVE",
"312 390 CURVE SMOOTH",
"377 390 OFFCURVE",
"428 338 OFFCURVE",
"428 264 CURVE SMOOTH",
"428 189 OFFCURVE",
"377 136 OFFCURVE",
"312 136 CURVE SMOOTH"
);
}
);
width = 624;
},
{
anchors = (
{
name = bottom;
position = "{294, 0}";
},
{
name = center;
position = "{294, 258}";
},
{
name = horn;
position = "{422, 512}";
},
{
name = ogonek;
position = "{348, 14}";
},
{
name = top;
position = "{294, 520}";
},
{
name = topright;
position = "{570, 520}";
}
);
associatedMasterId = "AB099EFE-E788-4EFC-8633-CF147CB782A6";
layerId = "51EC8CF4-9C29-420F-ACA7-DB790A9AB824";
name = "Half {450}";
paths = (
{
closed = 1;
nodes = (
"438 -8 OFFCURVE",
"548 101 OFFCURVE",
"548 262 CURVE SMOOTH",
"548 421 OFFCURVE",
"439 528 OFFCURVE",
"294 528 CURVE SMOOTH",
"149 528 OFFCURVE",
"40 421 OFFCURVE",
"40 262 CURVE SMOOTH",
"40 101 OFFCURVE",
"149 -8 OFFCURVE",
"294 -8 CURVE SMOOTH"
);
},
{
closed = 1;
nodes = (
"205 84 OFFCURVE",
"144 155 OFFCURVE",
"144 262 CURVE SMOOTH",
"144 367 OFFCURVE",
"207 436 OFFCURVE",
"294 436 CURVE SMOOTH",
"381 436 OFFCURVE",
"444 367 OFFCURVE",
"444 262 CURVE SMOOTH",
"444 155 OFFCURVE",
"380 84 OFFCURVE",
"294 84 CURVE SMOOTH"
);
}
);
width = 588;
}
);
leftKerningGroup = LAT_O_LC;
rightKerningGroup = LAT_O_LC;
unicode = 006F;
},
{
color = 4;
glyphname = o.ss01;
lastChange = "2020-05-18 08:40:43 +0000";
layers = (
{
anchors = (
{
name = bottom;
position = "{312, 0}";
},
{
name = center;
position = "{312, 256}";
},
{
name = horn;
position = "{434, 494}";
},
{
name = ogonek;
position = "{366, 12}";
},
{
name = top;
position = "{312, 512}";
},
{
name = topright;
position = "{616, 512}";
}
);
layerId = "AB099EFE-E788-4EFC-8633-CF147CB782A6";
paths = (
{
closed = 1;
nodes = (
"459 -8 OFFCURVE",
"576 110 OFFCURVE",
"576 258 CURVE SMOOTH",
"576 404 OFFCURVE",
"459 520 OFFCURVE",
"312 520 CURVE SMOOTH",
"165 520 OFFCURVE",
"48 404 OFFCURVE",
"48 258 CURVE SMOOTH",
"48 110 OFFCURVE",
"165 -8 OFFCURVE",
"312 -8 CURVE SMOOTH"
);
},
{
closed = 1;
nodes = (
"182 22 OFFCURVE",
"78 127 OFFCURVE",
"78 258 CURVE SMOOTH",
"78 388 OFFCURVE",
"182 492 OFFCURVE",
"312 492 CURVE SMOOTH",
"442 492 OFFCURVE",
"546 388 OFFCURVE",
"546 258 CURVE SMOOTH",
"546 125 OFFCURVE",
"442 20 OFFCURVE",
"312 20 CURVE SMOOTH"
);
}
);
width = 624;
},
{
anchors = (
{
name = bottom;
position = "{306, 0}";
},
{
name = center;
position = "{306, 264}";
},
{
name = horn;
position = "{460, 496}";
},
{
name = ogonek;
position = "{368, 14}";
},
{
name = top;
position = "{310, 528}";
},
{
name = topright;
position = "{604, 528}";
}
);
layerId = "2D8F7115-C311-411E-929D-56333CF7FFB2";
paths = (
{
closed = 1;
nodes = (
"464 -8 OFFCURVE",
"588 112 OFFCURVE",
"588 264 CURVE SMOOTH",
"588 416 OFFCURVE",
"464 536 OFFCURVE",
"308 536 CURVE SMOOTH",
"152 536 OFFCURVE",
"28 416 OFFCURVE",
"28 264 CURVE SMOOTH",
"28 112 OFFCURVE",
"152 -8 OFFCURVE",
"308 -8 CURVE SMOOTH"
);
},
{
closed = 1;
nodes = (
"243 140 OFFCURVE",
"192 195 OFFCURVE",
"192 264 CURVE SMOOTH",
"192 333 OFFCURVE",
"243 388 OFFCURVE",
"308 388 CURVE SMOOTH",
"373 388 OFFCURVE",
"424 335 OFFCURVE",
"424 268 CURVE SMOOTH",
"424 197 OFFCURVE",
"373 140 OFFCURVE",
"308 140 CURVE SMOOTH"
);
}
);
width = 616;
},
{
anchors = (
{
name = bottom;
position = "{308, 0}";
},
{
name = center;
position = "{308, 260}";
},
{
name = horn;
position = "{444, 496}";
},
{
name = ogonek;
position = "{364, 14}";
},
{
name = top;
position = "{308, 520}";
},
{
name = topright;
position = "{608, 520}";
}
);
associatedMasterId = "AB099EFE-E788-4EFC-8633-CF147CB782A6";
layerId = "51EC8CF4-9C29-420F-ACA7-DB790A9AB824";
name = "Half {450}";
paths = (
{
closed = 1;
nodes = (
"458 -8 OFFCURVE",
"580 112 OFFCURVE",
"580 262 CURVE SMOOTH",
"580 410 OFFCURVE",
"458 528 OFFCURVE",
"308 528 CURVE SMOOTH",
"156 528 OFFCURVE",
"36 410 OFFCURVE",
"36 262 CURVE SMOOTH",
"36 112 OFFCURVE",
"156 -8 OFFCURVE",
"308 -8 CURVE SMOOTH"
);
},
{
closed = 1;
nodes = (
"212 84 OFFCURVE",
"140 164 OFFCURVE",
"140 262 CURVE SMOOTH",
"140 358 OFFCURVE",
"212 436 OFFCURVE",
"308 436 CURVE SMOOTH",
"402 436 OFFCURVE",
"476 360 OFFCURVE",
"476 264 CURVE SMOOTH",
"476 164 OFFCURVE",
"402 84 OFFCURVE",
"308 84 CURVE SMOOTH"
);
}
);
width = 616;
}
);
leftKerningGroup = LAT_O_LC;
rightKerningGroup = LAT_O_LC;
},
{
glyphname = oe;
lastChange = "2020-05-17 05:07:44 +0000";
layers = (
{
anchors = (
{
name = top;
position = "{520, 550}";
}
);
background = {
components = (
{
name = o;
transform = "{0.92, 0, 0, 1, 4, 0}";
},
{
name = e;
transform = "{0.94033, 0, 0, 1, 428, 0}";
}
);
};
layerId = "AB099EFE-E788-4EFC-8633-CF147CB782A6";
paths = (
{
closed = 1;
nodes = (
"408 -8 OFFCURVE",
"510 104 OFFCURVE",
"510 256 CURVE SMOOTH",
"510 406 OFFCURVE",
"410 522 OFFCURVE",
"284 522 CURVE SMOOTH",
"154 522 OFFCURVE",
"52 400 OFFCURVE",
"52 256 CURVE SMOOTH",
"52 110 OFFCURVE",
"158 -8 OFFCURVE",
"284 -8 CURVE SMOOTH"
);
},
{
closed = 1;
nodes = (
"176 20 OFFCURVE",
"84 124 OFFCURVE",
"84 256 CURVE SMOOTH",
"84 386 OFFCURVE",
"174 494 OFFCURVE",
"286 494 CURVE SMOOTH",
"396 494 OFFCURVE",
"476 390 OFFCURVE",
"476 256 CURVE SMOOTH",
"476 122 OFFCURVE",
"396 20 OFFCURVE",
"286 20 CURVE SMOOTH"
);
},
{
closed = 1;
nodes = (
"762 -8 OFFCURVE",
"818 16 OFFCURVE",
"862 64 CURVE",
"844 86 LINE",
"804 46 OFFCURVE",
"760 20 OFFCURVE",
"698 20 CURVE SMOOTH",
"584 20 OFFCURVE",
"508 112 OFFCURVE",
"508 258 CURVE SMOOTH",
"510 406 OFFCURVE",
"582 492 OFFCURVE",
"688 492 CURVE SMOOTH",
"798 492 OFFCURVE",
"864 398 OFFCURVE",
"862 274 CURVE",
"500 274 LINE",
"500 246 LINE",
"892 246 LINE",
"894 260 OFFCURVE",
"894 270 OFFCURVE",
"894 276 CURVE SMOOTH",
"894 422 OFFCURVE",
"810 520 OFFCURVE",
"688 520 CURVE SMOOTH",
"568 520 OFFCURVE",
"478 428 OFFCURVE",
"478 260 CURVE SMOOTH",
"478 102 OFFCURVE",
"560 -8 OFFCURVE",
"696 -8 CURVE SMOOTH"
);
}
);
width = 944;
},
{
anchors = (
{
name = top;
position = "{476, 572}";
}
);
background = {
components = (
{
name = o;
transform = "{0.92, 0, 0, 1, 4, 0}";
},
{
name = e.archive;
transform = "{0.94033, 0, 0, 1, 368, 0}";
}
);
};
layerId = "2D8F7115-C311-411E-929D-56333CF7FFB2";
paths = (
{
closed = 1;
nodes = (
"444 -8 OFFCURVE",
"546 128 OFFCURVE",
"546 264 CURVE SMOOTH",
"546 398 OFFCURVE",
"444 536 OFFCURVE",
"292 536 CURVE SMOOTH",
"150 536 OFFCURVE",
"32 422 OFFCURVE",
"32 266 CURVE SMOOTH",
"32 110 OFFCURVE",
"150 -8 OFFCURVE",
"292 -8 CURVE SMOOTH"
);
},
{
closed = 1;
nodes = (
"234 134 OFFCURVE",
"192 186 OFFCURVE",
"192 264 CURVE SMOOTH",
"192 342 OFFCURVE",
"234 392 OFFCURVE",
"298 392 CURVE SMOOTH",
"360 392 OFFCURVE",
"402 342 OFFCURVE",
"402 264 CURVE SMOOTH",
"402 186 OFFCURVE",
"360 134 OFFCURVE",
"298 134 CURVE SMOOTH"
);
},
{
closed = 1;
nodes = (
"734 -8 OFFCURVE",
"808 10 OFFCURVE",
"852 40 CURVE",
"780 154 LINE",
"756 136 OFFCURVE",
"712 124 OFFCURVE",
"682 124 CURVE SMOOTH",
"626 124 OFFCURVE",
"538 146 OFFCURVE",
"538 272 CURVE SMOOTH",
"538 382 OFFCURVE",
"604 414 OFFCURVE",
"648 414 CURVE SMOOTH",
"708 414 OFFCURVE",
"746 370 OFFCURVE",
"746 312 CURVE",
"524 312 LINE",
"524 212 LINE",
"886 212 LINE",
"890 232 OFFCURVE",
"892 258 OFFCURVE",
"892 280 CURVE SMOOTH",
"892 470 OFFCURVE",
"764 536 OFFCURVE",
"662 536 CURVE SMOOTH",
"526 536 OFFCURVE",
"410 422 OFFCURVE",
"410 260 CURVE SMOOTH",
"410 104 OFFCURVE",
"516 -8 OFFCURVE",
"670 -8 CURVE SMOOTH"
);
}
);
width = 924;
},
{
anchors = (
{
name = top;
position = "{500, 558}";
}
);
associatedMasterId = "AB099EFE-E788-4EFC-8633-CF147CB782A6";
background = {
components = (
{
name = o;
transform = "{0.94, 0, 0, 1, 6, 0}";
},
{
name = e.archive;
transform = "{0.94033, 0, 0, 1, 398, 0}";
}
);
};
layerId = "AC77F9ED-8594-4DB0-8E42-55F87E192FDC";
name = "Half {450}";
paths = (
{
closed = 1;
nodes = (
"421 -8 OFFCURVE",
"522 105 OFFCURVE",
"522 258 CURVE SMOOTH",
"522 415 OFFCURVE",
"419 528 OFFCURVE",
"286 528 CURVE SMOOTH",
"154 528 OFFCURVE",
"45 417 OFFCURVE",
"44 262 CURVE SMOOTH",
"45 105 OFFCURVE",
"152 -8 OFFCURVE",
"288 -8 CURVE SMOOTH"
);
},
{
closed = 1;
nodes = (
"199 74 OFFCURVE",
"131 154 OFFCURVE",
"132 258 CURVE SMOOTH",
"131 366 OFFCURVE",
"199 446 OFFCURVE",
"288 446 CURVE SMOOTH",
"374 446 OFFCURVE",
"440 364 OFFCURVE",
"440 258 CURVE SMOOTH",
"440 156 OFFCURVE",
"374 74 OFFCURVE",
"288 74 CURVE SMOOTH"
);
},
{
closed = 1;
nodes = (
"758 -8 OFFCURVE",
"826 12 OFFCURVE",
"868 52 CURVE",
"818 130 LINE",
"788 98 OFFCURVE",
"740 80 OFFCURVE",
"688 80 CURVE SMOOTH",
"594 80 OFFCURVE",
"532 152 OFFCURVE",
"532 260 CURVE SMOOTH",
"532 370 OFFCURVE",
"590 442 OFFCURVE",
"672 442 CURVE SMOOTH",
"752 442 OFFCURVE",
"798 378 OFFCURVE",
"796 304 CURVE",
"512 304 LINE",
"512 222 LINE",
"886 222 LINE",
"886 226 OFFCURVE",
"890 252 OFFCURVE",
"890 284 CURVE SMOOTH",
"888 438 OFFCURVE",
"794 528 OFFCURVE",
"674 528 CURVE SMOOTH",
"542 528 OFFCURVE",
"442 420 OFFCURVE",
"442 260 CURVE SMOOTH",
"442 110 OFFCURVE",
"538 -8 OFFCURVE",
"684 -8 CURVE SMOOTH"
);
}
);
width = 934;
}
);
leftKerningGroup = LAT_O_LC;
leftMetricsKey = o;
rightKerningGroup = LAT_E_LC;
rightMetricsKey = e;
unicode = 0153;
},
{
glyphname = p;
lastChange = "2020-05-19 01:04:12 +0000";
layers = (
{
anchors = (
{
name = bottom;
position = "{96, -206}";
},
{
name = top;
position = "{296, 512}";
}
);
components = (
{
name = _part.bowl;
transform = "{1, 0, 0, 1, -6, 0}";
}
);
layerId = "AB099EFE-E788-4EFC-8633-CF147CB782A6";
paths = (
{
closed = 1;
nodes = (
"110 108 LINE",
"116 108 LINE",
"108 160 LINE",
"108 386 LINE",
"116 406 LINE",
"110 406 LINE",
"110 512 LINE",
"80 512 LINE",
"80 -206 LINE",
"110 -206 LINE"
);
}
);
width = 578;
},
{
anchors = (
{
name = bottom;
position = "{148, -206}";
},
{
name = top;
position = "{328, 528}";
}
);
components = (
{
name = _part.bowl;
transform = "{1, 0, 0, 1, -2, 0}";
}
);
layerId = "2D8F7115-C311-411E-929D-56333CF7FFB2";
paths = (
{
closed = 1;
nodes = (
"236 44 LINE",
"262 44 LINE",
"228 104 LINE",
"228 424 LINE",
"248 482 LINE",
"226 482 LINE",
"226 528 LINE",
"62 528 LINE",
"62 -206 LINE",
"236 -206 LINE"
);
}
);
width = 644;
},
{
anchors = (
{
name = bottom;
position = "{122, -206}";
},
{
name = top;
position = "{316, 520}";
}
);
associatedMasterId = "AB099EFE-E788-4EFC-8633-CF147CB782A6";
components = (
{
alignment = -1;
name = _part.bowl;
transform = "{1, 0, 0, 1, -4, 0}";
}
);
layerId = "AF74158E-455A-4DFD-A125-19750D17B1F5";
name = "Half {450}";
paths = (
{
closed = 1;
nodes = (
"170 60 LINE",
"188 60 LINE",
"164 94 LINE",
"164 406 LINE",
"184 460 LINE",
"170 460 LINE",
"170 520 LINE",
"68 520 LINE",
"68 -206 LINE",
"170 -206 LINE"
);
}
);
width = 604;
}
);
leftKerningGroup = LAT_P_LC;
rightKerningGroup = LAT_O_LC;
rightMetricsKey = o;
unicode = 0070;
},
{
color = 4;
glyphname = p.ss01;
lastChange = "2020-05-18 11:21:10 +0000";
layers = (
{
anchors = (
{
name = bottom;
position = "{98, -206}";
},
{
name = top;
position = "{298, 512}";
}
);
components = (
{
name = _part.bowl.ss01;
transform = "{1, 0, 0, 1, -4, 0}";
}
);
layerId = "AB099EFE-E788-4EFC-8633-CF147CB782A6";
paths = (
{
closed = 1;
nodes = (
"112 -206 LINE",
"112 118 LINE",
"118 118 LINE",
"110 148 LINE",
"110 380 LINE",
"122 396 LINE",
"112 396 LINE",
"112 512 LINE",
"82 512 LINE",
"82 -206 LINE"
);
}
);
width = 616;
},
{
anchors = (
{
name = bottom;
position = "{148, -206}";
},
{
name = top;
position = "{328, 528}";
}
);
components = (
{
name = _part.bowl.ss01;
transform = "{1, 0, 0, 1, -2, 0}";
}
);
layerId = "2D8F7115-C311-411E-929D-56333CF7FFB2";
paths = (
{
closed = 1;
nodes = (
"236 -208 LINE",
"236 52 LINE",
"248 52 LINE",
"228 134 LINE",
"228 418 LINE",
"248 472 LINE",
"226 472 LINE",
"226 528 LINE",
"62 528 LINE",
"62 -206 LINE"
);
}
);
width = 654;
},
{
anchors = (
{
name = bottom;
position = "{126, -206}";
},
{
name = top;
position = "{320, 520}";
}
);
associatedMasterId = "AB099EFE-E788-4EFC-8633-CF147CB782A6";
components = (
{
alignment = -1;
name = _part.bowl.ss01;
transform = "{1, 0, 0, 1, -2, 0}";
}
);
layerId = "AF74158E-455A-4DFD-A125-19750D17B1F5";
name = "Half {450}";
paths = (
{
closed = 1;
nodes = (
"174 -206 LINE",
"174 64 LINE",
"188 64 LINE",
"170 130 LINE",
"170 416 LINE",
"182 458 LINE",
"172 458 LINE",
"172 520 LINE",
"72 520 LINE",
"72 -206 LINE"
);
}
);
width = 642;
}
);
leftKerningGroup = LAT_P_LC;
rightKerningGroup = LAT_O_LC;
rightMetricsKey = o;
},
{
glyphname = thorn;
lastChange = "2020-05-19 01:05:43 +0000";
layers = (
{
anchors = (
{
name = bottom;
position = "{266, -24}";
},
{
name = top;
position = "{100, 804}";
}
);
components = (
{
name = _part.bowl;
transform = "{1, 0, 0, 1, -6, 0}";
}
);
layerId = "AB099EFE-E788-4EFC-8633-CF147CB782A6";
paths = (
{
closed = 1;
nodes = (
"110 108 LINE",
"116 108 LINE",
"108 160 LINE",
"108 386 LINE",
"116 406 LINE",
"110 406 LINE",
"110 752 LINE",
"80 752 LINE",
"80 -206 LINE",
"110 -206 LINE"
);
}
);
width = 578;
},
{
anchors = (
{
name = bottom;
position = "{312, -24}";
},
{
name = top;
position = "{158, 804}";
}
);
components = (
{
name = _part.bowl;
transform = "{1, 0, 0, 1, 4, 0}";
}
);
layerId = "2D8F7115-C311-411E-929D-56333CF7FFB2";
paths = (
{
closed = 1;
nodes = (
"242 44 LINE",
"268 44 LINE",
"234 104 LINE",
"234 424 LINE",
"254 482 LINE",
"232 482 LINE",
"232 752 LINE",
"68 752 LINE",
"68 -206 LINE",
"242 -206 LINE"
);
}
);
width = 650;
},
{
anchors = (
{
name = bottom;
position = "{290, -24}";
},
{
name = top;
position = "{130, 804}";
}
);
associatedMasterId = "AB099EFE-E788-4EFC-8633-CF147CB782A6";
components = (
{
alignment = -1;
name = _part.bowl;
}
);
layerId = "1ACFF9C7-557E-40E4-81BB-2F99C6EE3349";
name = "Half {450}";
paths = (
{
closed = 1;
nodes = (
"174 60 LINE",
"192 60 LINE",
"168 94 LINE",
"168 406 LINE",
"188 460 LINE",
"174 460 LINE",
"174 752 LINE",
"72 752 LINE",
"72 -206 LINE",
"174 -206 LINE"
);
}
);
width = 608;
}
);
leftKerningGroup = LAT_L_LC;
leftMetricsKey = h;
rightKerningGroup = LAT_O_LC;
rightMetricsKey = p;
unicode = 00FE;
},
{
glyphname = q;
lastChange = "2020-05-19 01:04:30 +0000";
layers = (
{
anchors = (
{
name = bottom;
position = "{484, -206}";
},
{
name = top;
position = "{274, 512}";
}
);
components = (
{
name = _part.bowl;
transform = "{-1, 0, 0, 1, 584, 0}";
}
);
layerId = "AB099EFE-E788-4EFC-8633-CF147CB782A6";
paths = (
{
closed = 1;
nodes = (
"546 -184 LINE",
"538 -180 LINE SMOOTH",
"516 -169 OFFCURVE",
"498 -142 OFFCURVE",
"498 -92 CURVE SMOOTH",
"498 512 LINE",
"468 512 LINE",
"468 406 LINE",
"466 406 LINE",
"470 382 LINE",
"470 144 LINE",
"460 110 LINE",
"468 110 LINE",
"468 -96 LINE SMOOTH",
"468 -156 OFFCURVE",
"490 -190 OFFCURVE",
"520 -208 CURVE SMOOTH",
"530 -214 LINE"
);
}
);
width = 582;
},
{
anchors = (
{
name = bottom;
position = "{490, -206}";
},
{
name = top;
position = "{274, 528}";
}
);
components = (
{
name = _part.bowl;
transform = "{-1, 0, 0, 1, 638, 0}";
}
);
layerId = "2D8F7115-C311-411E-929D-56333CF7FFB2";
paths = (
{
closed = 1;
nodes = (
"630 -76 LINE",
"614 -70 LINE SMOOTH",
"590 -61 OFFCURVE",
"576 -50 OFFCURVE",
"576 6 CURVE SMOOTH",
"576 528 LINE",
"412 528 LINE",
"412 480 LINE",
"396 480 LINE",
"408 418 LINE",
"408 84 LINE",
"378 46 LINE",
"402 46 LINE",
"402 -30 LINE SMOOTH",
"402 -108 OFFCURVE",
"438 -178 OFFCURVE",
"530 -212 CURVE SMOOTH",
"546 -218 LINE"
);
}
);
width = 638;
},
{
anchors = (
{
name = bottom;
position = "{494, -206}";
},
{
name = top;
position = "{276, 520}";
}
);
associatedMasterId = "AB099EFE-E788-4EFC-8633-CF147CB782A6";
components = (
{
alignment = -1;
name = _part.bowl;
transform = "{-1, 0, 0, 1, 608, 0}";
}
);
layerId = "71FC3BAB-2654-4618-A306-03265AF02326";
name = "Half {450}";
paths = (
{
closed = 1;
nodes = (
"586 -130 LINE",
"574 -124 LINE SMOOTH",
"545 -109 OFFCURVE",
"536 -86 OFFCURVE",
"536 -44 CURVE SMOOTH",
"536 520 LINE",
"436 520 LINE",
"436 458 LINE",
"410 458 LINE",
"440 402 LINE",
"440 104 LINE",
"420 62 LINE",
"434 62 LINE",
"434 -66 LINE SMOOTH",
"434 -138 OFFCURVE",
"471 -194 OFFCURVE",
"524 -212 CURVE SMOOTH",
"536 -216 LINE"
);
}
);
width = 612;
}
);
leftKerningGroup = LAT_O_LC;
leftMetricsKey = o;
rightKerningGroup = LAT_Q_LC;
unicode = 0071;
},
{
glyphname = r;
lastChange = "2020-05-18 23:54:12 +0000";
layers = (
{
anchors = (
{
name = bottom;
position = "{96, 0}";
},
{
name = top;
position = "{184, 512}";
}
);
layerId = "AB099EFE-E788-4EFC-8633-CF147CB782A6";
paths = (
{
closed = 1;
nodes = (
"110 0 LINE",
"110 314 LINE SMOOTH",
"110 418 OFFCURVE",
"218 492 OFFCURVE",
"286 492 CURVE SMOOTH",
"298 492 OFFCURVE",
"312 490 OFFCURVE",
"318 488 CURVE",
"322 516 LINE",
"314 518 OFFCURVE",
"304 520 OFFCURVE",
"290 520 CURVE SMOOTH",
"214 520 OFFCURVE",
"140 470 OFFCURVE",
"102 396 CURVE",
"116 412 LINE",
"110 412 LINE",
"110 512 LINE",
"80 512 LINE",
"80 0 LINE"
);
}
);
width = 334;
},
{
anchors = (
{
name = bottom;
position = "{148, 0}";
},
{
name = top;
position = "{228, 528}";
}
);
layerId = "2D8F7115-C311-411E-929D-56333CF7FFB2";
paths = (
{
closed = 1;
nodes = (
"234 0 LINE",
"234 286 LINE SMOOTH",
"234 340 OFFCURVE",
"280 370 OFFCURVE",
"338 370 CURVE SMOOTH",
"364 370 OFFCURVE",
"398 364 OFFCURVE",
"418 360 CURVE",
"436 532 LINE",
"424 534 OFFCURVE",
"412 536 OFFCURVE",
"398 536 CURVE SMOOTH",
"296 536 OFFCURVE",
"228 462 OFFCURVE",
"206 418 CURVE",
"238 456 LINE",
"228 456 LINE",
"228 528 LINE",
"60 528 LINE",
"60 0 LINE"
);
}
);
width = 448;
},
{
anchors = (
{
name = bottom;
position = "{122, 0}";
},
{
name = top;
position = "{206, 520}";
}
);
associatedMasterId = "AB099EFE-E788-4EFC-8633-CF147CB782A6";
layerId = "AE84A8BD-4857-43AC-97B6-848273A736C5";
name = "Half {450}";
paths = (
{
closed = 1;
nodes = (
"170 0 LINE",
"170 288 LINE SMOOTH",
"170 382 OFFCURVE",
"220 430 OFFCURVE",
"310 430 CURVE SMOOTH",
"336 430 OFFCURVE",
"358 426 OFFCURVE",
"366 424 CURVE",
"378 522 LINE",
"370 524 OFFCURVE",
"352 528 OFFCURVE",
"328 528 CURVE SMOOTH",
"250 528 OFFCURVE",
"194 488 OFFCURVE",
"160 442 CURVE",
"180 456 LINE",
"170 456 LINE",
"170 520 LINE",
"68 520 LINE",
"68 0 LINE"
);
}
);
width = 390;
}
);
leftKerningGroup = LAT_N_LC;
leftMetricsKey = n;
rightKerningGroup = LAT_R_LC;
unicode = 0072;
},
{
glyphname = s;
lastChange = "2020-05-18 08:00:56 +0000";
layers = (
{
anchors = (
{
name = bottom;
position = "{218, 0}";
},
{
name = cedilla;
position = "{224, 0}";
},
{
name = top;
position = "{216, 512}";
}
);
layerId = "AB099EFE-E788-4EFC-8633-CF147CB782A6";
paths = (
{
closed = 1;
nodes = (
"306 -8 OFFCURVE",
"380 48 OFFCURVE",
"380 134 CURVE SMOOTH",
"380 234 OFFCURVE",
"278 266 OFFCURVE",
"222 282 CURVE SMOOTH",
"182 294 OFFCURVE",
"98 308 OFFCURVE",
"96 392 CURVE SMOOTH",
"98 450 OFFCURVE",
"138 492 OFFCURVE",
"210 492 CURVE SMOOTH",
"272 492 OFFCURVE",
"314 458 OFFCURVE",
"334 426 CURVE",
"360 444 LINE",
"340 480 OFFCURVE",
"286 520 OFFCURVE",
"210 520 CURVE SMOOTH",
"128 520 OFFCURVE",
"66 472 OFFCURVE",
"66 394 CURVE SMOOTH",
"66 296 OFFCURVE",
"162 268 OFFCURVE",
"216 254 CURVE SMOOTH",
"258 242 OFFCURVE",
"350 218 OFFCURVE",
"350 136 CURVE SMOOTH",
"350 66 OFFCURVE",
"284 20 OFFCURVE",
"220 20 CURVE SMOOTH",
"158 20 OFFCURVE",
"102 64 OFFCURVE",
"82 106 CURVE",
"56 90 LINE",
"80 42 OFFCURVE",
"140 -8 OFFCURVE",
"220 -8 CURVE SMOOTH"
);
}
);
width = 436;
},
{
anchors = (
{
name = bottom;
position = "{244, 0}";
},
{
name = cedilla;
position = "{262, 0}";
},
{
name = top;
position = "{244, 528}";
}
);
background = {
paths = (
{
closed = 1;
nodes = (
"365 -8 OFFCURVE",
"460 60 OFFCURVE",
"460 162 CURVE SMOOTH",
"460 272 OFFCURVE",
"350 305 OFFCURVE",
"304 314 CURVE SMOOTH",
"267 324 OFFCURVE",
"198 337 OFFCURVE",
"200 374 CURVE SMOOTH",
"198 393 OFFCURVE",
"218 407 OFFCURVE",
"246 406 CURVE SMOOTH",
"287 407 OFFCURVE",
"316 380 OFFCURVE",
"328 356 CURVE",
"452 426 LINE",
"419 494 OFFCURVE",
"337 539 OFFCURVE",
"240 536 CURVE SMOOTH",
"132 539 OFFCURVE",
"45 476 OFFCURVE",
"46 372 CURVE SMOOTH",
"45 287 OFFCURVE",
"113 238 OFFCURVE",
"198 218 CURVE SMOOTH",
"245 203 OFFCURVE",
"303 190 OFFCURVE",
"304 160 CURVE SMOOTH",
"303 141 OFFCURVE",
"284 126 OFFCURVE",
"250 128 CURVE SMOOTH",
"202 126 OFFCURVE",
"169 164 OFFCURVE",
"152 200 CURVE",
"28 120 LINE",
"55 44 OFFCURVE",
"146 -8 OFFCURVE",
"250 -8 CURVE SMOOTH"
);
}
);
};
layerId = "2D8F7115-C311-411E-929D-56333CF7FFB2";
paths = (
{
closed = 1;
nodes = (
"368 -8 OFFCURVE",
"462 60 OFFCURVE",
"462 162 CURVE SMOOTH",
"462 272 OFFCURVE",
"352 304 OFFCURVE",
"306 314 CURVE SMOOTH",
"264 324 OFFCURVE",
"202 338 OFFCURVE",
"202 374 CURVE SMOOTH",
"202 392 OFFCURVE",
"218 412 OFFCURVE",
"252 412 CURVE SMOOTH",
"294 412 OFFCURVE",
"326 382 OFFCURVE",
"340 360 CURVE",
"454 426 LINE",
"422 494 OFFCURVE",
"340 536 OFFCURVE",
"242 536 CURVE SMOOTH",
"134 536 OFFCURVE",
"48 476 OFFCURVE",
"48 376 CURVE SMOOTH",
"48 286 OFFCURVE",
"116 242 OFFCURVE",
"200 218 CURVE SMOOTH",
"242 206 OFFCURVE",
"306 192 OFFCURVE",
"306 160 CURVE SMOOTH",
"306 142 OFFCURVE",
"286 124 OFFCURVE",
"252 124 CURVE SMOOTH",
"200 124 OFFCURVE",
"164 162 OFFCURVE",
"146 194 CURVE",
"26 116 LINE",
"62 44 OFFCURVE",
"152 -8 OFFCURVE",
"252 -8 CURVE SMOOTH"
);
}
);
width = 490;
},
{
anchors = (
{
name = bottom;
position = "{226, 0}";
},
{
name = cedilla;
position = "{238, 0}";
},
{
name = top;
position = "{226, 520}";
}
);
associatedMasterId = "AB099EFE-E788-4EFC-8633-CF147CB782A6";
layerId = "71E4C0AB-FD56-4113-8C0E-7CB3582C377C";
name = "Half {450}";
paths = (
{
closed = 1;
nodes = (
"336 -8 OFFCURVE",
"414 58 OFFCURVE",
"414 148 CURVE SMOOTH",
"414 248 OFFCURVE",
"314 286 OFFCURVE",
"248 302 CURVE SMOOTH",
"202 314 OFFCURVE",
"148 328 OFFCURVE",
"148 376 CURVE SMOOTH",
"148 416 OFFCURVE",
"184 440 OFFCURVE",
"226 440 CURVE SMOOTH",
"270 440 OFFCURVE",
"300 414 OFFCURVE",
"320 380 CURVE",
"398 438 LINE",
"372 480 OFFCURVE",
"312 528 OFFCURVE",
"226 528 CURVE SMOOTH",
"134 528 OFFCURVE",
"52 474 OFFCURVE",
"52 376 CURVE SMOOTH",
"52 278 OFFCURVE",
"140 242 OFFCURVE",
"208 224 CURVE SMOOTH",
"244 214 OFFCURVE",
"314 200 OFFCURVE",
"314 144 CURVE SMOOTH",
"316 106 OFFCURVE",
"280 80 OFFCURVE",
"234 80 CURVE SMOOTH",
"186 80 OFFCURVE",
"142 108 OFFCURVE",
"116 156 CURVE",
"40 98 LINE",
"68 40 OFFCURVE",
"136 -8 OFFCURVE",
"228 -8 CURVE SMOOTH"
);
}
);
width = 454;
},
{
anchors = (
{
name = bottom;
position = "{240, 0}";
},
{
name = cedilla;
position = "{254, 0}";
},
{
name = top;
position = "{240, 528}";
}
);
associatedMasterId = "AB099EFE-E788-4EFC-8633-CF147CB782A6";
layerId = "E7831FF5-668F-4C95-A689-CAE55089C41D";
name = "{700}";
paths = (
{
closed = 1;
nodes = (
"358 -8 OFFCURVE",
"448 60 OFFCURVE",
"448 158 CURVE SMOOTH",
"448 264 OFFCURVE",
"346 300 OFFCURVE",
"290 312 CURVE SMOOTH",
"264 318 OFFCURVE",
"184 332 OFFCURVE",
"184 376 CURVE SMOOTH",
"184 400 OFFCURVE",
"208 420 OFFCURVE",
"244 420 CURVE SMOOTH",
"286 420 OFFCURVE",
"318 392 OFFCURVE",
"332 364 CURVE",
"438 428 LINE",
"406 492 OFFCURVE",
"330 536 OFFCURVE",
"238 536 CURVE SMOOTH",
"126 536 OFFCURVE",
"48 470 OFFCURVE",
"48 376 CURVE SMOOTH",
"48 286 OFFCURVE",
"120 242 OFFCURVE",
"200 220 CURVE SMOOTH",
"244 208 OFFCURVE",
"308 194 OFFCURVE",
"308 156 CURVE SMOOTH",
"308 132 OFFCURVE",
"286 110 OFFCURVE",
"246 110 CURVE SMOOTH",
"194 110 OFFCURVE",
"156 146 OFFCURVE",
"136 182 CURVE",
"30 110 LINE",
"62 44 OFFCURVE",
"146 -8 OFFCURVE",
"244 -8 CURVE SMOOTH"
);
}
);
width = 478;
}
);
leftKerningGroup = LAT_S_LC;
rightKerningGroup = LAT_S_LC;
unicode = 0073;
userData = {
com.typemytype.robofont.layerData = {
background = {
anchors = (
);
components = (
);
contours = (
{
points = (
{
segmentType = curve;
smooth = 1;
x = 213;
y = -12;
},
{
smooth = 0;
x = 318;
y = -12;
},
{
smooth = 0;
x = 376;
y = 50;
},
{
segmentType = curve;
smooth = 1;
x = 376;
y = 120;
},
{
smooth = 0;
x = 376;
y = 214;
},
{
smooth = 0;
x = 288;
y = 237;
},
{
segmentType = curve;
smooth = 1;
x = 208;
y = 266;
},
{
smooth = 0;
x = 147;
y = 288;
},
{
smooth = 0;
x = 85;
y = 310;
},
{
segmentType = curve;
smooth = 1;
x = 85;
y = 368;
},
{
smooth = 0;
x = 85;
y = 415;
},
{
smooth = 0;
x = 124;
y = 462;
},
{
segmentType = curve;
smooth = 1;
x = 208;
y = 462;
},
{
smooth = 0;
x = 253;
y = 462;
},
{
smooth = 0;
x = 284;
y = 448;
},
{
segmentType = curve;
smooth = 1;
x = 314;
y = 429;
},
{
smooth = 0;
x = 325;
y = 422;
},
{
smooth = 0;
x = 336;
y = 423;
},
{
segmentType = curve;
smooth = 1;
x = 343;
y = 434;
},
{
segmentType = line;
smooth = 1;
x = 346;
y = 439;
},
{
smooth = 0;
x = 347;
y = 441;
},
{
smooth = 0;
x = 347;
y = 443;
},
{
segmentType = curve;
smooth = 1;
x = 345;
y = 444;
},
{
smooth = 0;
x = 311;
y = 468;
},
{
smooth = 0;
x = 257;
y = 490;
},
{
segmentType = curve;
smooth = 1;
x = 211;
y = 490;
},
{
smooth = 0;
x = 108;
y = 490;
},
{
smooth = 0;
x = 54;
y = 432;
},
{
segmentType = curve;
smooth = 1;
x = 54;
y = 366;
},
{
smooth = 0;
x = 54;
y = 284;
},
{
smooth = 0;
x = 141;
y = 256;
},
{
segmentType = curve;
smooth = 1;
x = 218;
y = 230;
},
{
smooth = 0;
x = 277;
y = 210;
},
{
smooth = 0;
x = 344;
y = 182;
},
{
segmentType = curve;
smooth = 1;
x = 344;
y = 118;
},
{
smooth = 0;
x = 344;
y = 64;
},
{
smooth = 0;
x = 300;
y = 16;
},
{
segmentType = curve;
smooth = 1;
x = 215;
y = 16;
},
{
smooth = 0;
x = 148;
y = 16;
},
{
smooth = 0;
x = 105;
y = 37;
},
{
segmentType = curve;
smooth = 1;
x = 66;
y = 65;
},
{
smooth = 0;
x = 55;
y = 73;
},
{
smooth = 0;
x = 45;
y = 74;
},
{
segmentType = curve;
smooth = 1;
x = 37;
y = 63;
},
{
segmentType = line;
smooth = 1;
x = 33;
y = 57;
},
{
smooth = 0;
x = 32;
y = 55;
},
{
smooth = 0;
x = 32;
y = 53;
},
{
segmentType = curve;
smooth = 1;
x = 34;
y = 51;
},
{
smooth = 0;
x = 73;
y = 12;
},
{
smooth = 0;
x = 139;
y = -12;
}
);
}
);
lib = {
};
name = s;
unicodes = (
);
width = 439;
};
};
};
},
{
glyphname = germandbls;
lastChange = "2020-05-16 06:50:03 +0000";
layers = (
{
background = {
components = (
{
name = B;
transform = "{1, 0, 0, 1, -16, 0}";
}
);
};
layerId = "AB099EFE-E788-4EFC-8633-CF147CB782A6";
paths = (
{
closed = 1;
nodes = (
"412 -8 OFFCURVE",
"496 94 OFFCURVE",
"496 204 CURVE SMOOTH",
"496 328 OFFCURVE",
"396 422 OFFCURVE",
"262 416 CURVE",
"262 402 LINE",
"364 396 OFFCURVE",
"442 472 OFFCURVE",
"442 580 CURVE SMOOTH",
"442 688 OFFCURVE",
"364 760 OFFCURVE",
"260 760 CURVE SMOOTH",
"152 760 OFFCURVE",
"80 682 OFFCURVE",
"80 574 CURVE SMOOTH",
"80 0 LINE",
"110 0 LINE",
"110 580 LINE SMOOTH",
"110 666 OFFCURVE",
"176 732 OFFCURVE",
"262 732 CURVE SMOOTH",
"348 732 OFFCURVE",
"412 666 OFFCURVE",
"412 578 CURVE SMOOTH",
"412 490 OFFCURVE",
"346 426 OFFCURVE",
"256 426 CURVE SMOOTH",
"222 426 LINE",
"222 396 LINE",
"236 396 LINE SMOOTH",
"368 396 OFFCURVE",
"464 322 OFFCURVE",
"464 208 CURVE SMOOTH",
"464 110 OFFCURVE",
"392 20 OFFCURVE",
"282 20 CURVE SMOOTH",
"246 20 OFFCURVE",
"214 28 OFFCURVE",
"194 34 CURVE",
"194 4 LINE",
"218 -4 OFFCURVE",
"260 -8 OFFCURVE",
"286 -8 CURVE SMOOTH"
);
}
);
width = 558;
},
{
layerId = "2D8F7115-C311-411E-929D-56333CF7FFB2";
paths = (
{
closed = 1;
nodes = (
"542 -8 OFFCURVE",
"642 70 OFFCURVE",
"642 196 CURVE SMOOTH",
"642 318 OFFCURVE",
"546 392 OFFCURVE",
"402 392 CURVE",
"402 364 LINE",
"480 364 OFFCURVE",
"580 434 OFFCURVE",
"580 554 CURVE SMOOTH",
"580 666 OFFCURVE",
"490 764 OFFCURVE",
"330 764 CURVE SMOOTH",
"176 764 OFFCURVE",
"68 674 OFFCURVE",
"68 520 CURVE SMOOTH",
"68 0 LINE",
"242 0 LINE",
"242 512 LINE SMOOTH",
"242 574 OFFCURVE",
"282 620 OFFCURVE",
"340 620 CURVE SMOOTH",
"388 620 OFFCURVE",
"428 588 OFFCURVE",
"428 536 CURVE SMOOTH",
"428 490 OFFCURVE",
"390 452 OFFCURVE",
"338 452 CURVE SMOOTH",
"310 452 LINE",
"310 298 LINE",
"358 298 LINE SMOOTH",
"426 298 OFFCURVE",
"470 266 OFFCURVE",
"470 212 CURVE SMOOTH",
"470 166 OFFCURVE",
"436 136 OFFCURVE",
"382 136 CURVE SMOOTH",
"364 136 OFFCURVE",
"324 140 OFFCURVE",
"306 144 CURVE",
"306 -6 LINE",
"332 -8 OFFCURVE",
"370 -8 OFFCURVE",
"384 -8 CURVE SMOOTH"
);
}
);
width = 666;
},
{
associatedMasterId = "AB099EFE-E788-4EFC-8633-CF147CB782A6";
layerId = "8E3B2D88-952E-43C5-9FFF-A3AC38F4946B";
name = "Half {450}";
paths = (
{
closed = 1;
nodes = (
"466 -8 OFFCURVE",
"570 74 OFFCURVE",
"570 196 CURVE SMOOTH",
"570 320 OFFCURVE",
"458 410 OFFCURVE",
"340 406 CURVE",
"340 372 LINE",
"430 366 OFFCURVE",
"522 442 OFFCURVE",
"522 562 CURVE SMOOTH",
"522 676 OFFCURVE",
"430 762 OFFCURVE",
"296 762 CURVE SMOOTH",
"150 762 OFFCURVE",
"72 669 OFFCURVE",
"72 536 CURVE SMOOTH",
"72 0 LINE",
"174 0 LINE",
"176 522 LINE SMOOTH",
"176 606 OFFCURVE",
"214 671 OFFCURVE",
"294 670 CURVE SMOOTH",
"362 671 OFFCURVE",
"420 623 OFFCURVE",
"420 550 CURVE SMOOTH",
"420 474 OFFCURVE",
"368 432 OFFCURVE",
"300 432 CURVE SMOOTH",
"268 432 LINE",
"268 342 LINE",
"296 342 LINE SMOOTH",
"398 343 OFFCURVE",
"464 286 OFFCURVE",
"466 208 CURVE SMOOTH",
"468 130 OFFCURVE",
"404 82 OFFCURVE",
"320 82 CURVE SMOOTH",
"304 82 OFFCURVE",
"282 84 OFFCURVE",
"248 90 CURVE",
"248 -2 LINE",
"276 -8 OFFCURVE",
"296 -8 OFFCURVE",
"318 -8 CURVE SMOOTH"
);
}
);
width = 612;
}
);
leftKerningGroup = LAT_L_LC;
leftMetricsKey = h;
rightKerningGroup = LAT_GERMANDBLS_LC;
rightMetricsKey = B;
unicode = 00DF;
},
{
glyphname = t;
lastChange = "2020-05-18 06:11:26 +0000";
layers = (
{
anchors = (
{
name = bottom;
position = "{224, 0}";
},
{
name = cedilla;
position = "{234, 0}";
},
{
name = center;
position = "{142, 256}";
},
{
name = top;
position = "{142, 690}";
},
{
name = topright;
position = "{172, 772}";
}
);
layerId = "AB099EFE-E788-4EFC-8633-CF147CB782A6";
paths = (
{
closed = 1;
nodes = (
"268 -6 OFFCURVE",
"286 -4 OFFCURVE",
"304 4 CURVE",
"296 30 LINE",
"282 26 OFFCURVE",
"266 22 OFFCURVE",
"250 22 CURVE SMOOTH",
"184 22 OFFCURVE",
"156 76 OFFCURVE",
"156 134 CURVE SMOOTH",
"156 690 LINE",
"126 690 LINE",
"126 140 LINE SMOOTH",
"126 58 OFFCURVE",
"164 -6 OFFCURVE",
"248 -6 CURVE SMOOTH"
);
},
{
closed = 1;
nodes = (
"296 484 LINE",
"296 512 LINE",
"44 512 LINE",
"44 484 LINE"
);
}
);
width = 348;
},
{
anchors = (
{
name = bottom;
position = "{278, 0}";
},
{
name = cedilla;
position = "{290, 0}";
},
{
name = center;
position = "{200, 264}";
},
{
name = top;
position = "{198, 674}";
},
{
name = topright;
position = "{284, 846}";
}
);
guideLines = (
{
angle = 100;
position = "{446, -12}";
}
);
layerId = "2D8F7115-C311-411E-929D-56333CF7FFB2";
paths = (
{
closed = 1;
nodes = (
"354 -8 OFFCURVE",
"402 -4 OFFCURVE",
"432 8 CURVE",
"404 154 LINE",
"382 145 OFFCURVE",
"360 140 OFFCURVE",
"342 140 CURVE SMOOTH",
"308 140 OFFCURVE",
"284 158 OFFCURVE",
"284 200 CURVE SMOOTH",
"284 674 LINE",
"108 674 LINE",
"108 200 LINE SMOOTH",
"108 78 OFFCURVE",
"174 -8 OFFCURVE",
"310 -8 CURVE SMOOTH"
);
},
{
closed = 1;
nodes = (
"404 380 LINE",
"404 528 LINE",
"20 528 LINE",
"20 380 LINE"
);
}
);
width = 448;
},
{
anchors = (
{
name = bottom;
position = "{252, 0}";
},
{
name = cedilla;
position = "{264, 0}";
},
{
name = center;
position = "{172, 262}";
},
{
name = top;
position = "{170, 682}";
},
{
name = topright;
position = "{244, 804}";
}
);
associatedMasterId = "AB099EFE-E788-4EFC-8633-CF147CB782A6";
layerId = "D4428132-0EA3-41AC-A7CE-FA7CD50E1114";
name = "Half {450}";
paths = (
{
closed = 1;
nodes = (
"305 -8 OFFCURVE",
"331 -7 OFFCURVE",
"352 2 CURVE",
"338 96 LINE",
"317 87 OFFCURVE",
"296 86 OFFCURVE",
"286 86 CURVE SMOOTH",
"245 86 OFFCURVE",
"220 109 OFFCURVE",
"220 156 CURVE SMOOTH",
"220 682 LINE",
"118 682 LINE",
"118 144 LINE SMOOTH",
"118 55 OFFCURVE",
"171 -8 OFFCURVE",
"278 -8 CURVE SMOOTH"
);
},
{
closed = 1;
nodes = (
"344 432 LINE",
"344 520 LINE",
"32 520 LINE",
"32 432 LINE"
);
}
);
width = 388;
}
);
leftKerningGroup = LAT_T_LC;
rightKerningGroup = LAT_T_LC;
unicode = 0074;
},
{
color = 4;
glyphname = t.ss01;
lastChange = "2020-05-16 03:44:35 +0000";
layers = (
{
anchors = (
{
name = bottom;
position = "{172, 0}";
},
{
name = cedilla;
position = "{166, 0}";
},
{
name = center;
position = "{172, 256}";
},
{
name = top;
position = "{172, 690}";
},
{
name = topright;
position = "{208, 752}";
}
);
layerId = "AB099EFE-E788-4EFC-8633-CF147CB782A6";
paths = (
{
closed = 1;
nodes = (
"188 -2 LINE",
"188 690 LINE",
"158 690 LINE",
"158 -2 LINE"
);
},
{
closed = 1;
nodes = (
"308 484 LINE",
"308 512 LINE",
"36 512 LINE",
"36 484 LINE"
);
}
);
width = 344;
},
{
anchors = (
{
name = bottom;
position = "{218, 0}";
},
{
name = cedilla;
position = "{258, 0}";
},
{
name = center;
position = "{218, 264}";
},
{
name = top;
position = "{218, 674}";
},
{
name = topright;
position = "{290, 844}";
}
);
guideLines = (
{
angle = 100;
position = "{444, -8}";
}
);
layerId = "2D8F7115-C311-411E-929D-56333CF7FFB2";
paths = (
{
closed = 1;
nodes = (
"306 0 LINE",
"306 674 LINE",
"132 674 LINE",
"132 0 LINE"
);
},
{
closed = 1;
nodes = (
"416 380 LINE",
"416 528 LINE",
"20 528 LINE",
"20 380 LINE"
);
}
);
width = 436;
}
);
leftKerningGroup = LAT_T_LC;
rightKerningGroup = LAT_TSS04_LC;
},
{
glyphname = u;
lastChange = "2020-05-19 00:18:00 +0000";
layers = (
{
anchors = (
{
name = bottom;
position = "{294, 0}";
},
{
name = horn;
position = "{442, 512}";
},
{
name = ogonek;
position = "{448, 0}";
},
{
name = top;
position = "{274, 512}";
}
);
background = {
components = (
{
name = n;
transform = "{-1, 0, 0, -1, 538, 512}";
}
);
};
guideLines = (
{
angle = 60;
position = "{498, 0}";
}
);
layerId = "AB099EFE-E788-4EFC-8633-CF147CB782A6";
paths = (
{
closed = 1;
nodes = (
"342 -8 OFFCURVE",
"414 49 OFFCURVE",
"438 116 CURVE",
"418 94 LINE",
"442 94 LINE",
"428 110 LINE",
"428 50 OFFCURVE",
"449 14 OFFCURVE",
"480 -2 CURVE SMOOTH",
"492 -8 LINE",
"508 18 LINE",
"500 22 LINE SMOOTH",
"478 33 OFFCURVE",
"458 62 OFFCURVE",
"458 114 CURVE SMOOTH",
"458 512 LINE",
"428 512 LINE",
"428 190 LINE SMOOTH",
"428 98 OFFCURVE",
"346 20 OFFCURVE",
"248 20 CURVE SMOOTH",
"162 22 OFFCURVE",
"106 84 OFFCURVE",
"106 182 CURVE SMOOTH",
"106 512 LINE",
"76 512 LINE",
"76 182 LINE SMOOTH",
"76 66 OFFCURVE",
"144 -8 OFFCURVE",
"248 -8 CURVE SMOOTH"
);
}
);
width = 548;
},
{
anchors = (
{
name = bottom;
position = "{340, 0}";
},
{
name = horn;
position = "{474, 528}";
},
{
name = ogonek;
position = "{460, 0}";
},
{
name = top;
position = "{320, 528}";
}
);
guideLines = (
{
angle = 60;
position = "{514, 0}";
}
);
layerId = "2D8F7115-C311-411E-929D-56333CF7FFB2";
paths = (
{
closed = 1;
nodes = (
"340 -8 OFFCURVE",
"408 28 OFFCURVE",
"456 96 CURVE",
"374 50 LINE",
"440 50 LINE",
"398 88 LINE",
"409 48 OFFCURVE",
"451 11 OFFCURVE",
"510 -4 CURVE SMOOTH",
"526 -8 LINE",
"606 130 LINE",
"588 138 LINE SMOOTH",
"566 148 OFFCURVE",
"552 164 OFFCURVE",
"552 214 CURVE SMOOTH",
"552 528 LINE",
"378 528 LINE",
"378 220 LINE SMOOTH",
"378 166 OFFCURVE",
"348 138 OFFCURVE",
"306 138 CURVE SMOOTH",
"266 138 OFFCURVE",
"236 166 OFFCURVE",
"236 220 CURVE SMOOTH",
"236 528 LINE",
"62 528 LINE",
"62 194 LINE SMOOTH",
"62 60 OFFCURVE",
"152 -8 OFFCURVE",
"258 -8 CURVE SMOOTH"
);
}
);
width = 630;
},
{
anchors = (
{
name = bottom;
position = "{290, 0}";
},
{
name = horn;
position = "{452, 520}";
},
{
name = ogonek;
position = "{470, 0}";
},
{
name = top;
position = "{288, 520}";
}
);
associatedMasterId = "AB099EFE-E788-4EFC-8633-CF147CB782A6";
background = {
components = (
{
name = n;
transform = "{-1, 0, 0, -1, 578, 520}";
}
);
};
guideLines = (
{
angle = 60;
position = "{494, 0}";
}
);
layerId = "87917680-6E3F-4FD7-ACA5-668263386EB0";
name = "Half {450}";
paths = (
{
closed = 1;
nodes = (
"364 -8 OFFCURVE",
"420 38 OFFCURVE",
"448 92 CURVE",
"396 62 LINE",
"474 62 LINE",
"424 76 LINE",
"424 62 OFFCURVE",
"464 12 OFFCURVE",
"498 -2 CURVE SMOOTH",
"512 -8 LINE",
"560 76 LINE",
"548 82 LINE SMOOTH",
"516 98 OFFCURVE",
"510 120 OFFCURVE",
"510 162 CURVE SMOOTH",
"510 520 LINE",
"408 520 LINE",
"408 206 LINE SMOOTH",
"408 140 OFFCURVE",
"362 84 OFFCURVE",
"290 84 CURVE SMOOTH",
"226 84 OFFCURVE",
"172 124 OFFCURVE",
"172 208 CURVE SMOOTH",
"172 520 LINE",
"70 520 LINE",
"70 202 LINE SMOOTH",
"70 68 OFFCURVE",
"150 -8 OFFCURVE",
"270 -8 CURVE SMOOTH"
);
}
);
width = 592;
}
);
leftKerningGroup = LAT_U_LC;
rightKerningGroup = LAT_A_LC;
unicode = 0075;
},
